<?xml version="1.0" standalone="no"?>
<!DOCTYPE svg PUBLIC "-//W3C//DTD SVG 1.1//EN" "http://www.w3.org/Graphics/SVG/1.1/DTD/svg11.dtd" >
<svg xmlns="http://www.w3.org/2000/svg" xmlns:xlink="http://www.w3.org/1999/xlink" version="1.1">
<metadata>
Created by FontForge 20170910 at Thu Oct  1 11:55:45 2015
 By Jimmy Wärting
(URW)++,Copyright 2015 by (URW)++ Design &#38; Development
</metadata>
<defs>
<font id="DaimlerCS-Demi" horiz-adv-x="1024" >
  <font-face 
    font-family="Daimler CS Demi"
    font-weight="600"
    font-stretch="normal"
    units-per-em="2048"
    panose-1="0 0 0 0 0 0 0 0 0 0"
    ascent="1645"
    descent="-403"
    x-height="972"
    cap-height="1365"
    bbox="-356 -561 2409 2195"
    underline-thickness="183"
    underline-position="-298"
    unicode-range="U+0020-FB04"
  />
<missing-glyph horiz-adv-x="512" 
d="M51 0v1365h410v-1365h-410zM410 51v1263h-308v-1263h308z" />
    <glyph glyph-name="ff" unicode="ff" horiz-adv-x="1229" 
d="M766 972v61q0 179 46 252q73 116 234 116q88 0 192 -39v-170q-97 34 -154 34q-80 0 -104 -72q-11 -36 -11 -138v-44h235v-159h-233v-813h-205v813h-395v-813h-205v813h-133v159h133v61q0 179 46 252q73 116 234 116q89 0 192 -39v-170q-97 34 -153 34q-81 0 -105 -72
q-12 -37 -12 -138v-44h398z" />
    <glyph glyph-name="fi" unicode="fi" horiz-adv-x="1116" 
d="M368 972h236v-159h-233v-813h-205v813h-133v159h133v61q0 180 47 255q72 113 234 113q89 0 191 -39v-170q-96 34 -154 34q-67 0 -91.5 -44t-24.5 -166v-44zM766 972h205v-972h-205v972zM872 1389q54 0 88.5 -35.5t34.5 -92.5q0 -56 -35 -91t-92 -35q-56 0 -91 34.5
t-35 89.5q0 57 36.5 93.5t93.5 36.5z" />
    <glyph glyph-name="fl" unicode="fl" horiz-adv-x="1116" 
d="M368 972h236v-159h-233v-813h-205v813h-133v159h133v61q0 180 47 255q72 113 234 113q89 0 191 -39v-170q-96 34 -154 34q-67 0 -91.5 -44t-24.5 -166v-44zM766 1373h205v-1373h-205v1373z" />
    <glyph glyph-name="ffi" unicode="ffi" horiz-adv-x="1715" 
d="M766 972v61q0 179 46 252q73 116 234 116q88 0 192 -39v-170q-97 34 -154 34q-80 0 -104 -72q-11 -36 -11 -138v-44h235v-159h-233v-813h-205v813h-395v-813h-205v813h-133v159h133v61q0 179 46 252q73 116 234 116q89 0 192 -39v-170q-97 34 -153 34q-81 0 -105 -72
q-12 -37 -12 -138v-44h398zM1366 972h205v-972h-205v972zM1471 1389q54 0 88.5 -35.5t34.5 -92.5q0 -56 -35 -91t-92 -35q-56 0 -91 34.5t-35 89.5q0 57 36.5 93.5t93.5 36.5z" />
    <glyph glyph-name="ffl" unicode="ffl" horiz-adv-x="1715" 
d="M766 972v61q0 179 46 252q73 116 234 116q88 0 192 -39v-170q-97 34 -154 34q-80 0 -104 -72q-11 -36 -11 -138v-44h235v-159h-233v-813h-205v813h-395v-813h-205v813h-133v159h133v61q0 179 46 252q73 116 234 116q89 0 192 -39v-170q-97 34 -153 34q-81 0 -105 -72
q-12 -37 -12 -138v-44h398zM1366 1373h205v-1373h-205v1373z" />
    <glyph glyph-name="fft" unicode="fft" horiz-adv-x="1855" 
d="M766 972v61q0 179 46 252q73 116 234 116q88 0 192 -39v-170q-97 34 -154 34q-80 0 -104 -72q-11 -36 -11 -138v-44h403l6 280h195l-5 -280h214l-3 -159h-213l-8 -430q-1 -63 -1 -80q0 -89 20 -114q26 -32 84 -32q67 0 144 32l-3 -170q-101 -39 -197 -39q-158 0 -222 106
q-33 54 -33 178q0 25 3 119l13 430h-395v-813h-205v813h-395v-813h-205v813h-133v159h133v61q0 179 46 252q73 116 234 116q89 0 192 -39v-170q-97 34 -153 34q-81 0 -105 -72q-12 -37 -12 -138v-44h398z" />
    <glyph glyph-name="ft" unicode="ft" horiz-adv-x="1256" 
d="M772 972l6 280h195l-5 -280h214l-3 -159h-213l-8 -430q-1 -63 -1 -80q0 -89 20 -114q26 -32 84 -32q67 0 144 32l-3 -170q-100 -39 -197 -39q-159 0 -222 106q-33 54 -33 176q0 23 3 121l13 430h-395v-813h-205v813l-133 -8v167h133v61q0 179 46 252q73 116 234 116
q89 0 192 -39v-170q-97 34 -153 34q-81 0 -105 -72q-12 -37 -12 -138v-44h404z" />
    <glyph glyph-name=".notdef" horiz-adv-x="512" 
d="M51 0v1365h410v-1365h-410zM410 51v1263h-308v-1263h308z" />
    <glyph glyph-name="space" unicode=" " horiz-adv-x="512" 
 />
    <glyph glyph-name="exclam" unicode="!" horiz-adv-x="513" 
d="M148 1335h217l-27 -914h-169zM258 258q56 0 97 -40.5t41 -97.5t-41 -97t-99 -40q-57 0 -98 40t-41 97q0 58 41 98t100 40z" />
    <glyph glyph-name="quotedbl" unicode="&#x22;" horiz-adv-x="882" 
d="M350 817h-130l-36 548h203zM662 817h-130l-36 548h203z" />
    <glyph glyph-name="numbersign" unicode="#" horiz-adv-x="1229" 
d="M1138 563l-23 -143h-238l-66 -420h-166l67 420h-275l-67 -420h-165l66 420h-234l23 143h234l42 266h-233l22 143h233l63 393h165l-62 -393h274l63 393h166l-62 -393h238l-23 -143h-238l-42 -266h238zM776 829h-275l-42 -266h275z" />
    <glyph glyph-name="dollar" unicode="$" horiz-adv-x="1133" 
d="M620 1207v-408q173 -59 244 -101q188 -110 188 -319q0 -170 -118 -279.5t-314 -122.5v-167h-105v167q-427 38 -433 448h200q10 -234 233 -269v460q-177 61 -237 96q-164 96 -164 295q0 161 108 264t293 118v145h105v-146q175 -19 276.5 -117.5t106.5 -256.5h-200
q-19 161 -183 193zM515 1208q-198 -35 -198 -184q0 -93 82 -142q30 -18 116 -48v374zM620 153q82 8 135 43q88 58 88 161t-84 162q-34 24 -139 61v-427z" />
    <glyph glyph-name="percent" unicode="%" horiz-adv-x="1326" 
d="M974 1365h173l-797 -1365h-172zM995 648q52 0 104.5 -25.5t88.5 -68.5q80 -94 80 -235q0 -156 -95 -252q-77 -78 -180 -78q-116 0 -195 94q-80 95 -80 236q0 156 95 252q76 77 182 77zM995 525q-62 0 -100 -57t-38 -149t38 -149.5t98 -57.5t98 57.5t38 149.5
q0 90 -38 148t-96 58zM335 1376q113 0 192 -94q80 -94 80 -235q0 -156 -95 -252q-76 -78 -180 -78q-115 0 -194 94q-80 95 -80 236q0 156 95 251q77 78 182 78zM334 1253q-61 0 -99 -57t-38 -149t37.5 -149.5t97.5 -57.5t98 57.5t38 149.5q0 90 -37.5 148t-96.5 58z" />
    <glyph glyph-name="ampersand" unicode="&#x26;" horiz-adv-x="1200" 
d="M884 657h162q1 -38 1 -59q0 -119 -23.5 -203.5t-76.5 -159.5l175 -235h-216l-73 108q-70 -68 -146.5 -97t-182.5 -29q-177 0 -293 90q-140 109 -140 292q0 83 31.5 151.5t102.5 139.5q51 52 126 112q-94 122 -121 176.5t-27 124.5q0 126 94 204q88 73 223 73
q127 0 207 -67q90 -76 90 -206q0 -93 -47 -169.5t-163 -170.5l254 -346q25 48 34 97.5t9 133.5v40zM480 858q145 116 145 221q0 50 -35 81.5t-89 31.5q-56 0 -94 -33.5t-38 -82.5q0 -46 20 -85.5t91 -132.5zM443 619q-64 -50 -97 -84q-85 -88 -85 -182q0 -91 69 -149
t179 -58q133 0 219 94z" />
    <glyph glyph-name="quotesingle" unicode="'" horiz-adv-x="512" 
d="M321 817h-130l-36 548h203z" />
    <glyph glyph-name="parenleft" unicode="(" horiz-adv-x="602" 
d="M382 1377h153q-216 -331 -216 -886q0 -570 216 -901h-153q-248 335 -248 894q0 553 248 893z" />
    <glyph glyph-name="parenright" unicode=")" horiz-adv-x="604" 
d="M221 -410h-154q218 330 218 887q0 568 -218 900h154q249 -337 249 -894q0 -554 -249 -893z" />
    <glyph glyph-name="asterisk" unicode="*" 
d="M460 1084v247h105v-247l234 77l33 -100l-235 -76l145 -200l-85 -61l-145 200l-145 -200l-84 61l144 200l-234 76l32 100z" />
    <glyph glyph-name="plus" unicode="+" horiz-adv-x="1133" 
d="M645 761h385v-152h-385v-399h-158v399h-384v152h384v399h158v-399z" />
    <glyph glyph-name="comma" unicode="," horiz-adv-x="502" 
d="M187 -387h-130q155 191 174 390q-51 2 -80 20q-59 36 -59 107q0 57 42 97t102 40q68 0 109 -52t41 -139q0 -103 -46 -209.5t-153 -253.5z" />
    <glyph glyph-name="hyphen" unicode="-" horiz-adv-x="547" 
d="M0 591h547v-150h-547v150z" />
    <glyph glyph-name="period" unicode="." horiz-adv-x="518" 
d="M261 258q56 0 96.5 -40.5t40.5 -97.5t-41 -97t-98 -40q-58 0 -98.5 40t-40.5 97q0 58 41 98t100 40z" />
    <glyph glyph-name="slash" unicode="/" horiz-adv-x="1153" 
d="M75 -354l836 1719h167l-835 -1719h-168z" />
    <glyph glyph-name="zero" unicode="0" horiz-adv-x="1133" 
d="M573 1358q129 0 232 -75q117 -84 174 -256q51 -154 51 -358q0 -334 -137 -525q-117 -163 -326 -163q-211 0 -327 163q-137 191 -137 522q0 343 137 529q119 163 333 163zM570 1187q-116 0 -172 -99q-87 -151 -87 -422q0 -264 87 -415q56 -99 169 -99q112 0 168 99
q87 152 87 418q0 271 -87 419q-58 99 -165 99z" />
    <glyph glyph-name="one" unicode="1" horiz-adv-x="1133" 
d="M346 995v120q133 4 202.5 55.5t97.5 168.5h141v-1339h-205v995h-236z" />
    <glyph glyph-name="two" unicode="2" horiz-adv-x="1133" 
d="M347 952h-178q1 163 76 261q112 145 332 145q174 0 280 -92q109 -93 109 -250q0 -90 -39.5 -170t-159.5 -233q-118 -150 -349 -426h562v-187h-825l-1 164l30 38q403 485 487.5 605t84.5 205q0 73 -52.5 119.5t-136.5 46.5q-98 0 -154.5 -58t-65.5 -168z" />
    <glyph glyph-name="three" unicode="3" horiz-adv-x="1133" 
d="M363 984h-177q6 159 93 254q111 120 315 120q182 0 284 -98q101 -96 101 -247q0 -208 -209 -297q239 -75 239 -323q0 -204 -149 -322q-114 -91 -293 -91q-207 0 -323.5 108.5t-114.5 301.5h185q2 -94 50 -153q64 -78 198 -78q113 0 176 61q65 62 65 170q0 151 -135 202
q-60 23 -191 23h-41v172q34 -3 51 -3q120 0 189 40q96 55 96 173q0 83 -54 133t-143 50q-183 0 -212 -196z" />
    <glyph glyph-name="four" unicode="4" horiz-adv-x="1133" 
d="M824 467h237v-169h-232v-313h-207v313h-550v162l525 879h227v-872zM632 467l1 633l-366 -633h365z" />
    <glyph glyph-name="five" unicode="5" horiz-adv-x="1133" 
d="M277 1331h642l-16 -183h-472l-55 -320q100 74 217 74q195 0 308 -137q98 -117 98 -298q0 -201 -124 -342q-128 -144 -326 -144q-219 0 -332 145q-74 94 -83 226h193q15 -94 70 -143t144 -49q112 0 174 79q69 88 69 218q0 125 -61 200.5t-162 75.5q-133 0 -221 -125
l-178 24z" />
    <glyph glyph-name="six" unicode="6" horiz-adv-x="1133" 
d="M618 1356h225q-223 -259 -351 -468q57 21 121 21q170 0 281 -126q110 -124 110 -325q0 -230 -141 -365q-116 -112 -288 -112q-182 0 -304 120q-141 138 -141 356q0 255 201 548q90 132 287 351zM567 747q-92 0 -152 -65q-77 -85 -77 -229q0 -140 75 -226q62 -71 156 -71
q98 0 155 69q72 87 72 227q0 146 -77 230q-60 65 -152 65z" />
    <glyph glyph-name="seven" unicode="7" horiz-adv-x="1133" 
d="M132 1331h870v-161l-640 -1170h-228l624 1136h-626v195z" />
    <glyph glyph-name="eight" unicode="8" horiz-adv-x="1133" 
d="M312 702q-155 89 -155 275q0 179 137 289q114 92 272 92t272 -92q137 -110 137 -289q0 -186 -154 -275q185 -103 185 -316q0 -190 -141 -305q-122 -100 -299 -100q-176 0 -298 100q-141 115 -141 306q0 212 185 315zM569 1191q-92 0 -148 -57t-56 -150q0 -96 61 -153
q56 -52 141 -52q89 0 145 57.5t56 148.5q0 98 -61 154q-58 52 -138 52zM569 613q-86 0 -150 -49q-84 -63 -84 -184q0 -120 84 -183q64 -49 148 -49q83 0 148 49q83 63 83 183q0 121 -83 184q-66 49 -146 49z" />
    <glyph glyph-name="nine" unicode="9" horiz-adv-x="1133" 
d="M513 -25h-224q218 252 352 471q-54 -21 -120 -21q-167 0 -280 127q-111 126 -111 320q0 239 153 378q119 108 292 108q170 0 284 -104q145 -133 145 -373q0 -203 -111 -408t-380 -498zM573 1183q-95 0 -155 -66q-80 -88 -80 -236q0 -142 77 -229q59 -65 152 -65t152 65
q77 86 77 232q0 152 -76 236q-57 63 -147 63z" />
    <glyph glyph-name="colon" unicode=":" horiz-adv-x="518" 
d="M261 258q56 0 96.5 -40.5t40.5 -97.5t-41 -97t-98 -40q-58 0 -98.5 40t-40.5 97q0 58 41 98t100 40zM261 971q56 0 96.5 -40.5t40.5 -97.5t-41 -97t-98 -40q-58 0 -98.5 40t-40.5 97q0 58 41 98t100 40z" />
    <glyph glyph-name="semicolon" unicode=";" horiz-adv-x="502" 
d="M237 971q56 0 96.5 -40.5t40.5 -96.5q0 -57 -40.5 -97.5t-98.5 -40.5t-98.5 40t-40.5 97q0 58 41 98t100 40zM187 -387h-130q155 191 174 390q-51 2 -80 20q-59 36 -59 107q0 57 42 97t102 40q68 0 109 -52t41 -139q0 -103 -46 -209.5t-153 -253.5z" />
    <glyph glyph-name="less" unicode="&#x3c;" 
d="M955 1211v-200l-673 -319l673 -318v-199l-887 432v172z" />
    <glyph glyph-name="equal" unicode="=" horiz-adv-x="1133" 
d="M103 916h927v-154h-927v154zM103 607h927v-154h-927v154z" />
    <glyph glyph-name="greater" unicode="&#x3e;" 
d="M69 174v201l673 317l-673 319v199l887 -432v-172z" />
    <glyph glyph-name="question" unicode="?" horiz-adv-x="849" 
d="M416 258q56 0 96.5 -40.5t40.5 -97.5q0 -56 -41 -96.5t-98 -40.5q-58 0 -98.5 40t-40.5 97q0 58 41 98t100 40zM509 417h-190q0 138 3 185q5 61 32 108t100 124q75 79 99 120t24 89q0 61 -38 96t-104 35q-156 0 -169 -179h-165q6 164 74 244q99 115 284 115
q152 0 239 -75q94 -82 94 -226q0 -82 -32.5 -141.5t-136.5 -168.5q-79 -82 -97 -123.5t-18 -138.5q0 -24 1 -64z" />
    <glyph glyph-name="at" unicode="@" horiz-adv-x="1502" 
d="M994 1011h143l-80 -414q-13 -68 -13 -94q0 -40 17 -65t45 -25q60 0 113 75q88 124 88 295q0 221 -150 354q-142 126 -370 126q-248 0 -409 -162q-169 -171 -169 -428q0 -250 157 -412q155 -159 441 -159q211 0 397 80l35 -128q-194 -80 -433 -80q-333 0 -531 189
q-101 96 -156 234q-53 133 -53 279q0 209 105 382q104 171 283 259q149 73 331 73q271 0 450 -154q102 -88 155 -214q47 -112 47 -237q0 -180 -89 -323q-106 -168 -249 -168q-60 0 -100.5 35.5t-54.5 100.5q-93 -139 -248 -139q-133 0 -216 94q-81 92 -81 237q0 171 114 298
q102 114 245 114q151 0 215 -129zM779 890q-102 0 -164 -95q-52 -78 -52 -175q0 -88 44.5 -140t120.5 -52q102 0 159 102q44 78 44 178q0 85 -40.5 133.5t-111.5 48.5z" />
    <glyph glyph-name="A" unicode="A" horiz-adv-x="1198" 
d="M495 1369h205l467 -1369h-219l-101 320h-497l-103 -320h-217zM791 502l-193 614l-193 -614h386z" />
    <glyph glyph-name="B" unicode="B" horiz-adv-x="1168" 
d="M169 1365h312q227 0 325 -34q107 -36 163 -126q49 -78 49 -181q0 -115 -54 -186t-171 -107q298 -70 298 -343q0 -174 -116 -280q-74 -67 -173.5 -87.5t-349.5 -20.5h-283v1365zM377 798h120q152 0 219 33q93 45 93 168q0 126 -101 167q-61 25 -222 25h-109v-393zM377 174
h127q197 0 265 30q49 21 76.5 73.5t27.5 122.5q0 156 -127 203q-70 25 -239 25h-130v-454z" />
    <glyph glyph-name="C" unicode="C" horiz-adv-x="1230" 
d="M1139 952h-187q-49 254 -281 254q-163 0 -258 -133q-103 -147 -103 -392q0 -246 107 -394q93 -128 256 -128q263 0 294 328h192q-11 -184 -79 -300q-124 -212 -399 -212q-247 0 -406 164q-187 192 -187 540q0 377 209 569q155 142 375 142q204 0 326 -114t141 -324z" />
    <glyph glyph-name="D" unicode="D" horiz-adv-x="1304" 
d="M169 1365h277q173 0 273.5 -16.5t177.5 -57.5q157 -83 246 -267q72 -151 72 -341q0 -279 -149 -469q-135 -174 -368 -202q-95 -12 -281 -12h-248v1365zM380 182h110q135 0 202 13.5t125 52.5q99 66 146 207q34 103 34 230q0 205 -92 340q-83 123 -236 147q-69 12 -230 12
h-59v-1002z" />
    <glyph glyph-name="E" unicode="E" horiz-adv-x="1066" 
d="M380 798h548v-182h-548v-434h615v-182h-826v1365h808v-181h-597v-386z" />
    <glyph glyph-name="F" unicode="F" horiz-adv-x="1031" 
d="M380 798h548v-182h-548v-616h-211v1365h808v-181h-597v-386z" />
    <glyph glyph-name="G" unicode="G" horiz-adv-x="1295" 
d="M721 692h456v-565q-216 -152 -479 -152q-266 0 -427 168q-92 95 -135 230q-48 147 -48 310q0 350 184 541q160 166 407 166q119 0 219 -43t163 -121q82 -101 97 -271h-187q-46 251 -289 251q-166 0 -257 -117q-115 -146 -115 -406q0 -261 118 -407q94 -117 271 -117
q157 0 298 89v278h-276v166z" />
    <glyph glyph-name="H" unicode="H" horiz-adv-x="1350" 
d="M380 800h589v565h211v-1365h-211v625h-589v-625h-211v1365h211v-565z" />
    <glyph glyph-name="I" unicode="I" horiz-adv-x="550" 
d="M381 0h-213v1365h213v-1365z" />
    <glyph glyph-name="J" unicode="J" horiz-adv-x="641" 
d="M264 1365h213v-1089q0 -170 -7.5 -230.5t-34.5 -112.5q-85 -164 -378 -164q-17 0 -63 2v178q101 -1 154 12.5t81 45.5q23 27 29 73t6 194v1091z" />
    <glyph glyph-name="K" unicode="K" horiz-adv-x="1214" 
d="M909 1365h247l-532 -639l575 -726h-276l-540 720zM169 1365h211v-1365h-211v1365z" />
    <glyph glyph-name="L" unicode="L" horiz-adv-x="1016" 
d="M169 1365h217v-1183h589v-182h-806v1365z" />
    <glyph glyph-name="M" unicode="M" horiz-adv-x="1619" 
d="M169 1365h303l337 -1137l339 1137h301v-1365h-194v1133l-339 -1133h-216l-337 1133v-1133h-194v1365z" />
    <glyph glyph-name="N" unicode="N" horiz-adv-x="1368" 
d="M169 1365h227l602 -1043v1043h200v-1365h-218l-610 1041v-1041h-201v1365z" />
    <glyph glyph-name="O" unicode="O" horiz-adv-x="1353" 
d="M677 1390q243 0 405 -172q183 -193 183 -535t-183 -536q-162 -172 -404 -172q-246 0 -407 172q-183 194 -183 546q0 104 24.5 212.5t66.5 184.5q87 163 244 242q116 58 254 58zM677 1208q-168 0 -261 -132q-106 -150 -106 -386q0 -250 106 -401q92 -132 261 -132
q168 0 260 132q106 151 106 394q0 246 -106 393q-95 132 -260 132z" />
    <glyph glyph-name="P" unicode="P" horiz-adv-x="1119" 
d="M169 1365h275q267 0 383 -39q127 -42 193 -158q55 -98 55 -224q0 -184 -111 -294q-70 -69 -171.5 -93.5t-321.5 -24.5h-91v-532h-211v1365zM380 714h90q175 0 246 20q66 19 103.5 75t37.5 135q0 156 -114 207q-75 33 -275 33h-88v-470z" />
    <glyph glyph-name="Q" unicode="Q" horiz-adv-x="1384" 
d="M1186 298l275 -306h-248l-136 150q-162 -167 -402 -167q-242 0 -404 172q-183 195 -183 536q0 340 183 535q162 172 406 172q243 0 405 -172q183 -195 183 -532q0 -208 -79 -388zM677 1208q-167 0 -260 -133q-107 -153 -107 -386q0 -246 107 -400q92 -132 260 -132
q167 0 259 132q107 155 107 393q0 243 -107 393q-95 133 -259 133z" />
    <glyph glyph-name="R" unicode="R" horiz-adv-x="1181" 
d="M169 1365h294q168 0 251 -11t153 -44q112 -51 166 -163q41 -85 41 -186q0 -270 -260 -375l336 -586h-249l-311 550h-210v-550h-211v1365zM380 732h95q179 0 248 25q63 22 98 76.5t35 129.5q0 135 -107 187q-43 22 -95.5 28t-189.5 6h-84v-452z" />
    <glyph glyph-name="S" unicode="S" horiz-adv-x="1140" 
d="M1009 987h-204q-7 87 -52 141q-66 78 -191 78q-89 0 -150 -43q-72 -52 -72 -133q0 -75 76 -122q47 -29 232 -107q148 -62 210.5 -97t101.5 -78q88 -96 88 -245q0 -201 -152 -315q-121 -91 -316 -91q-232 0 -359 119.5t-138 347.5h205q11 -128 70 -194q79 -89 226 -89
q108 0 179 53q68 51 68 134q0 88 -89 149q-48 33 -224 108q-209 90 -281 156q-109 102 -109 252q0 190 151 294q122 85 290 85q248 0 369 -169q63 -87 71 -234z" />
    <glyph glyph-name="T" unicode="T" horiz-adv-x="992" 
d="M33 1365h927v-181h-359v-1184h-211v1184h-357v181z" />
    <glyph glyph-name="U" unicode="U" horiz-adv-x="1334" 
d="M153 1365h211v-793q0 -121 6 -173t26 -95q35 -75 113 -112q70 -33 158 -33q105 0 178.5 44.5t101.5 126.5q22 64 22 242v793h211v-796q0 -152 -8.5 -216.5t-35.5 -123.5q-57 -127 -195 -196q-115 -58 -274 -58q-230 0 -372 123q-109 94 -132 248q-10 67 -10 223v796z" />
    <glyph glyph-name="V" unicode="V" horiz-adv-x="1202" 
d="M21 1365h226l356 -1123l354 1123h222l-472 -1369h-218z" />
    <glyph glyph-name="W" unicode="W" horiz-adv-x="1691" 
d="M27 1365h199l262 -1111l268 1111h182l268 -1111l265 1111h194l-339 -1369h-236l-246 972l-243 -972h-235z" />
    <glyph glyph-name="X" unicode="X" horiz-adv-x="1157" 
d="M60 1365h242l279 -470l282 470h242l-402 -653l425 -712h-241l-306 519l-311 -519h-240l427 712z" />
    <glyph glyph-name="Y" unicode="Y" horiz-adv-x="1103" 
d="M11 1365h239l305 -588l302 588h235l-435 -811l1 -554h-212l1 554z" />
    <glyph glyph-name="Z" unicode="Z" horiz-adv-x="1018" 
d="M107 1365h860v-148l-664 -1035h647v-182h-896v165l657 1021h-604v179z" />
    <glyph glyph-name="bracketleft" unicode="[" horiz-adv-x="602" 
d="M169 1365h362v-161h-184v-1440h184v-162h-362v1763z" />
    <glyph glyph-name="backslash" unicode="\" horiz-adv-x="1153" 
d="M1078 -354h-168l-835 1719h167z" />
    <glyph glyph-name="bracketright" unicode="]" horiz-adv-x="602" 
d="M433 -398h-362v161h184v1440h-184v162h362v-1763z" />
    <glyph glyph-name="asciicircum" unicode="^" 
d="M246 720h-213l347 651h265l347 -651h-214l-266 491z" />
    <glyph glyph-name="underscore" unicode="_" 
d="M0 -116h1024v-183h-1024v183z" />
    <glyph glyph-name="grave" unicode="`" 
d="M670 1106h-157l-342 309h261z" />
    <glyph glyph-name="a" unicode="a" horiz-adv-x="1014" 
d="M318 698h-194q16 136 98 206q106 90 298 90q123 0 207 -39.5t115 -111.5t31 -230v-379q0 -163 30 -234h-186q-15 56 -17 120q-80 -142 -278 -142q-140 0 -228 63q-104 74 -104 214q0 208 223 292q106 40 365 85v27q0 85 -28 120q-42 52 -142 52q-165 0 -190 -133z
M678 493q-212 -32 -287 -74q-95 -53 -95 -141q0 -63 46.5 -102t119.5 -39q132 0 187 102q29 53 29 179v75z" />
    <glyph glyph-name="b" unicode="b" horiz-adv-x="1085" 
d="M145 1373h201v-533q58 82 121.5 118t149.5 36q142 0 244 -102q144 -145 144 -404q0 -263 -152 -408q-106 -102 -258 -102q-176 0 -264 156q-1 -75 -18 -134h-179q11 71 11 265v1108zM581 823q-107 0 -169 -87q-67 -93 -67 -254t73 -258q56 -75 152 -75q92 0 147 65
q82 100 82 276q0 163 -68 256q-55 77 -150 77z" />
    <glyph glyph-name="c" unicode="c" horiz-adv-x="987" 
d="M900 651h-198q-16 96 -59.5 140t-123.5 44q-100 0 -158 -78q-76 -102 -76 -274q0 -162 62.5 -254t172.5 -92q113 0 161 91q20 39 30 112h196q-10 -150 -99 -252q-101 -115 -287 -115q-180 0 -299 117q-143 141 -143 394q0 268 161 415q111 100 283 100q163 0 260 -89.5
t117 -258.5z" />
    <glyph glyph-name="d" unicode="d" horiz-adv-x="1084" 
d="M938 1373v-1075q0 -215 18 -298h-190q-12 52 -12 95q0 16 2 42q-38 -65 -79 -97q-77 -62 -195 -62q-161 0 -265 107q-138 141 -138 392q0 269 152 418q101 99 243 99q90 0 149 -32.5t114 -110.5v522h201zM518 823q-99 0 -154 -68q-79 -99 -79 -275q0 -162 74 -260
q53 -71 151 -71q96 0 150 66q81 98 81 272q0 165 -69 259q-56 77 -154 77z" />
    <glyph glyph-name="e" unicode="e" horiz-adv-x="1026" 
d="M946 442h-664q5 -127 54 -202q67 -102 203 -102q143 0 206 128l181 -13q-31 -104 -100 -172q-108 -108 -292 -108q-171 0 -288 96q-167 137 -167 405q0 183 77 317q120 208 371 208q205 0 321 -157q99 -135 99 -356q0 -13 -1 -44zM741 592q-29 246 -219 246
q-186 0 -234 -246h453z" />
    <glyph glyph-name="f" unicode="f" horiz-adv-x="630" 
d="M368 972h236v-159h-233v-813h-205v813h-133v159h133v61q0 180 47 255q72 113 234 113q89 0 191 -39v-170q-96 34 -154 34q-67 0 -91.5 -44t-24.5 -166v-44z" />
    <glyph glyph-name="g" unicode="g" horiz-adv-x="1040" 
d="M999 972v-147l-199 2q66 -75 66 -197q0 -83 -36.5 -146.5t-102.5 -94.5q-51 -24 -95.5 -34t-191.5 -32q-44 -6 -73 -26t-29 -44q0 -29 32.5 -39t172.5 -24q226 -22 304 -63q60 -32 94 -92t34 -135q0 -158 -138 -242q-119 -72 -324 -72q-228 0 -355 86q-109 75 -109 197
q0 163 200 233q-107 43 -107 116q0 49 39 84t134 72q-75 34 -114 80q-65 78 -65 198q0 157 109 250q103 88 274 88q78 0 170 -26zM508 835q-87 0 -139.5 -49.5t-52.5 -131.5q0 -74 47 -119q51 -51 139 -51q85 0 136.5 46.5t51.5 123.5q0 80 -51 130.5t-131 50.5zM490 28
q-113 0 -183 -31q-82 -37 -82 -112q0 -73 86 -110q84 -36 204 -36q123 0 194.5 38.5t71.5 104.5q0 70 -75.5 108t-215.5 38z" />
    <glyph glyph-name="h" unicode="h" horiz-adv-x="1086" 
d="M145 1373h201v-512q108 133 279 133q88 0 161.5 -35t111.5 -96q29 -45 39 -107.5t10 -195.5v-560h-201v526q0 146 -26 200q-45 90 -155 90q-123 0 -184 -108q-35 -64 -35 -193v-515h-201v1373z" />
    <glyph glyph-name="i" unicode="i" horiz-adv-x="495" 
d="M145 972h205v-972h-205v972zM251 1389q54 0 88.5 -35.5t34.5 -92.5q0 -56 -35 -91t-92 -35q-56 0 -91 34.5t-35 89.5q0 57 36.5 93.5t93.5 36.5z" />
    <glyph glyph-name="j" unicode="j" horiz-adv-x="537" 
d="M191 972h205v-858q0 -159 -12.5 -227t-52.5 -125q-52 -73 -136 -107t-217 -34q-16 0 -48 1v174q22 -1 32 -1q163 0 206 87q15 30 18.5 64.5t4.5 166.5v859zM297 1388q55 0 89 -35t34 -92q0 -56 -35 -91t-92 -35q-56 0 -91 34.5t-35 89.5q0 57 36 93t94 36z" />
    <glyph glyph-name="k" unicode="k" horiz-adv-x="1046" 
d="M731 972h243l-384 -445l415 -527h-272l-383 523zM145 1373h201v-1373h-201v1373z" />
    <glyph glyph-name="l" unicode="l" horiz-adv-x="495" 
d="M145 1373h205v-1373h-205v1373z" />
    <glyph glyph-name="m" unicode="m" horiz-adv-x="1642" 
d="M120 972h196q19 -55 19 -131q101 153 289 153q194 0 274 -162q112 162 308 162q195 0 263 -135q23 -47 28.5 -91t5.5 -188v-580h-201v577q0 128 -25 171q-41 68 -147 68q-206 0 -206 -255v-561h-201v556q0 143 -20 182q-39 78 -149 78q-208 0 -208 -264v-552h-201v709
q0 123 -4.5 168.5t-20.5 94.5z" />
    <glyph glyph-name="n" unicode="n" horiz-adv-x="1080" 
d="M118 972h194q19 -52 20 -132q104 154 293 154q114 0 196 -57q98 -69 114 -203q6 -49 6 -174v-560h-201v526q0 150 -24 202q-41 88 -151 88q-125 0 -185 -106q-35 -61 -35 -191v-519h-201v632q0 173 -3.5 218.5t-22.5 121.5z" />
    <glyph glyph-name="o" unicode="o" horiz-adv-x="1066" 
d="M533 999q178 0 303 -120q71 -67 108 -164q43 -109 43 -230q0 -172 -77 -301q-69 -115 -190 -170q-89 -41 -186 -41q-180 0 -304 119q-151 144 -151 400q0 164 77 295q68 115 190 171q89 41 187 41zM533 835q-108 0 -173 -89q-75 -101 -75 -256q0 -164 75 -264
q65 -88 173 -88q109 0 173 88q75 101 75 259q0 161 -75 261q-66 89 -173 89z" />
    <glyph glyph-name="p" unicode="p" horiz-adv-x="1084" 
d="M145 -403v1075q0 214 -18 300h190q18 -53 18 -128q97 150 271 150q149 0 250 -98q148 -145 148 -407q0 -272 -156 -419q-97 -92 -234 -92q-86 0 -149 33t-119 108v-522h-201zM576 823q-96 0 -153 -69q-81 -98 -81 -272q0 -165 76 -257q63 -76 158 -76q94 0 145 65
q77 98 77 272q0 172 -77 271q-52 66 -145 66z" />
    <glyph glyph-name="q" unicode="q" horiz-adv-x="1084" 
d="M737 -403v520q-56 -76 -113.5 -107.5t-140.5 -31.5q-144 0 -247 93q-157 141 -157 408q0 270 149 415q103 100 257 100q179 0 263 -149q0 74 17 127h191q-18 -83 -18 -300v-1075h-201zM511 823q-92 0 -146 -67q-80 -99 -80 -274q0 -172 79 -266q56 -67 147 -67
q103 0 162 80q68 95 68 256q0 172 -81 269q-56 69 -149 69z" />
    <glyph glyph-name="r" unicode="r" horiz-adv-x="723" 
d="M132 972h192q15 -74 15 -149q0 -20 -2 -57q105 228 265 228q41 0 97 -20v-203q-77 44 -141 44q-120 0 -176 -133q-35 -82 -35 -238v-444h-202v656q-1 232 -13 316z" />
    <glyph glyph-name="s" unicode="s" horiz-adv-x="949" 
d="M849 689h-194q-9 70 -39 103q-45 51 -137 51q-70 0 -115 -34.5t-45 -88.5q0 -53 41 -79.5t191 -70.5q111 -32 166.5 -58.5t85.5 -60.5q58 -67 58 -170q0 -139 -94 -222q-99 -86 -282 -86q-195 0 -298 87.5t-103 252.5h191q7 -83 42 -122q54 -61 163 -61q82 0 130 36.5
t48 99.5q0 60 -64 93q-36 19 -212 72q-146 44 -200 100q-64 67 -64 170q0 135 103 218q100 80 261 80q167 0 262.5 -80.5t104.5 -229.5z" />
    <glyph glyph-name="t" unicode="t" horiz-adv-x="691" 
d="M403 972h214l-3 -159h-214l-7 -430q-2 -128 4 -158q15 -68 99 -68q67 0 143 32l-3 -170q-100 -39 -196 -39q-158 0 -221 104q-34 55 -34 179q0 28 3 120l12 430h-149l3 159h152l7 280h195z" />
    <glyph glyph-name="u" unicode="u" horiz-adv-x="1082" 
d="M139 972h201v-573q0 -129 34 -176q47 -67 149 -67q121 0 178 99q35 61 35 183v534h201v-674q0 -162 3 -200.5t21 -97.5h-193q-16 48 -20 120q-91 -142 -267 -142q-96 0 -173 39t-120 109q-49 79 -49 266v580z" />
    <glyph glyph-name="v" unicode="v" horiz-adv-x="961" 
d="M21 972h212l246 -752l247 752h210l-345 -980h-225z" />
    <glyph glyph-name="w" unicode="w" horiz-adv-x="1450" 
d="M29 972h204l194 -726l214 726h166l213 -726l196 726h203l-287 -980h-209l-202 666l-200 -666h-209z" />
    <glyph glyph-name="x" unicode="x" horiz-adv-x="969" 
d="M56 972h239l190 -307l193 307h241l-310 -454l353 -518h-244l-233 359l-235 -359h-243l356 518z" />
    <glyph glyph-name="y" unicode="y" horiz-adv-x="964" 
d="M33 972h214l238 -773l247 773h210l-325 -925q-50 -143 -64.5 -178.5t-44.5 -87.5q-110 -191 -387 -191q-19 0 -65 2v176q25 -1 36 -1q124 0 180 41t101 164z" />
    <glyph glyph-name="z" unicode="z" horiz-adv-x="843" 
d="M93 972h700v-150l-510 -656h509v-166h-746v155l503 651h-456v166z" />
    <glyph glyph-name="braceleft" unicode="{" horiz-adv-x="602" 
d="M264 483q71 -46 92 -91q28 -60 28 -167v-289q0 -110 19 -141q29 -47 149 -47h26v-155q-37 -2 -64 -2q-90 0 -145.5 16t-91.5 52q-40 39 -55.5 95t-15.5 158v320q0 88 -25.5 130t-88.5 56v131q63 14 88.5 56t25.5 130v320q0 102 15.5 158t55.5 95q37 36 92.5 52t145.5 16
q23 0 63 -2v-155h-26q-127 0 -153 -54q-15 -32 -15 -134v-289q0 -107 -24.5 -160t-95.5 -99z" />
    <glyph glyph-name="bar" unicode="|" 
d="M411 1365h201v-1706h-201v1706z" />
    <glyph glyph-name="braceright" unicode="}" horiz-adv-x="602" 
d="M338 483q-72 47 -92 92q-28 60 -28 167v289q0 109 -19 141q-28 47 -147 47h-28v155q40 2 63 2q91 0 146 -16t92 -52q40 -39 55.5 -95t15.5 -158v-320q0 -88 26 -130t88 -56v-131q-62 -14 -88 -56t-26 -130v-320q0 -102 -15.5 -158t-55.5 -95q-37 -36 -92 -52t-146 -16
q-27 0 -63 2v156q19 -1 28 -1q125 0 151 55q15 31 15 133v289q0 108 24.5 160.5t95.5 97.5z" />
    <glyph glyph-name="asciitilde" unicode="~" horiz-adv-x="1365" 
d="M302 421l-114 75q49 102 75 139q84 119 219 119q75 0 222 -62q86 -37 120 -47.5t69 -10.5q54 0 89.5 26t78.5 97l117 -68q-65 -134 -130 -185q-81 -64 -182 -64q-62 0 -290 94q-64 26 -111 26q-49 0 -85.5 -31t-77.5 -108z" />
    <glyph glyph-name="nonbreakingspace" unicode="&#xa0;" horiz-adv-x="512" 
 />
    <glyph glyph-name="exclamdown" unicode="&#xa1;" horiz-adv-x="513" 
d="M365 -381h-217l26 915h170zM256 971q58 0 98.5 -40t40.5 -97q0 -58 -40.5 -98t-100.5 -40q-56 0 -96.5 40.5t-40.5 97.5q0 56 41 96.5t98 40.5z" />
    <glyph glyph-name="cent" unicode="&#xa2;" horiz-adv-x="1133" 
d="M634 1043v-680q130 31 149 195h197q-8 -163 -123 -268q-86 -79 -223 -94v-197h-106v199q-132 22 -220 100q-156 139 -156 397q0 214 100 349.5t280 164.5v172h105v-171q298 -32 339 -342h-203q-10 78 -41.5 117.5t-97.5 57.5zM532 1038q-59 -24 -91 -64
q-84 -104 -84 -280q0 -189 97 -285q28 -27 78 -44v673z" />
    <glyph glyph-name="sterling" unicode="&#xa3;" horiz-adv-x="1133" 
d="M517 782h312v-152h-341q-43 -295 -142 -467q108 28 214 28q40 0 129 -4q49 -3 71 -3q72 0 93 30q28 44 31 138h168q1 -22 1 -33q0 -161 -77 -252q-64 -76 -217 -76q-35 0 -200 13q-84 6 -154 6q-151 0 -324 -23q121 147 197 642h-179v153h208l3 17q32 180 50 252t50 145
q82 190 304 190q184 0 261 -117q43 -67 53 -204h-180q-7 71 -30 102q-33 44 -100 44q-64 0 -98 -38.5t-58 -138.5q-13 -54 -45 -252z" />
    <glyph glyph-name="currency" unicode="&#xa4;" horiz-adv-x="1365" 
d="M79 265l201 202q-97 129 -97 287q0 148 98 285l-205 203l113 113l203 -203q138 96 292 96q151 0 286 -94l202 200l112 -112l-201 -200q99 -140 99 -288q0 -151 -96 -286l202 -202l-110 -113l-203 202q-137 -97 -291 -97q-145 0 -292 96l-201 -200zM686 1067
q-133 0 -225 -92q-91 -92 -91 -222t92 -221q92 -93 221 -93q128 0 221 93q91 91 91 221q0 132 -91 222q-94 92 -218 92z" />
    <glyph glyph-name="yen" unicode="&#xa5;" horiz-adv-x="1133" 
d="M852 895h187v-131h-254l-77 -149h331v-131h-365l1 -484h-212l1 484h-370v131h336l-78 149h-258v131h190l-246 470h237l294 -589l292 589h234z" />
    <glyph glyph-name="brokenbar" unicode="&#xa6;" 
d="M411 1365h201v-694h-201v694zM411 314h201v-655h-201v655z" />
    <glyph glyph-name="section" unicode="&#xa7;" 
d="M879 995h-165q-12 93 -46 136q-51 64 -151 64q-77 0 -125.5 -39t-48.5 -101q0 -56 41 -92q32 -29 187 -111q193 -103 250 -151q93 -78 93 -196q0 -169 -178 -271q73 -55 104.5 -114t31.5 -140q0 -149 -99.5 -233.5t-275.5 -84.5q-192 0 -293 95.5t-102 278.5h170
q12 -91 43 -134q54 -77 180 -77q89 0 137 40q53 43 53 117q0 44 -22 75.5t-78 67.5q-43 27 -228 125q-130 70 -191 144t-61 163q0 155 180 265q-56 45 -80 77q-48 66 -48 154q0 142 118 232q96 73 238 73q172 0 266 -93t100 -270zM423 738q-134 -75 -134 -170q0 -61 58 -109
t252 -148q133 78 133 174q0 74 -86 127q-111 69 -223 126z" />
    <glyph glyph-name="dieresis" unicode="&#xa8;" 
d="M337 1391q51 0 87 -36.5t36 -87.5q0 -52 -36.5 -88.5t-87.5 -36.5q-52 0 -88.5 36.5t-36.5 87.5q0 53 36.5 89t89.5 36zM691 1391q51 0 87 -36.5t36 -87.5q0 -52 -36.5 -88.5t-87.5 -36.5q-52 0 -88.5 36.5t-36.5 87.5q0 53 36.5 89t89.5 36z" />
    <glyph glyph-name="copyright" unicode="&#xa9;" horiz-adv-x="1572" 
d="M1119 848h-128q-31 150 -173 150q-102 0 -160 -77q-65 -87 -65 -229q0 -138 61 -220t165 -82q166 0 179 194l131 -1q-3 -108 -52 -185q-81 -128 -257 -128q-154 0 -255 96q-121 114 -121 324q0 227 134 343q98 85 239 85q133 0 212.5 -71t89.5 -199zM795 1391
q190 0 361 -105q171 -104 261 -281q77 -151 77 -322q0 -199 -104 -369t-282 -261q-152 -77 -322 -77q-199 0 -369 104t-261 282q-77 152 -77 320q0 201 104 372q102 167 282 260q151 77 330 77zM794 1291q-252 0 -427 -176q-176 -178 -176 -433q0 -170 88 -317t238 -224
q127 -66 270 -66q246 0 420 176q176 179 176 432q0 172 -88 319q-86 144 -238 223q-126 66 -263 66z" />
    <glyph glyph-name="ordfeminine" unicode="&#xaa;" 
d="M393 1188h-128q7 93 72.5 143t181.5 50q157 0 204 -91q21 -39 21 -141v-227q0 -98 21 -145h-125q-10 35 -12 63q-61 -76 -173 -76q-88 0 -143 38q-66 46 -66 132q0 109 109 167q53 28 237 67l23 5v17q0 85 -104 85t-118 -87zM615 1080q-134 -27 -183.5 -55t-49.5 -76
q0 -37 27 -59t72 -22q70 0 102 39t32 125v48zM228 662h554v-95h-554v95z" />
    <glyph glyph-name="guillemotleft" unicode="&#xab;" horiz-adv-x="898" 
d="M768 0h-163l-205 476l205 500h163l-172 -500zM438 0h-163l-205 476l205 500h163l-172 -500z" />
    <glyph glyph-name="logicalnot" unicode="&#xac;" 
d="M754 0v358h-686v188h887v-546h-201z" />
    <glyph glyph-name="uni00AD" unicode="&#xad;" horiz-adv-x="547" 
d="M0 591h547v-150h-547v150z" />
    <glyph glyph-name="registered" unicode="&#xae;" horiz-adv-x="1572" 
d="M523 1089h189q179 0 255 -33q61 -27 96.5 -83.5t35.5 -128.5q0 -159 -160 -224l212 -350h-169l-193 326h-123v-326h-143v819zM666 715h54q110 0 153 14q79 27 79 117q0 75 -63 105q-42 19 -176 19h-47v-255zM795 1391q190 0 361 -105q171 -104 261 -281q77 -152 77 -322
q0 -199 -104 -369q-105 -170 -282 -261q-152 -77 -322 -77q-199 0 -369 104t-261 282q-77 152 -77 320q0 201 104 372q102 167 282 260q151 77 330 77zM794 1299q-256 0 -432 -178q-86 -87 -132 -201q-47 -115 -47 -238q0 -172 90 -321q89 -149 240 -227q129 -67 274 -67
q248 0 425 179q178 181 178 437q0 174 -89 323q-87 146 -241 227q-127 66 -266 66z" />
    <glyph glyph-name="macron" unicode="&#xaf;" 
d="M224 1327h576v-131h-576v131z" />
    <glyph glyph-name="degree" unicode="&#xb0;" 
d="M512 1390q125 0 214 -86q88 -86 88 -209t-87 -209q-89 -88 -215 -88q-125 0 -214 88q-88 87 -88 212q0 121 88 205q91 87 214 87zM512 1267q-72 0 -124 -50t-52 -120q0 -75 51 -125q52 -51 125 -51t124.5 51t51.5 122q0 72 -51.5 122.5t-124.5 50.5z" />
    <glyph glyph-name="plusminus" unicode="&#xb1;" horiz-adv-x="1133" 
d="M645 790h385v-152h-385v-348h-158v348h-384v152h384v399h158v-399zM103 181h927v-154h-927v154z" />
    <glyph glyph-name="twosuperior" unicode="&#xb2;" horiz-adv-x="739" 
d="M243 1437h-121q0 67 19 113q26 65 89.5 101.5t150.5 36.5q109 0 178 -56q70 -56 70 -152q0 -71 -51.5 -146t-268.5 -321l-15 -17h344v-122h-525l-1 105l20 24q250 285 302.5 356t52.5 119q0 41 -31 66.5t-81 25.5q-121 0 -132 -133z" />
    <glyph glyph-name="threesuperior" unicode="&#xb3;" horiz-adv-x="739" 
d="M238 1465h-121q4 101 60 158q71 72 200 72q116 0 182 -59q64 -58 64 -148q0 -123 -120 -176q138 -45 138 -192q0 -110 -77.5 -178.5t-202.5 -68.5q-134 0 -207 66t-72 186h126q1 -135 149 -135q68 0 106.5 34.5t38.5 95.5q0 67 -46.5 97t-149.5 30q-10 0 -33 -1v113
q25 -1 37 -1q173 0 173 120q0 45 -32 72.5t-85 27.5q-112 0 -128 -113z" />
    <glyph glyph-name="acute" unicode="&#xb4;" 
d="M387 1106l238 309h261l-342 -309h-157z" />
    <glyph glyph-name="mu" unicode="&#xb5;" 
d="M76 -348v1331h201v-540q0 -103 15.5 -156.5t57.5 -93.5q66 -64 161 -64q107 0 173 84q35 46 49 99.5t14 143.5v527h201v-983h-201v148q-36 -75 -74 -109q-69 -62 -167 -62q-144 0 -229 139v-464h-201z" />
    <glyph glyph-name="paragraph" unicode="&#xb6;" horiz-adv-x="1271" 
d="M447 -195v846q-19 -1 -27 -1q-148 0 -249 80q-122 97 -122 272q0 101 45 182t125 125q103 56 303 56h602v-158h-136v-1402h-174v1402h-193v-1402h-174z" />
    <glyph glyph-name="periodcentered" unicode="&#xb7;" horiz-adv-x="518" 
d="M261 650q56 0 96.5 -40.5t40.5 -97.5t-40.5 -97t-98.5 -40q-57 0 -98 40t-41 97q0 58 41 98t100 40z" />
    <glyph glyph-name="cedilla" unicode="&#xb8;" 
d="M438 0h118l-41 -102q182 -32 182 -173q0 -82 -58 -136t-147 -54q-74 0 -165 48v89q85 -34 121 -34q49 0 78 28t29 74q0 49 -34.5 77t-94.5 28q-17 0 -48 -3z" />
    <glyph glyph-name="onesuperior" unicode="&#xb9;" horiz-adv-x="739" 
d="M159 1462v82q87 2 129 31.5t60 101.5h97v-803h-138v588h-148z" />
    <glyph glyph-name="ordmasculine" unicode="&#xba;" 
d="M512 1382q112 0 191 -73q94 -87 94 -236q0 -152 -94 -239q-79 -73 -194 -73q-109 0 -188 73q-94 87 -94 238t94 237q80 73 191 73zM512 1275q-67 0 -108 -56t-41 -147t41 -147.5t106 -56.5q69 0 110 56t41 148q0 91 -41.5 147t-107.5 56zM235 662h554v-95h-554v95z" />
    <glyph glyph-name="guillemotright" unicode="&#xbb;" horiz-adv-x="898" 
d="M130 976h163l205 -477l-205 -499h-163l172 499zM460 976h163l205 -477l-205 -499h-163l172 499z" />
    <glyph glyph-name="onequarter" unicode="&#xbc;" horiz-adv-x="1746" 
d="M159 1121v82q87 2 129 32t60 101h97v-804h-138v589h-148zM1177 1331h165l-774 -1331h-164zM1539 287h148v-111h-145v-185h-140v185h-342v103l329 524h150v-516zM1408 287l1 350l-213 -350h212z" />
    <glyph glyph-name="onehalf" unicode="&#xbd;" horiz-adv-x="1746" 
d="M159 1121v82q86 2 128.5 32t59.5 101h97v-804h-138v589h-147zM1177 1331h165l-774 -1331h-164zM1249 564h-122q1 104 49 163q72 88 211 88q112 0 180 -57t68 -151q0 -54 -25 -102.5t-100 -139.5q-90 -108 -210 -243h344v-122h-526v105l20 24q248 283 301.5 355t53.5 120
q0 41 -31.5 67t-80.5 26q-123 0 -132 -133z" />
    <glyph glyph-name="threequarters" unicode="&#xbe;" horiz-adv-x="1745" 
d="M238 1124h-121q4 101 60 158q70 72 200 72q116 0 182 -59q64 -58 64 -148q0 -122 -120 -176q138 -46 138 -192q0 -111 -77.5 -179t-202.5 -68q-134 0 -207 65.5t-72 185.5h126q0 -134 149 -134q68 0 106.5 34t38.5 95q0 67 -46.5 97.5t-149.5 30.5q-9 0 -33 -1v113
q25 -1 37 -1q173 0 173 120q0 46 -32 73.5t-85 27.5q-112 0 -128 -114zM1178 1331h165l-774 -1331h-165zM1540 287h147v-111h-144v-185h-140v185h-343v103l330 524h150v-516zM1409 287l1 350l-213 -350h212z" />
    <glyph glyph-name="questiondown" unicode="&#xbf;" horiz-adv-x="849" 
d="M462 971q57 0 98 -40.5t41 -96.5q0 -58 -41 -98t-100 -40q-57 0 -97.5 40.5t-40.5 97.5q0 56 41 96.5t99 40.5zM367 537h190v-23q0 -163 -11 -208q-18 -74 -124 -187q-75 -78 -99 -118.5t-24 -89.5q0 -60 38.5 -95.5t104.5 -35.5q155 0 168 179h165q-6 -165 -74 -244
q-99 -115 -284 -115q-152 0 -239 75q-94 82 -94 226q0 82 33 142.5t136 167.5q79 83 97 124.5t18 141.5q0 20 -1 60z" />
    <glyph glyph-name="Agrave" unicode="&#xc0;" horiz-adv-x="1198" 
d="M496 1369h205l467 -1369h-219l-101 320h-497l-103 -320h-217zM792 502l-193 614l-193 -614h386zM741 1486h-195l-380 308h261z" />
    <glyph glyph-name="Aacute" unicode="&#xc1;" horiz-adv-x="1198" 
d="M495 1369h205l467 -1369h-219l-101 320h-497l-103 -320h-217zM791 502l-193 614l-193 -614h386zM456 1486l313 308h262l-381 -308h-194z" />
    <glyph glyph-name="Acircumflex" unicode="&#xc2;" horiz-adv-x="1198" 
d="M495 1369h205l467 -1369h-219l-101 320h-497l-103 -320h-217zM791 502l-193 614l-193 -614h386zM232 1500l274 279h185l275 -279h-194l-173 169l-173 -169h-194z" />
    <glyph glyph-name="Atilde" unicode="&#xc3;" horiz-adv-x="1198" 
d="M495 1369h205l467 -1369h-219l-101 320h-497l-103 -320h-217zM791 502l-193 614l-193 -614h386zM365 1510l-104 31q56 209 203 209q55 0 147 -42q99 -45 136 -45q67 0 106 100l96 -30q-13 -69 -39 -114q-60 -103 -158 -103q-60 0 -151 39q-84 36 -101.5 42t-36.5 6
q-75 0 -98 -93z" />
    <glyph glyph-name="Adieresis" unicode="&#xc4;" horiz-adv-x="1198" 
d="M495 1369h205l467 -1369h-219l-101 320h-497l-103 -320h-217zM791 502l-193 614l-193 -614h386zM413 1774q55 0 94 -39.5t39 -94.5q0 -56 -39.5 -95.5t-95.5 -39.5q-55 0 -94.5 39.5t-39.5 94.5q0 57 39.5 96t96.5 39zM787 1774q55 0 94 -39.5t39 -94.5
q0 -56 -39.5 -95.5t-94.5 -39.5q-56 0 -95.5 39.5t-39.5 94.5q0 57 39.5 96t96.5 39z" />
    <glyph glyph-name="Aring" unicode="&#xc5;" horiz-adv-x="1198" 
d="M495 1369h205l467 -1369h-219l-101 320h-497l-103 -320h-217zM791 502l-193 614l-193 -614h386zM601 1853q79 0 137 -57q57 -58 57 -140q0 -81 -57 -138q-58 -58 -139 -58q-82 0 -139 58q-58 58 -58 138q0 83 58 140t141 57zM600 1757q-43 0 -72.5 -29.5t-29.5 -71.5
q0 -41 29.5 -70.5t71.5 -29.5q41 0 70.5 29.5t29.5 70.5q0 42 -29.5 71.5t-69.5 29.5z" />
    <glyph glyph-name="AE" unicode="&#xc6;" horiz-adv-x="1815" 
d="M832 1365h901v-181h-584v-388h533v-182h-533v-432h595v-182h-810v320h-488l-183 -320h-231zM934 502v673l-382 -673h382z" />
    <glyph glyph-name="Ccedilla" unicode="&#xc7;" horiz-adv-x="1230" 
d="M692 -25l-33 -94q82 -13 131 -49q76 -55 76 -151q0 -93 -66.5 -154.5t-166.5 -61.5q-78 0 -185 55v101q90 -39 135 -39q55 0 88 32t33 85q0 55 -38.5 86.5t-105.5 31.5q-20 0 -56 -5l58 175q-116 18 -230 103q-245 183 -245 591q0 384 217 574q154 135 369 135
q203 0 324.5 -114.5t140.5 -323.5h-187q-49 254 -281 254q-158 0 -250 -123q-111 -148 -111 -403q0 -245 107 -393q93 -128 256 -128q263 0 294 328h193q-14 -239 -126 -365q-122 -140 -341 -147z" />
    <glyph glyph-name="Egrave" unicode="&#xc8;" horiz-adv-x="1066" 
d="M375 798h548v-182h-548v-434h615v-182h-826v1365h808v-181h-597v-386zM748 1486h-195l-380 308h261z" />
    <glyph glyph-name="Eacute" unicode="&#xc9;" horiz-adv-x="1066" 
d="M380 798h548v-182h-548v-434h615v-182h-826v1365h808v-181h-597v-386zM394 1486l313 308h262l-381 -308h-194z" />
    <glyph glyph-name="Ecircumflex" unicode="&#xca;" horiz-adv-x="1066" 
d="M380 798h548v-182h-548v-434h615v-182h-826v1365h808v-181h-597v-386zM208 1500l275 279h185l274 -279h-193l-174 169l-172 -169h-195z" />
    <glyph glyph-name="Edieresis" unicode="&#xcb;" horiz-adv-x="1066" 
d="M380 798h548v-182h-548v-434h615v-182h-826v1365h808v-181h-597v-386zM390 1774q55 0 94 -39.5t39 -94.5q0 -56 -39.5 -95.5t-94.5 -39.5q-56 0 -95.5 39.5t-39.5 94.5q0 57 39.5 96t96.5 39zM763 1774q55 0 94 -39.5t39 -94.5q0 -56 -39.5 -95.5t-94.5 -39.5
q-56 0 -95.5 39.5t-39.5 94.5q0 57 39.5 96t96.5 39z" />
    <glyph glyph-name="Igrave" unicode="&#xcc;" horiz-adv-x="550" 
d="M381 0h-213v1365h213v-1365zM409 1486h-181l-326 308h248z" />
    <glyph glyph-name="Iacute" unicode="&#xcd;" horiz-adv-x="550" 
d="M382 0h-214v1365h214v-1365zM141 1486l259 308h248l-326 -308h-181z" />
    <glyph glyph-name="Icircumflex" unicode="&#xce;" horiz-adv-x="550" 
d="M381 0h-213v1365h213v-1365zM-44 1500l226 279h185l227 -279h-186l-133 169l-131 -169h-188z" />
    <glyph glyph-name="Idieresis" unicode="&#xcf;" horiz-adv-x="550" 
d="M382 0h-213v1365h213v-1365zM114 1767q52 0 89.5 -38t37.5 -91t-38 -91t-91 -38t-91 38t-38 91q0 54 38 91.5t93 37.5zM441 1767q52 0 89.5 -38t37.5 -91t-38 -91t-91 -38t-91 38t-38 91q0 54 38 91.5t93 37.5z" />
    <glyph glyph-name="Eth" unicode="&#xd0;" horiz-adv-x="1304" 
d="M170 1365h277q173 0 273 -16.5t178 -57.5q158 -83 246 -268q72 -150 72 -340q0 -279 -149 -469q-135 -174 -368 -202q-95 -12 -281 -12h-248v628h-123v171h123v566zM381 182h110q135 0 202 13.5t125 52.5q99 65 146 206q34 103 34 230q0 206 -92 341q-84 123 -236 147
q-69 11 -230 11h-59v-384h297v-171h-297v-446z" />
    <glyph glyph-name="Ntilde" unicode="&#xd1;" horiz-adv-x="1368" 
d="M169 1365h227l602 -1043v1043h200v-1365h-218l-610 1041v-1041h-201v1365zM455 1510l-103 31q56 209 202 209q55 0 147 -42q99 -45 136 -45q68 0 107 100l95 -30q-13 -69 -39 -114q-59 -103 -157 -103q-61 0 -152 39q-83 36 -100.5 42t-37.5 6q-76 0 -98 -93z" />
    <glyph glyph-name="Ograve" unicode="&#xd2;" horiz-adv-x="1353" 
d="M859 1486h-195l-380 308h261zM676 1390q208 0 359 -129q230 -196 230 -576q0 -384 -230 -581q-150 -129 -366 -129q-201 0 -351 129q-230 197 -230 579q0 385 230 578q153 129 358 129zM676 1208q-165 0 -257 -124q-109 -147 -109 -401q0 -253 109 -402q43 -57 108 -90
q68 -34 145 -34q170 0 262 124q109 149 109 404q0 253 -109 399q-93 124 -258 124z" />
    <glyph glyph-name="Oacute" unicode="&#xd3;" horiz-adv-x="1353" 
d="M495 1486l314 308h261l-380 -308h-195zM676 1390q208 0 359 -129q230 -196 230 -576q0 -384 -230 -581q-150 -129 -366 -129q-201 0 -351 129q-230 197 -230 579q0 385 230 578q153 129 358 129zM676 1208q-165 0 -257 -124q-109 -147 -109 -401q0 -253 109 -402
q43 -57 108 -90q68 -34 145 -34q170 0 262 124q109 149 109 404q0 253 -109 399q-93 124 -258 124z" />
    <glyph glyph-name="Ocircumflex" unicode="&#xd4;" horiz-adv-x="1353" 
d="M310 1500l274 279h185l274 -279h-193l-173 169l-173 -169h-194zM676 1390q208 0 359 -129q230 -196 230 -576q0 -384 -230 -581q-150 -129 -366 -129q-201 0 -351 129q-230 197 -230 579q0 385 230 578q153 129 358 129zM676 1208q-165 0 -257 -124q-109 -147 -109 -401
q0 -253 109 -402q43 -57 108 -90q68 -34 145 -34q170 0 262 124q109 149 109 404q0 253 -109 399q-93 124 -258 124z" />
    <glyph glyph-name="Otilde" unicode="&#xd5;" horiz-adv-x="1353" 
d="M447 1510l-104 31q18 70 42 112q55 97 160 97q55 0 147 -42q99 -45 137 -45q67 0 106 100l95 -30q-13 -68 -39 -114q-60 -103 -157 -103q-61 0 -152 39q-84 36 -101 42t-37 6q-76 0 -97 -93zM676 1390q208 0 359 -129q230 -196 230 -576q0 -384 -230 -581
q-150 -129 -366 -129q-201 0 -351 129q-230 197 -230 579q0 385 230 578q153 129 358 129zM676 1208q-165 0 -257 -124q-109 -147 -109 -401q0 -253 109 -402q43 -57 108 -90q68 -34 145 -34q170 0 262 124q109 149 109 404q0 253 -109 399q-93 124 -258 124z" />
    <glyph glyph-name="Odieresis" unicode="&#xd6;" horiz-adv-x="1353" 
d="M491 1774q55 0 94 -39.5t39 -94.5q0 -56 -39.5 -95.5t-94.5 -39.5q-56 0 -95.5 39.5t-39.5 94.5q0 57 39.5 96t96.5 39zM865 1774q55 0 94 -39.5t39 -94.5q0 -56 -39.5 -95.5t-94.5 -39.5q-56 0 -95.5 39.5t-39.5 94.5q0 57 39.5 96t96.5 39zM676 1390q208 0 359 -129
q230 -196 230 -576q0 -384 -230 -581q-150 -129 -366 -129q-201 0 -351 129q-230 197 -230 579q0 385 230 578q153 129 358 129zM676 1208q-165 0 -257 -124q-109 -147 -109 -401q0 -253 109 -402q43 -57 108 -90q68 -34 145 -34q170 0 262 124q109 149 109 404
q0 253 -109 399q-93 124 -258 124z" />
    <glyph glyph-name="multiply" unicode="&#xd7;" horiz-adv-x="1133" 
d="M677 684l293 -293l-109 -108l-291 291l-298 -297l-110 110l298 297l-292 292l109 109l291 -292l293 292l110 -110z" />
    <glyph glyph-name="Oslash" unicode="&#xd8;" horiz-adv-x="1353" 
d="M1030 1268l84 111h164l-157 -206q144 -189 144 -494q0 -258 -118 -445q-96 -153 -258 -218q-100 -41 -210 -41q-202 0 -359 126l-85 -115h-160l153 210q-59 87 -86 157q-54 143 -54 330q0 402 247 592q148 115 340 115q196 0 355 -122zM906 1114q-97 93 -230 93
q-155 0 -244 -113q-122 -154 -122 -420q0 -143 56 -291zM442 257q105 -100 239 -100q151 0 240 113q122 155 122 418q0 153 -59 309z" />
    <glyph glyph-name="Ugrave" unicode="&#xd9;" horiz-adv-x="1334" 
d="M857 1486h-195l-380 308h261zM153 1365h211v-793q0 -121 6 -173t26 -95q35 -75 113 -112q70 -33 158 -33q105 0 178.5 44.5t101.5 126.5q22 64 22 242v793h211v-796q0 -152 -8.5 -216.5t-35.5 -123.5q-57 -127 -195 -196q-115 -58 -274 -58q-230 0 -372 123
q-109 94 -132 248q-10 67 -10 223v796z" />
    <glyph glyph-name="Uacute" unicode="&#xda;" horiz-adv-x="1334" 
d="M478 1486l314 308h262l-381 -308h-195zM153 1365h211v-793q0 -121 6 -173t26 -95q35 -75 113 -112q70 -33 158 -33q105 0 178.5 44.5t101.5 126.5q22 64 22 242v793h211v-796q0 -152 -8.5 -216.5t-35.5 -123.5q-57 -127 -195 -196q-115 -58 -274 -58q-230 0 -372 123
q-109 94 -132 248q-10 67 -10 223v796z" />
    <glyph glyph-name="Ucircumflex" unicode="&#xdb;" horiz-adv-x="1334" 
d="M300 1500l274 279h185l275 -279h-194l-173 169l-172 -169h-195zM153 1365h211v-793q0 -121 6 -173t26 -95q35 -75 113 -112q70 -33 158 -33q105 0 178.5 44.5t101.5 126.5q22 64 22 242v793h211v-796q0 -152 -8.5 -216.5t-35.5 -123.5q-57 -127 -195 -196
q-115 -58 -274 -58q-230 0 -372 123q-109 94 -132 248q-10 67 -10 223v796z" />
    <glyph glyph-name="Udieresis" unicode="&#xdc;" horiz-adv-x="1334" 
d="M481 1774q55 0 94 -39.5t39 -94.5q0 -56 -39 -95.5t-95 -39.5t-95.5 39.5t-39.5 94.5q0 57 39.5 96t96.5 39zM855 1774q55 0 94 -39.5t39 -94.5q0 -56 -39.5 -95.5t-94.5 -39.5q-56 0 -95.5 39.5t-39.5 94.5q0 57 39.5 96t96.5 39zM153 1365h211v-793q0 -121 6 -173
t26 -95q35 -75 113 -112q70 -33 158 -33q105 0 178.5 44.5t101.5 126.5q22 64 22 242v793h211v-796q0 -152 -8.5 -216.5t-35.5 -123.5q-57 -127 -195 -196q-115 -58 -274 -58q-230 0 -372 123q-109 94 -132 248q-10 67 -10 223v796z" />
    <glyph glyph-name="Yacute" unicode="&#xdd;" horiz-adv-x="1103" 
d="M11 1365h239l304 -588l303 588h235l-435 -811l1 -554h-212l1 554zM372 1486l314 308h261l-380 -308h-195z" />
    <glyph glyph-name="Thorn" unicode="&#xde;" horiz-adv-x="1119" 
d="M169 1365h211v-159h64q266 0 383 -39q127 -42 193 -158q55 -98 55 -224q0 -184 -111 -294q-70 -70 -170.5 -94t-322.5 -24h-91v-373h-211v1365zM380 555h90q176 0 246 20q66 19 103.5 75t37.5 135q0 156 -114 207q-44 19 -100.5 26t-174.5 7h-88v-470z" />
    <glyph glyph-name="germandbls" unicode="&#xdf;" horiz-adv-x="1078" 
d="M128 0v862q0 173 9.5 236.5t42.5 120.5q46 78 135 121.5t204 43.5q154 0 254 -75q127 -96 127 -259q0 -205 -209 -276q307 -72 307 -385q0 -198 -125 -314q-97 -89 -231 -89q-84 0 -158 38v178q68 -38 133 -38q81 0 128 58.5t47 159.5q0 185 -149 256q-82 39 -184 39h-21
v173h39q101 0 160 49q61 50 61 136q0 83 -50 133t-132 50q-128 0 -166 -103q-14 -36 -17.5 -77t-3.5 -157v-881h-201z" />
    <glyph glyph-name="agrave" unicode="&#xe0;" horiz-adv-x="1014" 
d="M666 1106h-157l-342 309h261zM318 698h-194q16 136 98 206q106 90 298 90q123 0 207 -39.5t115 -111.5t31 -230v-379q0 -163 30 -234h-186q-15 56 -17 120q-80 -142 -278 -142q-140 0 -228 63q-104 74 -104 214q0 208 223 292q106 40 365 85v27q0 85 -28 120
q-42 52 -142 52q-165 0 -190 -133zM678 493q-212 -32 -287 -74q-95 -53 -95 -141q0 -63 46.5 -102t119.5 -39q132 0 187 102q29 53 29 179v75z" />
    <glyph glyph-name="aacute" unicode="&#xe1;" horiz-adv-x="1014" 
d="M357 1106l238 309h261l-342 -309h-157zM318 698h-194q16 136 98 206q106 90 298 90q123 0 207 -39.5t115 -111.5t31 -230v-379q0 -163 30 -234h-186q-15 56 -17 120q-80 -142 -278 -142q-140 0 -228 63q-104 74 -104 214q0 208 223 292q106 40 365 85v27q0 85 -28 120
q-42 52 -142 52q-165 0 -190 -133zM678 493q-212 -32 -287 -74q-95 -53 -95 -141q0 -63 46.5 -102t119.5 -39q132 0 187 102q29 53 29 179v75z" />
    <glyph glyph-name="acircumflex" unicode="&#xe2;" horiz-adv-x="1014" 
d="M174 1115l240 300h185l241 -300h-186l-147 184l-145 -184h-188zM318 698h-194q16 136 98 206q106 90 298 90q123 0 207 -39.5t115 -111.5t31 -230v-379q0 -163 30 -234h-186q-15 56 -17 120q-80 -142 -278 -142q-140 0 -228 63q-104 74 -104 214q0 208 223 292
q106 40 365 85v27q0 85 -28 120q-42 52 -142 52q-165 0 -190 -133zM678 493q-212 -32 -287 -74q-95 -53 -95 -141q0 -63 46.5 -102t119.5 -39q132 0 187 102q29 53 29 179v75z" />
    <glyph glyph-name="atilde" unicode="&#xe3;" horiz-adv-x="1014" 
d="M292 1137l-95 24q51 215 178 215q50 0 138 -42q92 -44 124 -44q58 0 94 100l90 -24q-15 -91 -54 -149q-50 -75 -123 -75q-48 0 -143 44t-124 44q-60 0 -85 -93zM318 698h-194q16 136 98 206q106 90 298 90q123 0 207 -39.5t115 -111.5t31 -230v-379q0 -163 30 -234h-186
q-15 56 -17 120q-80 -142 -278 -142q-140 0 -228 63q-104 74 -104 214q0 208 223 292q106 40 365 85v27q0 85 -28 120q-42 52 -142 52q-165 0 -190 -133zM678 493q-212 -32 -287 -74q-95 -53 -95 -141q0 -63 46.5 -102t119.5 -39q132 0 187 102q29 53 29 179v75z" />
    <glyph glyph-name="adieresis" unicode="&#xe4;" horiz-adv-x="1014" 
d="M318 698h-194q16 136 98 206q106 90 298 90q123 0 207 -39.5t115 -111.5t31 -230v-379q0 -163 30 -234h-186q-15 56 -17 120q-80 -142 -278 -142q-140 0 -228 63q-104 74 -104 214q0 208 223 292q106 40 365 85v27q0 85 -28 120q-42 52 -142 52q-165 0 -190 -133z
M678 493q-212 -32 -287 -74q-95 -53 -95 -141q0 -63 46.5 -102t119.5 -39q132 0 187 102q29 53 29 179v75zM328 1391q51 0 87 -36.5t36 -87.5q0 -52 -36.5 -88.5t-87.5 -36.5q-52 0 -88.5 36.5t-36.5 87.5q0 53 36.5 89t89.5 36zM682 1391q51 0 87 -36.5t36 -87.5
q0 -52 -36.5 -88.5t-87.5 -36.5q-52 0 -88.5 36.5t-36.5 87.5q0 53 36.5 89t89.5 36z" />
    <glyph glyph-name="aring" unicode="&#xe5;" horiz-adv-x="1014" 
d="M510 1476q79 0 136.5 -58t57.5 -139t-57 -138q-58 -58 -139 -58q-82 0 -139 58q-58 57 -58 138q0 82 58 139.5t141 57.5zM509 1380q-43 0 -72.5 -29t-29.5 -72q0 -41 29.5 -70.5t71.5 -29.5q41 0 70.5 29.5t29.5 70.5q0 42 -29 71.5t-70 29.5zM318 698h-194
q16 136 98 206q106 90 298 90q123 0 207 -39.5t115 -111.5t31 -230v-379q0 -163 30 -234h-186q-15 56 -17 120q-80 -142 -278 -142q-140 0 -228 63q-104 74 -104 214q0 208 223 292q106 40 365 85v27q0 85 -28 120q-42 52 -142 52q-165 0 -190 -133zM678 493
q-212 -32 -287 -74q-95 -53 -95 -141q0 -63 46.5 -102t119.5 -39q132 0 187 102q29 53 29 179v75z" />
    <glyph glyph-name="ae" unicode="&#xe6;" horiz-adv-x="1629" 
d="M1550 443h-677q1 -128 54 -203q73 -104 216 -104q145 0 207 130l181 -13q-22 -96 -94 -170q-106 -110 -290 -110q-128 0 -226 53.5t-154 153.5q-43 -93 -106 -138q-94 -69 -236 -69q-135 0 -227 62q-108 73 -108 212q0 162 150.5 252.5t427.5 94.5v53q0 102 -32 140
q-40 49 -129 49q-154 0 -192 -155h-193q13 128 90 208q106 110 305 110q115 0 186 -34t119 -112q52 61 99 91q88 55 206 55q194 0 311 -144q112 -137 112 -383v-29zM1334 592q-31 247 -216 247q-93 0 -153.5 -63t-82.5 -184h452zM668 445h-23q-95 0 -181 -19
q-168 -38 -168 -165q0 -58 43 -93.5t114 -35.5q106 0 160.5 69t54.5 204v40z" />
    <glyph glyph-name="ccedilla" unicode="&#xe7;" horiz-adv-x="987" 
d="M517 -27l-28 -74q182 -33 182 -174q0 -82 -58 -136t-147 -54q-74 0 -165 48v89q85 -34 121 -34q49 0 78 28t29 74q0 49 -34.5 77t-94.5 28q-17 0 -48 -3l56 146q-117 33 -186 103q-143 146 -143 393q0 269 161 415q110 100 282 100q164 0 261 -89.5t116 -258.5h-198
q-15 96 -59 140t-123 44q-101 0 -158 -78q-76 -102 -76 -273q0 -163 62.5 -254.5t172.5 -91.5q165 0 190 202h197q-11 -170 -113.5 -266.5t-276.5 -100.5z" />
    <glyph glyph-name="egrave" unicode="&#xe8;" horiz-adv-x="1026" 
d="M682 1106h-157l-342 309h261zM946 442h-664q5 -127 54 -202q67 -102 203 -102q143 0 206 128l181 -13q-31 -104 -100 -172q-108 -108 -292 -108q-171 0 -288 96q-167 137 -167 405q0 183 77 317q120 208 371 208q205 0 321 -157q99 -135 99 -356q0 -13 -1 -44zM741 592
q-29 246 -219 246q-186 0 -234 -246h453z" />
    <glyph glyph-name="eacute" unicode="&#xe9;" horiz-adv-x="1026" 
d="M384 1106l238 309h261l-342 -309h-157zM946 442h-664q5 -127 54 -202q67 -102 203 -102q143 0 206 128l181 -13q-31 -104 -100 -172q-108 -108 -292 -108q-171 0 -288 96q-167 137 -167 405q0 183 77 317q120 208 371 208q205 0 321 -157q99 -135 99 -356q0 -13 -1 -44z
M741 592q-29 246 -219 246q-186 0 -234 -246h453z" />
    <glyph glyph-name="ecircumflex" unicode="&#xea;" horiz-adv-x="1026" 
d="M200 1115l240 300h185l240 -300h-186l-146 184l-146 -184h-187zM946 442h-664q5 -127 54 -202q67 -102 203 -102q143 0 206 128l181 -13q-31 -104 -100 -172q-108 -108 -292 -108q-171 0 -288 96q-167 137 -167 405q0 183 77 317q120 208 371 208q205 0 321 -157
q99 -135 99 -356q0 -13 -1 -44zM741 592q-29 246 -219 246q-186 0 -234 -246h453z" />
    <glyph glyph-name="edieresis" unicode="&#xeb;" horiz-adv-x="1026" 
d="M946 442h-664q5 -127 54 -202q67 -102 203 -102q143 0 206 128l181 -13q-31 -104 -100 -172q-108 -108 -292 -108q-171 0 -288 96q-167 137 -167 405q0 183 77 317q120 208 371 208q205 0 321 -157q99 -135 99 -356q0 -13 -1 -44zM741 592q-29 246 -219 246
q-186 0 -234 -246h453zM358 1391q51 0 87 -36.5t36 -87.5q0 -52 -36.5 -88.5t-87.5 -36.5q-52 0 -88.5 36.5t-36.5 87.5q0 53 36.5 89t89.5 36zM712 1391q51 0 87 -36.5t36 -87.5q0 -52 -36.5 -88.5t-87.5 -36.5q-52 0 -88.5 36.5t-36.5 87.5q0 53 36.5 89t89.5 36z" />
    <glyph glyph-name="igrave" unicode="&#xec;" horiz-adv-x="495" 
d="M145 972h205v-972h-205v972zM364 1106h-150l-274 309h241z" />
    <glyph glyph-name="iacute" unicode="&#xed;" horiz-adv-x="495" 
d="M145 972h205v-972h-205v972zM131 1106l183 309h241l-274 -309h-150z" />
    <glyph glyph-name="icircumflex" unicode="&#xee;" horiz-adv-x="495" 
d="M145 972h205v-972h-205v972zM-30 1115l185 300h185l186 -300h-172l-106 184l-104 -184h-174z" />
    <glyph glyph-name="idieresis" unicode="&#xef;" horiz-adv-x="495" 
d="M145 972h205v-972h-205v972zM95 1387q49 0 84 -35.5t35 -85.5t-35 -85t-85 -35t-85.5 35t-35.5 85q0 51 35.5 86t86.5 35zM404 1387q49 0 84 -35.5t35 -85.5q0 -49 -35 -84.5t-85 -35.5t-85.5 35.5t-35.5 84.5q0 51 35.5 86t86.5 35z" />
    <glyph glyph-name="eth" unicode="&#xf0;" horiz-adv-x="1066" 
d="M555 1286l152 85l68 -95l-149 -82q222 -255 291.5 -389t69.5 -308q0 -258 -143 -401q-122 -123 -303 -123q-184 0 -311 119q-71 67 -109 163q-42 108 -42 228q0 173 79 304q54 90 146.5 143.5t194.5 53.5q51 0 120 -29l-127 164l-140 -76l-73 92l149 84l-86 102l111 71z
M539 831q-99 0 -164 -71q-90 -98 -90 -276q0 -170 86 -270q65 -77 162 -77q98 0 162 76q86 103 86 271q0 176 -88 277q-61 70 -154 70z" />
    <glyph glyph-name="ntilde" unicode="&#xf1;" horiz-adv-x="1080" 
d="M305 1137l-95 24q52 215 179 215q50 0 137 -42q92 -44 124 -44q58 0 95 100l89 -24q-15 -91 -53 -149q-50 -75 -123 -75q-49 0 -144 44t-123 44q-60 0 -86 -93zM118 972h194q19 -52 20 -132q104 154 293 154q114 0 196 -57q98 -69 114 -203q6 -49 6 -174v-560h-201v526
q0 150 -24 202q-41 88 -151 88q-125 0 -185 -106q-35 -61 -35 -191v-519h-201v632q0 173 -3.5 218.5t-22.5 121.5z" />
    <glyph glyph-name="ograve" unicode="&#xf2;" horiz-adv-x="1066" 
d="M675 1106h-157l-342 309h261zM533 999q178 0 303 -120q71 -67 108 -164q43 -109 43 -230q0 -172 -77 -301q-69 -115 -190 -170q-89 -41 -186 -41q-180 0 -304 119q-151 144 -151 400q0 164 77 295q68 115 190 171q89 41 187 41zM533 835q-108 0 -173 -89
q-75 -101 -75 -256q0 -164 75 -264q65 -88 173 -88q109 0 173 88q75 101 75 259q0 161 -75 261q-66 89 -173 89z" />
    <glyph glyph-name="oacute" unicode="&#xf3;" horiz-adv-x="1066" 
d="M383 1106l238 309h261l-342 -309h-157zM533 999q178 0 303 -120q71 -67 108 -164q43 -109 43 -230q0 -172 -77 -301q-69 -115 -190 -170q-89 -41 -186 -41q-180 0 -304 119q-151 144 -151 400q0 164 77 295q68 115 190 171q89 41 187 41zM533 835q-108 0 -173 -89
q-75 -101 -75 -256q0 -164 75 -264q65 -88 173 -88q109 0 173 88q75 101 75 259q0 161 -75 261q-66 89 -173 89z" />
    <glyph glyph-name="ocircumflex" unicode="&#xf4;" horiz-adv-x="1066" 
d="M200 1115l240 300h185l241 -300h-186l-147 184l-145 -184h-188zM533 999q178 0 303 -120q71 -67 108 -164q43 -109 43 -230q0 -172 -77 -301q-69 -115 -190 -170q-89 -41 -186 -41q-180 0 -304 119q-151 144 -151 400q0 164 77 295q68 115 190 171q89 41 187 41zM533 835
q-108 0 -173 -89q-75 -101 -75 -256q0 -164 75 -264q65 -88 173 -88q109 0 173 88q75 101 75 259q0 161 -75 261q-66 89 -173 89z" />
    <glyph glyph-name="otilde" unicode="&#xf5;" horiz-adv-x="1066" 
d="M327 1137l-95 24q50 215 178 215q51 0 138 -42q92 -44 124 -44q59 0 94 100l90 -24q-15 -91 -54 -149q-50 -75 -122 -75q-49 0 -144 44t-123 44q-61 0 -86 -93zM533 999q178 0 303 -120q71 -67 108 -164q43 -109 43 -230q0 -172 -77 -301q-69 -115 -190 -170
q-89 -41 -186 -41q-180 0 -304 119q-151 144 -151 400q0 164 77 295q68 115 190 171q89 41 187 41zM533 835q-108 0 -173 -89q-75 -101 -75 -256q0 -164 75 -264q65 -88 173 -88q109 0 173 88q75 101 75 259q0 161 -75 261q-66 89 -173 89z" />
    <glyph glyph-name="odieresis" unicode="&#xf6;" horiz-adv-x="1066" 
d="M533 999q178 0 303 -120q71 -67 108 -164q43 -109 43 -230q0 -172 -77 -301q-69 -115 -190 -170q-89 -41 -186 -41q-180 0 -304 119q-151 144 -151 400q0 164 77 295q68 115 190 171q89 41 187 41zM533 835q-108 0 -173 -89q-75 -101 -75 -256q0 -164 75 -264
q65 -88 173 -88q109 0 173 88q75 101 75 259q0 161 -75 261q-66 89 -173 89zM358 1391q51 0 87 -36.5t36 -87.5q0 -52 -36.5 -88.5t-87.5 -36.5q-52 0 -88.5 36.5t-36.5 87.5q0 53 36.5 89t89.5 36zM711 1391q51 0 87 -36.5t36 -87.5q0 -52 -36.5 -88.5t-87.5 -36.5
q-52 0 -88.5 36.5t-36.5 87.5q0 53 36.5 89t89.5 36z" />
    <glyph glyph-name="divide" unicode="&#xf7;" horiz-adv-x="1133" 
d="M568 495q50 0 85.5 -35.5t35.5 -85.5q0 -49 -36 -84.5t-86 -35.5q-51 0 -86.5 35.5t-35.5 84.5q0 51 36 86t87 35zM568 1111q50 0 85.5 -35.5t35.5 -85.5t-36 -85t-86 -35q-51 0 -86.5 35.5t-35.5 84.5q0 51 36 86t87 35zM103 762h927v-154h-927v154z" />
    <glyph glyph-name="oslash" unicode="&#xf8;" horiz-adv-x="1067" 
d="M165 165q-5 10 -8 15q-41 77 -54 123q-24 84 -24 179q0 177 81 308q70 115 192 170q86 38 181 38q85 0 148.5 -23.5t143.5 -84.5l77 82h143l-144 -162q6 -17 36 -74q50 -93 50 -251q0 -174 -81 -305q-71 -115 -192 -169q-86 -38 -182 -38q-172 0 -291 109l-72 -82h-148z
M310 318l385 438q-23 35 -68.5 56.5t-97.5 21.5q-100 0 -165 -86q-79 -103 -79 -268q0 -81 25 -162zM752 658l-385 -447q77 -74 166 -74q103 0 169 85q79 103 79 269q0 77 -29 167z" />
    <glyph glyph-name="ugrave" unicode="&#xf9;" horiz-adv-x="1082" 
d="M702 1106h-157l-343 309h262zM139 972h201v-573q0 -129 34 -176q47 -67 149 -67q121 0 178 99q35 61 35 183v534h201v-674q0 -162 3 -200.5t21 -97.5h-193q-16 48 -20 120q-91 -142 -267 -142q-96 0 -173 39t-120 109q-49 79 -49 266v580z" />
    <glyph glyph-name="uacute" unicode="&#xfa;" horiz-adv-x="1082" 
d="M388 1106l238 309h261l-342 -309h-157zM139 972h201v-573q0 -129 34 -176q47 -67 149 -67q121 0 178 99q35 61 35 183v534h201v-674q0 -162 3 -200.5t21 -97.5h-193q-16 48 -20 120q-91 -142 -267 -142q-96 0 -173 39t-120 109q-49 79 -49 266v580z" />
    <glyph glyph-name="ucircumflex" unicode="&#xfb;" horiz-adv-x="1082" 
d="M204 1115l239 300h186l240 -300h-186l-147 184l-145 -184h-187zM139 972h201v-573q0 -129 34 -176q47 -67 149 -67q121 0 178 99q35 61 35 183v534h201v-674q0 -162 3 -200.5t21 -97.5h-193q-16 48 -20 120q-91 -142 -267 -142q-96 0 -173 39t-120 109q-49 79 -49 266
v580z" />
    <glyph glyph-name="udieresis" unicode="&#xfc;" horiz-adv-x="1082" 
d="M139 972h201v-573q0 -129 34 -176q47 -67 149 -67q121 0 178 99q35 61 35 183v534h201v-674q0 -162 3 -200.5t21 -97.5h-193q-16 48 -20 120q-91 -142 -267 -142q-96 0 -173 39t-120 109q-49 79 -49 266v580zM361 1391q51 0 87 -36.5t36 -87.5q0 -52 -36.5 -88.5
t-87.5 -36.5q-52 0 -88.5 36.5t-36.5 87.5q0 53 36.5 89t89.5 36zM715 1391q51 0 87 -36.5t36 -87.5q0 -52 -36.5 -88.5t-87.5 -36.5q-52 0 -88.5 36.5t-36.5 87.5q0 53 36.5 89t89.5 36z" />
    <glyph glyph-name="yacute" unicode="&#xfd;" horiz-adv-x="964" 
d="M33 972h214l238 -773l247 773h210l-325 -925q-50 -143 -64.5 -178.5t-44.5 -87.5q-110 -191 -387 -191q-20 0 -65 2v175h36q124 0 180 41t101 164zM338 1106l238 309h261l-342 -309h-157z" />
    <glyph glyph-name="thorn" unicode="&#xfe;" horiz-adv-x="1084" 
d="M145 -403v1776h201v-529q94 150 261 150q148 0 249 -99q148 -144 148 -406q0 -273 -156 -421q-95 -90 -234 -90q-88 0 -149.5 32t-118.5 109v-522h-201zM576 823q-96 0 -153 -69q-81 -98 -81 -272q0 -166 76 -258q62 -75 157 -75q96 0 146 64q77 99 77 272q0 172 -78 272
q-52 66 -144 66z" />
    <glyph glyph-name="ydieresis" unicode="&#xff;" horiz-adv-x="964" 
d="M33 972h214l238 -773l247 773h210l-325 -925q-50 -143 -64.5 -178.5t-44.5 -87.5q-110 -191 -387 -191q-20 0 -65 2v175h36q124 0 180 41t101 164zM306 1391q51 0 87 -36.5t36 -87.5q0 -52 -36.5 -88.5t-87.5 -36.5q-52 0 -88.5 36.5t-36.5 87.5q0 53 36.5 89t89.5 36z
M659 1391q51 0 87 -36.5t36 -87.5q0 -52 -36.5 -88.5t-87.5 -36.5q-52 0 -88.5 36.5t-36.5 87.5q0 53 36.5 89t89.5 36z" />
    <glyph glyph-name="Amacron" unicode="&#x100;" horiz-adv-x="1198" 
d="M495 1369h205l467 -1369h-219l-101 320h-497l-103 -320h-217zM791 502l-193 614l-193 -614h386zM288 1706h621v-132h-621v132z" />
    <glyph glyph-name="amacron" unicode="&#x101;" horiz-adv-x="1014" 
d="M216 1326h576v-130h-576v130zM318 698h-194q16 136 98 206q106 90 298 90q123 0 207 -39.5t115 -111.5t31 -230v-379q0 -163 30 -234h-186q-15 56 -17 120q-80 -142 -278 -142q-140 0 -228 63q-104 74 -104 214q0 208 223 292q106 40 365 85v27q0 85 -28 120
q-42 52 -142 52q-165 0 -190 -133zM678 493q-212 -32 -287 -74q-95 -53 -95 -141q0 -63 46.5 -102t119.5 -39q132 0 187 102q29 53 29 179v75z" />
    <glyph glyph-name="Abreve" unicode="&#x102;" horiz-adv-x="1198" 
d="M495 1369h205l467 -1369h-219l-101 320h-497l-103 -320h-217zM791 502l-193 614l-193 -614h386zM308 1781h90q65 -151 201 -151q134 0 201 151h89q-10 -94 -57 -161q-85 -122 -232 -122q-117 0 -197 77.5t-95 205.5z" />
    <glyph glyph-name="abreve" unicode="&#x103;" horiz-adv-x="1014" 
d="M236 1396h95q55 -150 173 -150q112 0 167 150h95q-10 -97 -51 -165q-72 -122 -208 -122q-110 0 -184 78.5t-87 208.5zM318 698h-194q16 136 98 206q106 90 298 90q123 0 207 -39.5t115 -111.5t31 -230v-379q0 -163 30 -234h-186q-15 56 -17 120q-80 -142 -278 -142
q-140 0 -228 63q-104 74 -104 214q0 208 223 292q106 40 365 85v27q0 85 -28 120q-42 52 -142 52q-165 0 -190 -133zM678 493q-212 -32 -287 -74q-95 -53 -95 -141q0 -63 46.5 -102t119.5 -39q132 0 187 102q29 53 29 179v75z" />
    <glyph glyph-name="Aogonek" unicode="&#x104;" horiz-adv-x="1198" 
d="M1167 0q-102 -75 -140 -119t-38 -86q0 -44 30 -69.5t82 -25.5q40 0 93 18v-103q-74 -32 -141 -32q-111 0 -174 68q-50 55 -50 128t42.5 122t149.5 99h-72l-103 320h-497l-102 -320h-217l465 1369h205zM791 502l-193 613l-194 -613h387z" />
    <glyph glyph-name="aogonek" unicode="&#x105;" horiz-adv-x="1014" 
d="M902 0q-75 -48 -121 -103t-46 -95t27.5 -63.5t75.5 -23.5q44 0 90 19v-99q-61 -28 -126 -28q-110 0 -169 63q-46 50 -46 121q0 69 43 117.5t140 91.5h-54q-14 58 -16 120q-80 -142 -278 -142q-142 0 -228 63q-104 75 -104 214q0 100 57.5 175t165.5 116q106 41 365 86v32
q0 80 -28 115q-42 52 -143 52q-164 0 -189 -133h-194q16 136 98 206q106 90 298 90q123 0 207 -39.5t115 -111.5t31 -230v-379q0 -159 29 -234zM678 493q-212 -32 -287 -74q-95 -53 -95 -140q0 -64 46 -103t120 -39q132 0 187 102q29 53 29 179v75z" />
    <glyph glyph-name="Cacute" unicode="&#x106;" horiz-adv-x="1230" 
d="M484 1486l314 308h261l-380 -308h-195zM1139 952h-187q-49 254 -281 254q-152 0 -244 -117q-117 -148 -117 -407q0 -247 107 -395q93 -128 255 -128q130 0 206 84.5t89 243.5h192q-9 -179 -79 -300q-123 -212 -398 -212q-239 0 -399 157q-195 191 -195 548q0 264 104 439
q95 160 263 228q104 43 218 43q204 0 325.5 -114.5t140.5 -323.5z" />
    <glyph glyph-name="cacute" unicode="&#x107;" horiz-adv-x="987" 
d="M372 1106l238 309h261l-342 -309h-157zM900 651h-198q-16 96 -59.5 140t-123.5 44q-100 0 -158 -78q-76 -102 -76 -274q0 -162 62.5 -254t172.5 -92q113 0 161 91q20 39 30 112h196q-10 -150 -99 -252q-101 -115 -287 -115q-180 0 -299 117q-143 141 -143 394
q0 268 161 415q111 100 283 100q163 0 260 -89.5t117 -258.5z" />
    <glyph glyph-name="Ccircumflex" unicode="&#x108;" horiz-adv-x="1230" 
d="M1139 952h-187q-49 254 -281 254q-152 0 -244 -117q-117 -148 -117 -407q0 -247 107 -395q93 -128 255 -128q130 0 206 84.5t89 243.5h192q-9 -179 -79 -300q-123 -212 -398 -212q-239 0 -399 157q-195 191 -195 548q0 264 104 439q95 160 263 228q104 43 218 43
q204 0 325.5 -114.5t140.5 -323.5zM310 1500l274 279h185l274 -279h-193l-173 169l-173 -169h-194z" />
    <glyph glyph-name="ccircumflex" unicode="&#x109;" horiz-adv-x="987" 
d="M900 651h-198q-16 96 -59.5 140t-123.5 44q-100 0 -158 -78q-76 -102 -76 -274q0 -162 62.5 -254t172.5 -92q113 0 161 91q20 39 30 112h196q-10 -150 -99 -252q-101 -115 -287 -115q-180 0 -299 117q-143 141 -143 394q0 268 161 415q111 100 283 100q163 0 260 -89.5
t117 -258.5zM173 1115l240 300h185l240 -300h-186l-147 184l-145 -184h-187z" />
    <glyph glyph-name="Cdotaccent" unicode="&#x10a;" horiz-adv-x="1230" 
d="M669 1786q60 0 102.5 -43t42.5 -104q0 -60 -43 -103t-104 -43q-60 0 -103 43t-43 103q0 62 43 104.5t105 42.5zM1139 952h-187q-49 254 -281 254q-152 0 -244 -117q-117 -148 -117 -407q0 -247 107 -395q93 -128 255 -128q130 0 206 84.5t89 243.5h192q-9 -179 -79 -300
q-123 -212 -398 -212q-239 0 -399 157q-195 191 -195 548q0 264 104 439q95 160 263 228q104 43 218 43q204 0 325.5 -114.5t140.5 -323.5z" />
    <glyph glyph-name="cdotaccent" unicode="&#x10b;" horiz-adv-x="987" 
d="M518 1391q51 0 87 -36.5t36 -87.5q0 -52 -36.5 -88.5t-87.5 -36.5q-52 0 -88.5 36.5t-36.5 87.5q0 53 36.5 89t89.5 36zM900 651h-198q-16 96 -59.5 140t-123.5 44q-100 0 -158 -78q-76 -102 -76 -274q0 -162 62.5 -254t172.5 -92q113 0 161 91q20 39 30 112h196
q-10 -150 -99 -252q-101 -115 -287 -115q-180 0 -299 117q-143 141 -143 394q0 268 161 415q111 100 283 100q163 0 260 -89.5t117 -258.5z" />
    <glyph glyph-name="Ccaron" unicode="&#x10c;" horiz-adv-x="1230" 
d="M1036 1779l-274 -279h-185l-275 279h194l173 -169l172 169h195zM1139 952h-187q-49 254 -281 254q-152 0 -244 -117q-117 -148 -117 -407q0 -247 107 -395q93 -128 255 -128q130 0 206 84.5t89 243.5h192q-9 -179 -79 -300q-123 -212 -398 -212q-239 0 -399 157
q-195 191 -195 548q0 264 104 439q95 160 263 228q104 43 218 43q204 0 325.5 -114.5t140.5 -323.5z" />
    <glyph glyph-name="ccaron" unicode="&#x10d;" horiz-adv-x="987" 
d="M852 1415l-240 -300h-185l-241 300h186l147 -184l145 184h188zM900 651h-198q-16 96 -59.5 140t-123.5 44q-100 0 -158 -78q-76 -102 -76 -274q0 -162 62.5 -254t172.5 -92q113 0 161 91q20 39 30 112h196q-10 -150 -99 -252q-101 -115 -287 -115q-180 0 -299 117
q-143 141 -143 394q0 268 161 415q111 100 283 100q163 0 260 -89.5t117 -258.5z" />
    <glyph glyph-name="Dcaron" unicode="&#x10e;" horiz-adv-x="1304" 
d="M169 1365h277q173 0 273.5 -16.5t177.5 -57.5q157 -83 246 -267q72 -151 72 -341q0 -279 -149 -469q-135 -174 -368 -202q-95 -12 -281 -12h-248v1365zM380 182h110q135 0 202 13.5t125 52.5q99 66 146 207q34 103 34 230q0 205 -92 340q-83 123 -236 147q-69 12 -230 12
h-59v-1002zM976 1779l-274 -279h-185l-275 279h194l173 -169l172 169h195z" />
    <glyph glyph-name="dcaron" unicode="&#x10f;" horiz-adv-x="1266" 
d="M938 1373v-1075q0 -215 18 -298h-190q-12 52 -12 95q0 16 2 42q-38 -65 -79 -97q-77 -62 -195 -62q-161 0 -265 107q-138 141 -138 392q0 269 152 418q101 99 243 99q90 0 149 -32.5t114 -110.5v522h201zM518 823q-99 0 -154 -68q-79 -99 -79 -275q0 -162 74 -260
q53 -71 151 -71q96 0 150 66q81 98 81 272q0 165 -69 259q-56 77 -154 77zM1165 941h-105q98 110 110 219q-45 2 -71 18q-52 32 -52 93q0 51 36.5 86t89.5 35q60 0 96.5 -44.5t36.5 -116.5q0 -129 -141 -290z" />
    <glyph glyph-name="Dcroat" unicode="&#x110;" horiz-adv-x="1304" 
d="M170 1365h277q173 0 273 -16.5t178 -57.5q158 -83 246 -268q72 -150 72 -340q0 -279 -149 -469q-135 -174 -368 -202q-95 -12 -281 -12h-248v628h-123v171h123v566zM381 182h110q135 0 202 13.5t125 52.5q99 65 146 206q34 103 34 230q0 206 -92 341q-84 123 -236 147
q-69 11 -230 11h-59v-384h297v-171h-297v-446z" />
    <glyph glyph-name="dcroat" unicode="&#x111;" horiz-adv-x="1084" 
d="M938 1373v-136h123v-137h-123v-802q0 -215 18 -298h-190q-12 52 -12 95q0 16 2 42q-38 -65 -79 -97q-77 -62 -195 -62q-161 0 -265 107q-138 141 -138 392q0 268 153 418q100 99 243 99q89 0 148 -32.5t114 -110.5v249h-259v137h259v136h201zM518 823q-99 0 -154 -68
q-79 -99 -79 -275q0 -162 74 -260q53 -71 151 -71q96 0 150 66q81 98 81 272q0 165 -69 259q-56 77 -154 77z" />
    <glyph glyph-name="Emacron" unicode="&#x112;" horiz-adv-x="1066" 
d="M380 798h548v-182h-548v-434h615v-182h-826v1365h808v-181h-597v-386zM265 1706h621v-132h-621v132z" />
    <glyph glyph-name="emacron" unicode="&#x113;" horiz-adv-x="1026" 
d="M245 1326h576v-130h-576v130zM946 442h-664q5 -127 54 -202q67 -102 203 -102q143 0 206 128l181 -13q-31 -104 -100 -172q-108 -108 -292 -108q-171 0 -288 96q-167 137 -167 405q0 183 77 317q120 208 371 208q205 0 321 -157q99 -135 99 -356q0 -13 -1 -44zM741 592
q-29 246 -219 246q-186 0 -234 -246h453z" />
    <glyph glyph-name="Ebreve" unicode="&#x114;" horiz-adv-x="1066" 
d="M380 798h548v-182h-548v-434h615v-182h-826v1365h808v-181h-597v-386zM283 1781h90q66 -151 202 -151q134 0 200 151h90q-11 -95 -57 -161q-85 -122 -233 -122q-117 0 -197 77.5t-95 205.5z" />
    <glyph glyph-name="ebreve" unicode="&#x115;" horiz-adv-x="1026" 
d="M946 442h-664q5 -127 54 -202q67 -102 203 -102q143 0 206 128l181 -13q-31 -104 -100 -172q-108 -108 -292 -108q-171 0 -288 96q-167 137 -167 405q0 183 77 317q120 208 371 208q205 0 321 -157q99 -135 99 -356q0 -13 -1 -44zM741 592q-29 246 -219 246
q-186 0 -234 -246h453zM268 1396h95q56 -150 174 -150q110 0 167 150h95q-10 -96 -51 -165q-73 -122 -209 -122q-110 0 -184 78.5t-87 208.5z" />
    <glyph glyph-name="Edotaccent" unicode="&#x116;" horiz-adv-x="1066" 
d="M380 798h548v-182h-548v-434h615v-182h-826v1365h808v-181h-597v-386zM578 1786q59 0 101.5 -43t42.5 -103q0 -61 -43 -104t-103 -43q-61 0 -104 43t-43 103q0 62 43 104.5t106 42.5z" />
    <glyph glyph-name="edotaccent" unicode="&#x117;" horiz-adv-x="1026" 
d="M536 1391q51 0 87 -36.5t36 -87.5q0 -52 -36.5 -88.5t-87.5 -36.5q-52 0 -88.5 36.5t-36.5 87.5q0 53 36.5 89t89.5 36zM946 442h-664q5 -127 54 -202q67 -102 203 -102q143 0 206 128l181 -13q-31 -104 -100 -172q-108 -108 -292 -108q-171 0 -288 96q-167 137 -167 405
q0 183 77 317q120 208 371 208q205 0 321 -157q99 -135 99 -356q0 -13 -1 -44zM741 592q-29 246 -219 246q-186 0 -234 -246h453z" />
    <glyph glyph-name="Eogonek" unicode="&#x118;" horiz-adv-x="1066" 
d="M995 0q-113 -83 -148 -122.5t-35 -83.5q0 -43 30 -68.5t82 -25.5q41 0 93 18v-103q-74 -32 -141 -32q-111 0 -173 68q-51 55 -51 129q0 72 44 123t146 97h-673v1365h808v-181h-597v-386h548v-182h-548v-434h615v-182z" />
    <glyph glyph-name="eogonek" unicode="&#x119;" horiz-adv-x="1026" 
d="M858 -266v-99q-60 -27 -130 -27q-106 0 -165 63q-46 51 -46 122q0 61 31 102.5t115 94.5q-74 -17 -127 -17q-137 0 -242 63q-106 62 -161 177q-54 112 -54 261q0 183 77 317q120 208 371 208q205 0 321 -157q99 -135 99 -356q0 -13 -1 -44h-664q5 -127 54 -202
q67 -102 203 -102q143 0 206 128l181 -13q-15 -56 -40.5 -97t-111.5 -147q-60 -74 -84.5 -120t-24.5 -86q0 -87 103 -87q45 0 90 18zM741 592q-29 246 -219 246q-186 0 -234 -246h453z" />
    <glyph glyph-name="Ecaron" unicode="&#x11a;" horiz-adv-x="1066" 
d="M380 798h548v-182h-548v-434h615v-182h-826v1365h808v-181h-597v-386zM942 1779l-274 -279h-185l-275 279h194l173 -169l172 169h195z" />
    <glyph glyph-name="ecaron" unicode="&#x11b;" horiz-adv-x="1026" 
d="M865 1415l-240 -300h-185l-240 300h186l146 -184l146 184h187zM946 442h-664q5 -127 54 -202q67 -102 203 -102q143 0 206 128l181 -13q-31 -104 -100 -172q-108 -108 -292 -108q-171 0 -288 96q-167 137 -167 405q0 183 77 317q120 208 371 208q205 0 321 -157
q99 -135 99 -356q0 -13 -1 -44zM741 592q-29 246 -219 246q-186 0 -234 -246h453z" />
    <glyph glyph-name="Gcircumflex" unicode="&#x11c;" horiz-adv-x="1295" 
d="M311 1500l274 279h185l275 -279h-194l-173 169l-172 -169h-195zM721 692h456v-565q-216 -152 -477 -152q-257 0 -419 160q-193 193 -193 550q0 353 194 547q159 158 395 158q119 0 219.5 -42.5t164.5 -121.5q81 -98 97 -271h-187q-46 251 -292 251q-159 0 -248 -110
q-121 -147 -121 -411q0 -262 118 -408q95 -118 271 -118q157 0 298 89v278h-276v166z" />
    <glyph glyph-name="gcircumflex" unicode="&#x11d;" horiz-adv-x="1040" 
d="M201 1115l240 300h185l241 -300h-186l-147 184l-146 -184h-187zM999 972v-147l-199 2q66 -75 66 -197q0 -83 -36.5 -146.5t-102.5 -94.5q-51 -24 -95.5 -34t-191.5 -32q-44 -6 -73 -26t-29 -44q0 -29 32.5 -39t172.5 -24q226 -22 304 -63q60 -32 94 -92t34 -135
q0 -158 -138 -242q-119 -72 -324 -72q-228 0 -355 86q-109 75 -109 197q0 163 200 233q-107 43 -107 116q0 49 39 84t134 72q-75 34 -114 80q-65 78 -65 198q0 157 109 250q103 88 274 88q78 0 170 -26zM508 835q-87 0 -139.5 -49.5t-52.5 -131.5q0 -74 47 -119
q51 -51 139 -51q85 0 136.5 46.5t51.5 123.5q0 80 -51 130.5t-131 50.5zM490 28q-113 0 -183 -31q-82 -37 -82 -112q0 -73 86 -110q84 -36 204 -36q123 0 194.5 38.5t71.5 104.5q0 70 -75.5 108t-215.5 38z" />
    <glyph glyph-name="Gbreve" unicode="&#x11e;" horiz-adv-x="1295" 
d="M385 1781h90q65 -151 202 -151q134 0 200 151h90q-11 -95 -57 -161q-85 -122 -233 -122q-117 0 -197 77.5t-95 205.5zM721 692h456v-565q-216 -152 -477 -152q-257 0 -419 160q-193 193 -193 550q0 353 194 547q159 158 395 158q119 0 219.5 -42.5t164.5 -121.5
q81 -98 97 -271h-187q-46 251 -292 251q-159 0 -248 -110q-121 -147 -121 -411q0 -262 118 -408q95 -118 271 -118q157 0 298 89v278h-276v166z" />
    <glyph glyph-name="gbreve" unicode="&#x11f;" horiz-adv-x="1040" 
d="M269 1396h95q55 -150 173 -150q112 0 167 150h95q-10 -96 -51 -165q-72 -122 -209 -122q-109 0 -183 78.5t-87 208.5zM999 972v-147l-199 2q66 -75 66 -197q0 -83 -36.5 -146.5t-102.5 -94.5q-51 -24 -95.5 -34t-191.5 -32q-44 -6 -73 -26t-29 -44q0 -29 32.5 -39
t172.5 -24q226 -22 304 -63q60 -32 94 -92t34 -135q0 -158 -138 -242q-119 -72 -324 -72q-228 0 -355 86q-109 75 -109 197q0 163 200 233q-107 43 -107 116q0 49 39 84t134 72q-75 34 -114 80q-65 78 -65 198q0 157 109 250q103 88 274 88q78 0 170 -26zM508 835
q-87 0 -139.5 -49.5t-52.5 -131.5q0 -74 47 -119q51 -51 139 -51q85 0 136.5 46.5t51.5 123.5q0 80 -51 130.5t-131 50.5zM490 28q-113 0 -183 -31q-82 -37 -82 -112q0 -73 86 -110q84 -36 204 -36q123 0 194.5 38.5t71.5 104.5q0 70 -75.5 108t-215.5 38z" />
    <glyph glyph-name="Gdotaccent" unicode="&#x120;" horiz-adv-x="1295" 
d="M680 1786q60 0 102.5 -43t42.5 -104q0 -60 -43 -103t-103 -43q-61 0 -104 43t-43 103q0 62 43 104.5t105 42.5zM721 692h456v-565q-216 -152 -477 -152q-257 0 -419 160q-193 193 -193 550q0 353 194 547q159 158 395 158q119 0 219.5 -42.5t164.5 -121.5q81 -98 97 -271
h-187q-46 251 -292 251q-159 0 -248 -110q-121 -147 -121 -411q0 -262 118 -408q95 -118 271 -118q157 0 298 89v278h-276v166z" />
    <glyph glyph-name="gdotaccent" unicode="&#x121;" horiz-adv-x="1040" 
d="M999 972v-147l-199 2q66 -75 66 -197q0 -83 -36.5 -146.5t-102.5 -94.5q-51 -24 -95.5 -34t-191.5 -32q-44 -6 -73 -26t-29 -44q0 -29 32.5 -39t172.5 -24q226 -22 304 -63q60 -32 94 -92t34 -135q0 -158 -138 -242q-119 -72 -324 -72q-228 0 -355 86q-109 75 -109 197
q0 163 200 233q-107 43 -107 116q0 49 39 84t134 72q-75 34 -114 80q-65 78 -65 198q0 157 109 250q103 88 274 88q78 0 170 -26zM508 835q-87 0 -139.5 -49.5t-52.5 -131.5q0 -74 47 -119q51 -51 139 -51q85 0 136.5 46.5t51.5 123.5q0 80 -51 130.5t-131 50.5zM490 28
q-113 0 -183 -31q-82 -37 -82 -112q0 -73 86 -110q84 -36 204 -36q123 0 194.5 38.5t71.5 104.5q0 70 -75.5 108t-215.5 38zM534 1391q51 0 87 -36.5t36 -87.5q0 -52 -36.5 -88.5t-87.5 -36.5q-52 0 -88.5 36.5t-36.5 87.5q0 53 36.5 89t89.5 36z" />
    <glyph glyph-name="Gcommaaccent" unicode="&#x122;" horiz-adv-x="1295" 
d="M677 -555h-103q97 108 109 217q-44 2 -70 17q-51 32 -51 92q0 51 36 85.5t88 34.5q59 0 95 -44t36 -115q0 -127 -140 -287zM721 692h456v-565q-216 -152 -477 -152q-257 0 -419 160q-193 193 -193 550q0 353 194 547q159 158 395 158q119 0 219.5 -42.5t164.5 -121.5
q81 -98 97 -271h-187q-46 251 -292 251q-159 0 -248 -110q-121 -147 -121 -411q0 -262 118 -408q95 -118 271 -118q157 0 298 89v278h-276v166z" />
    <glyph glyph-name="gcommaaccent" unicode="&#x123;" horiz-adv-x="1040" 
d="M999 972v-147l-199 2q66 -75 66 -197q0 -83 -36.5 -146.5t-102.5 -94.5q-51 -24 -95.5 -34t-191.5 -32q-44 -6 -73 -26t-29 -44q0 -29 32.5 -39t172.5 -24q226 -22 304 -63q60 -32 94 -92t34 -135q0 -158 -138 -242q-119 -72 -324 -72q-228 0 -355 86q-109 75 -109 197
q0 163 200 233q-107 43 -107 116q0 49 39 84t134 72q-75 34 -114 80q-65 78 -65 198q0 157 109 250q103 88 274 88q78 0 170 -26zM508 835q-87 0 -139.5 -49.5t-52.5 -131.5q0 -74 47 -119q51 -51 139 -51q85 0 136.5 46.5t51.5 123.5q0 80 -51 130.5t-131 50.5zM490 28
q-113 0 -183 -31q-82 -37 -82 -112q0 -73 86 -110q84 -36 204 -36q123 0 194.5 38.5t71.5 104.5q0 70 -75.5 108t-215.5 38zM543 1556h105q-98 -109 -110 -219q45 -2 71 -18q51 -32 51 -93q0 -51 -36.5 -86t-88.5 -35q-60 0 -96.5 44.5t-36.5 116.5q0 131 141 290z" />
    <glyph glyph-name="Hcircumflex" unicode="&#x124;" horiz-adv-x="1350" 
d="M380 800h589v565h211v-1365h-211v625h-589v-625h-211v1365h211v-565zM308 1500l274 279h185l275 -279h-194l-173 169l-172 -169h-195z" />
    <glyph glyph-name="hcircumflex" unicode="&#x125;" horiz-adv-x="1086" 
d="M145 1373h201v-512q108 133 279 133q88 0 161.5 -35.5t111.5 -95.5q29 -45 39 -107.5t10 -195.5v-560h-201v526q0 146 -26 200q-45 90 -155 90q-123 0 -184 -108q-35 -64 -35 -193v-515h-201v1373zM52 1500l274 279h185l275 -279h-194l-173 169l-172 -169h-195z" />
    <glyph glyph-name="Hbar" unicode="&#x126;" horiz-adv-x="1350" 
d="M969 1159v206h211v-206h123v-171h-123v-988h-211v625h-589v-625h-211v988h-123v171h123v206h211v-206h589zM969 988h-589v-188h589v188z" />
    <glyph glyph-name="hbar" unicode="&#x127;" horiz-adv-x="1086" 
d="M145 1373h201v-136h273v-137h-273v-239q108 133 279 133q87 0 161 -35.5t113 -95.5q29 -47 38.5 -106.5t9.5 -196.5v-560h-201v526q0 148 -26 200q-46 90 -155 90q-57 0 -106 -29t-78 -80q-35 -64 -35 -192v-515h-201v1100h-123v137h123v136z" />
    <glyph glyph-name="Itilde" unicode="&#x128;" horiz-adv-x="550" 
d="M382 0h-213v1365h213v-1365zM32 1510l-104 31q57 208 198 208q51 0 150 -42q106 -44 140 -44q63 0 104 100l95 -30q-14 -73 -45 -123q-60 -94 -151 -94q-46 0 -161 47q-96 40 -131 40q-68 0 -95 -93z" />
    <glyph glyph-name="itilde" unicode="&#x129;" horiz-adv-x="495" 
d="M145 972h205v-972h-205v972zM31 1137l-95 24q50 215 178 215q51 0 138 -42q92 -44 124 -44q59 0 95 100l89 -24q-15 -91 -54 -149q-50 -75 -122 -75q-48 0 -144 44q-95 44 -123 44q-60 0 -86 -93z" />
    <glyph glyph-name="Imacron" unicode="&#x12a;" horiz-adv-x="551" 
d="M381 0h-213v1365h213v-1365zM19 1706h512v-132h-512v132z" />
    <glyph glyph-name="imacron" unicode="&#x12b;" horiz-adv-x="496" 
d="M145 972h205v-972h-205v972zM14 1327h467v-131h-467v131z" />
    <glyph glyph-name="Ibreve" unicode="&#x12c;" horiz-adv-x="550" 
d="M381 0h-213v1365h213v-1365zM-16 1781h90q66 -151 201 -151q134 0 201 151h89q-11 -95 -56 -161q-85 -122 -233 -122q-117 0 -197 77.5t-95 205.5z" />
    <glyph glyph-name="ibreve" unicode="&#x12d;" horiz-adv-x="495" 
d="M145 972h205v-972h-205v972zM-3 1389h95q17 -67 58.5 -105t98.5 -38q56 0 89.5 31.5t64.5 111.5h95q-11 -93 -45 -158q-64 -122 -201 -122q-110 0 -175 72t-80 208z" />
    <glyph glyph-name="Iogonek" unicode="&#x12e;" horiz-adv-x="550" 
d="M271 0h-103v1365h214v-1365q-72 -87 -92 -125t-20 -85q0 -42 26 -66t71 -24q22 0 67 18v-103q-68 -33 -121 -33q-60 0 -109 30q-43 27 -68.5 73t-25.5 96q0 118 161 219z" />
    <glyph glyph-name="iogonek" unicode="&#x12f;" horiz-adv-x="495" 
d="M351 0q-114 -122 -114 -196q0 -38 23 -63t58 -25t77 17v-98q-57 -28 -112 -28q-58 0 -105 28q-90 53 -90 157q0 61 32 105.5t117 102.5h-92v972h206v-972zM251 1389q54 0 88.5 -35.5t34.5 -92.5q0 -56 -35 -91t-92 -35q-56 0 -91 34.5t-35 89.5q0 57 36.5 93.5t93.5 36.5
z" />
    <glyph glyph-name="Idotaccent" unicode="&#x130;" horiz-adv-x="550" 
d="M382 0h-213v1365h213v-1365zM277 1786q60 0 102.5 -43t42.5 -103q0 -61 -43 -104t-104 -43q-60 0 -103 43t-43 103q0 62 43 104.5t105 42.5z" />
    <glyph glyph-name="dotlessi" unicode="&#x131;" horiz-adv-x="495" 
d="M145 972h205v-972h-205v972z" />
    <glyph glyph-name="IJ" unicode="&#x132;" horiz-adv-x="1165" 
d="M381 0h-213v1365h213v-1365zM787 1365h213v-1089q0 -167 -7.5 -229t-34.5 -114q-85 -164 -378 -164q-17 0 -63 2v178q105 0 157 13.5t79 46.5q22 28 28 73.5t6 191.5v1091z" />
    <glyph glyph-name="ij" unicode="&#x133;" horiz-adv-x="1025" 
d="M145 972h205v-972h-205v972zM251 1389q54 0 88.5 -35.5t34.5 -92.5q0 -56 -35 -91t-92 -35q-56 0 -91 34.5t-35 89.5q0 57 36.5 93.5t93.5 36.5zM679 972h205v-858q0 -159 -12.5 -227t-52.5 -125q-52 -73 -136 -107t-217 -34q-17 0 -48 1v174q22 -1 31 -1q164 0 207 87
q15 30 18.5 64.5t4.5 166.5v859zM784 1388q55 0 89 -35t34 -92q0 -56 -35 -91t-92 -35q-56 0 -91 34.5t-35 89.5q0 57 36 93t94 36z" />
    <glyph glyph-name="Jcircumflex" unicode="&#x134;" horiz-adv-x="641" 
d="M264 1365h213v-1089q0 -170 -7.5 -230.5t-34.5 -112.5q-85 -164 -378 -164q-17 0 -63 2v178q101 -1 154 12.5t81 45.5q23 27 29 73t6 194v1091zM-1 1500l274 279h185l274 -279h-193l-173 169l-173 -169h-194z" />
    <glyph glyph-name="jcircumflex" unicode="&#x135;" horiz-adv-x="537" 
d="M191 972h205v-858q0 -159 -12.5 -227t-52.5 -125q-52 -73 -136.5 -107t-217.5 -34q-17 0 -47 1v174q23 -1 32 -1q163 0 206 87q15 29 19 71t4 160v859zM-46 1115l240 300h185l240 -300h-186l-146 184l-146 -184h-187z" />
    <glyph glyph-name="Kcommaaccent" unicode="&#x136;" horiz-adv-x="1214" 
d="M909 1365h247l-532 -639l576 -726h-277l-539 720zM169 1365h211v-1365h-211v1365zM634 -555h-103q97 108 109 217q-44 2 -70 18q-51 31 -51 92q0 50 36 84.5t88 34.5q59 0 95.5 -44t36.5 -115q0 -126 -141 -287z" />
    <glyph glyph-name="kcommaaccent" unicode="&#x137;" horiz-adv-x="1046" 
d="M731 972h243l-384 -445l415 -527h-272l-383 523zM145 1373h201v-1373h-201v1373zM522 -561h-105q98 109 110 219q-45 3 -71 18q-51 31 -51 93q0 51 36.5 86t89.5 35q59 0 95.5 -44.5t36.5 -116.5q0 -129 -141 -290z" />
    <glyph glyph-name="kgreenlandic" unicode="&#x138;" horiz-adv-x="1046" 
d="M731 972h243l-384 -445l415 -527h-272l-383 523zM145 972h201v-972h-201v972z" />
    <glyph glyph-name="Lacute" unicode="&#x139;" horiz-adv-x="1016" 
d="M169 1365h217v-1183h589v-182h-806v1365zM142 1486l313 308h262l-380 -308h-195z" />
    <glyph glyph-name="lacute" unicode="&#x13a;" horiz-adv-x="495" 
d="M145 1373h205v-1373h-205v1373zM118 1486l259 308h248l-344 -308h-163z" />
    <glyph glyph-name="Lcommaaccent" unicode="&#x13b;" horiz-adv-x="1016" 
d="M169 1365h217v-1183h589v-182h-806v1365zM563 -555h-104q97 109 109 217q-43 2 -69 18q-51 31 -51 92q0 50 36 84.5t88 34.5q59 0 95 -43.5t36 -114.5q0 -128 -140 -288z" />
    <glyph glyph-name="lcommaaccent" unicode="&#x13c;" horiz-adv-x="495" 
d="M135 1373h205v-1373h-205v1373zM221 -561h-105q97 107 110 219q-44 3 -70 18q-52 31 -52 93q0 51 36.5 86t89.5 35q60 0 96.5 -44.5t36.5 -116.5q0 -129 -142 -290z" />
    <glyph glyph-name="Lcaron" unicode="&#x13d;" horiz-adv-x="1016" 
d="M169 1365h217v-1183h589v-182h-806v1365zM692 947h-103q97 106 109 216q-44 3 -70 18q-51 31 -51 92q0 50 36 84.5t88 34.5q59 0 95.5 -43.5t36.5 -115.5q0 -127 -141 -286z" />
    <glyph glyph-name="lcaron" unicode="&#x13e;" horiz-adv-x="674" 
d="M145 1373h205v-1373h-205v1373zM574 947h-103q97 106 109 216q-57 3 -89 32t-32 78q0 50 36 84.5t88 34.5q59 0 95 -43.5t36 -115.5q0 -129 -140 -286z" />
    <glyph glyph-name="Ldot" unicode="&#x13f;" horiz-adv-x="1016" 
d="M169 1365h217v-1183h589v-182h-806v1365zM785 835q64 0 110 -46t46 -110t-46.5 -109.5t-111.5 -45.5t-111 45.5t-46 109.5q0 66 46 111t113 45z" />
    <glyph glyph-name="ldot" unicode="&#x140;" horiz-adv-x="779" 
d="M145 1373h205v-1373h-205v1373zM642 855q56 0 96.5 -40.5t40.5 -97.5q0 -56 -40.5 -96.5t-98.5 -40.5q-57 0 -98 40t-41 97q0 58 41 98t100 40z" />
    <glyph glyph-name="Lslash" unicode="&#x141;" horiz-adv-x="1016" 
d="M170 715v650h217v-530l321 238v-189l-321 -238v-464h588v-182h-805v526l-137 -107v189z" />
    <glyph glyph-name="lslash" unicode="&#x142;" horiz-adv-x="495" 
d="M145 772v601h205v-499l147 103v-159l-147 -103v-715h-205v612l-146 -105v159z" />
    <glyph glyph-name="Nacute" unicode="&#x143;" horiz-adv-x="1368" 
d="M169 1365h227l602 -1043v1043h200v-1365h-218l-610 1041v-1041h-201v1365zM501 1486l314 308h261l-380 -308h-195z" />
    <glyph glyph-name="nacute" unicode="&#x144;" horiz-adv-x="1080" 
d="M376 1106l237 309h262l-342 -309h-157zM118 972h194q19 -52 20 -132q104 154 293 154q114 0 196 -57q98 -69 114 -203q6 -49 6 -174v-560h-201v526q0 150 -24 202q-41 88 -151 88q-125 0 -185 -106q-35 -61 -35 -191v-519h-201v632q0 173 -3.5 218.5t-22.5 121.5z" />
    <glyph glyph-name="Ncommaaccent" unicode="&#x145;" horiz-adv-x="1368" 
d="M169 1365h227l602 -1043v1043h200v-1365h-218l-610 1041v-1041h-201v1365zM660 -555h-104q97 107 110 217q-44 2 -70 17q-51 32 -51 93q0 50 36 84.5t88 34.5q58 0 94.5 -44t36.5 -115q0 -128 -140 -287z" />
    <glyph glyph-name="ncommaaccent" unicode="&#x146;" horiz-adv-x="1080" 
d="M515 -561h-105q97 108 110 219q-45 3 -71 18q-51 31 -51 93q0 51 36.5 86t89.5 35q59 0 95.5 -44.5t36.5 -116.5q0 -128 -141 -290zM118 972h194q19 -52 20 -132q104 154 293 154q114 0 196 -57q98 -69 114 -203q6 -49 6 -174v-560h-201v526q0 150 -24 202
q-41 88 -151 88q-125 0 -185 -106q-35 -61 -35 -191v-519h-201v632q0 173 -3.5 218.5t-22.5 121.5z" />
    <glyph glyph-name="Ncaron" unicode="&#x147;" horiz-adv-x="1368" 
d="M169 1365h227l602 -1043v1043h200v-1365h-218l-610 1041v-1041h-201v1365zM1050 1779l-274 -279h-185l-275 279h194l173 -169l172 169h195z" />
    <glyph glyph-name="ncaron" unicode="&#x148;" horiz-adv-x="1080" 
d="M118 972h194q19 -52 20 -132q104 154 293 154q114 0 196 -57q98 -69 114 -203q6 -49 6 -174v-560h-201v526q0 150 -24 202q-41 88 -151 88q-125 0 -185 -106q-35 -61 -35 -191v-519h-201v632q0 173 -3.5 218.5t-22.5 121.5zM856 1415l-240 -300h-185l-241 300h186
l147 -184l145 184h188z" />
    <glyph glyph-name="napostrophe" unicode="&#x149;" horiz-adv-x="1308" 
d="M190 910h-120q106 118 121 237q-46 2 -74 19q-54 33 -54 98q0 52 38 89t93 37q62 0 100.5 -46.5t38.5 -122.5q0 -141 -143 -311zM345 972h195q19 -52 20 -132q103 154 293 154q114 0 196 -57q98 -69 114 -203q6 -49 6 -174v-560h-201v526q0 150 -24 202q-41 88 -151 88
q-125 0 -185 -106q-35 -62 -35 -191v-519h-201v632q0 174 -4 223t-23 117z" />
    <glyph glyph-name="Eng" unicode="&#x14a;" horiz-adv-x="1337" 
d="M141 1374h202q27 -71 28 -175q138 192 382 192q146 0 254 -73q131 -87 156 -256q11 -76 11 -219v-715q0 -170 -7.5 -231t-34.5 -113q-86 -164 -378 -164q-17 0 -63 2v178q104 0 157 13.5t81 47.5q22 27 28 72.5t6 191.5v670q0 205 -40 284q-64 129 -232 129
q-179 0 -258 -153q-44 -85 -44 -292v-763h-211v932q0 221 -5.5 287.5t-31.5 154.5z" />
    <glyph glyph-name="eng" unicode="&#x14b;" horiz-adv-x="1079" 
d="M117 972h194q19 -51 20 -132q104 154 293 154q114 0 196 -57q98 -69 114 -203q6 -49 6 -174v-446q0 -159 -12.5 -227t-52.5 -125q-52 -74 -136.5 -107.5t-217.5 -33.5q-17 0 -47 1v174q23 -1 33 -1q163 0 208 87q15 29 19.5 71.5t4.5 159.5v413q0 146 -24 201
q-40 88 -152 88q-124 0 -184 -106q-35 -61 -35 -190v-519h-201v632q0 173 -3.5 218.5t-22.5 121.5z" />
    <glyph glyph-name="Omacron" unicode="&#x14c;" horiz-adv-x="1353" 
d="M677 1390q243 0 405 -172q183 -193 183 -535t-183 -536q-162 -172 -404 -172q-246 0 -407 172q-183 194 -183 546q0 104 24.5 212.5t66.5 184.5q87 163 244 242q116 58 254 58zM677 1208q-168 0 -261 -132q-106 -150 -106 -386q0 -250 106 -401q92 -132 261 -132
q168 0 260 132q106 151 106 394q0 246 -106 393q-95 132 -260 132zM366 1706h621v-132h-621v132z" />
    <glyph glyph-name="omacron" unicode="&#x14d;" horiz-adv-x="1066" 
d="M241 1326h576v-130h-576v130zM533 999q178 0 303 -120q71 -67 108 -164q43 -109 43 -230q0 -172 -77 -301q-69 -115 -190 -170q-89 -41 -186 -41q-180 0 -304 119q-151 144 -151 400q0 164 77 295q68 115 190 171q89 41 187 41zM533 835q-108 0 -173 -89
q-75 -101 -75 -256q0 -164 75 -264q65 -88 173 -88q109 0 173 88q75 101 75 259q0 161 -75 261q-66 89 -173 89z" />
    <glyph glyph-name="Obreve" unicode="&#x14e;" horiz-adv-x="1353" 
d="M677 1390q243 0 405 -172q183 -193 183 -535t-183 -536q-162 -172 -404 -172q-246 0 -407 172q-183 194 -183 546q0 104 24.5 212.5t66.5 184.5q87 163 244 242q116 58 254 58zM677 1208q-168 0 -261 -132q-106 -150 -106 -386q0 -250 106 -401q92 -132 261 -132
q168 0 260 132q106 151 106 394q0 246 -106 393q-95 132 -260 132zM386 1781h89q67 -151 202 -151q134 0 201 151h89q-11 -95 -57 -161q-85 -122 -232 -122q-117 0 -197 77.5t-95 205.5z" />
    <glyph glyph-name="obreve" unicode="&#x14f;" horiz-adv-x="1066" 
d="M533 999q178 0 303 -120q71 -67 108 -164q43 -109 43 -230q0 -172 -77 -301q-69 -115 -190 -170q-89 -41 -186 -41q-180 0 -304 119q-151 144 -151 400q0 164 77 295q68 115 190 171q89 41 187 41zM533 835q-108 0 -173 -89q-75 -101 -75 -256q0 -164 75 -264
q65 -88 173 -88q109 0 173 88q75 101 75 259q0 161 -75 261q-66 89 -173 89zM268 1396h95q55 -150 173 -150q111 0 167 150h95q-10 -96 -51 -165q-73 -122 -209 -122q-110 0 -183.5 78.5t-86.5 208.5z" />
    <glyph glyph-name="Ohungarumlaut" unicode="&#x150;" horiz-adv-x="1353" 
d="M434 1486l252 308h235l-328 -308h-159zM750 1486l252 308h235l-329 -308h-158zM676 1390q208 0 359 -129q230 -196 230 -576q0 -384 -230 -581q-150 -129 -366 -129q-201 0 -351 129q-230 197 -230 579q0 385 230 578q153 129 358 129zM676 1208q-165 0 -257 -124
q-109 -147 -109 -401q0 -253 109 -402q43 -57 108 -90q68 -34 145 -34q170 0 262 124q109 149 109 404q0 253 -109 399q-93 124 -258 124z" />
    <glyph glyph-name="ohungarumlaut" unicode="&#x151;" horiz-adv-x="1066" 
d="M320 1106l201 309h227l-284 -309h-144zM621 1106l200 309h228l-284 -309h-144zM533 999q178 0 303 -120q71 -67 108 -164q43 -109 43 -230q0 -172 -77 -301q-69 -115 -190 -170q-89 -41 -186 -41q-180 0 -304 119q-151 144 -151 400q0 164 77 295q68 115 190 171
q89 41 187 41zM533 835q-108 0 -173 -89q-75 -101 -75 -256q0 -164 75 -264q65 -88 173 -88q109 0 173 88q75 101 75 259q0 161 -75 261q-66 89 -173 89z" />
    <glyph glyph-name="OE" unicode="&#x152;" horiz-adv-x="1940" 
d="M1047 1235v130h805v-181h-595v-386h546v-181h-546v-435h613v-182h-823v131q-75 -83 -160 -119.5t-204 -36.5q-245 0 -404 158q-191 191 -191 548q0 350 180 543q155 166 416 166q224 0 363 -155zM683 1208q-155 0 -244 -100q-129 -145 -129 -430q0 -274 128 -420
q89 -101 240 -101t239 102q129 150 129 423q0 276 -130 425q-90 101 -233 101z" />
    <glyph glyph-name="oe" unicode="&#x153;" horiz-adv-x="1724" 
d="M1643 438h-674q3 -124 53 -198q71 -104 212 -104q159 0 211 131l181 -13q-31 -106 -99 -174q-108 -107 -291 -107q-230 0 -362 185q-71 -99 -149 -142t-187 -43q-175 0 -300 116q-159 148 -159 398q0 252 155 396q125 116 304 116q229 0 338 -193q54 76 102 113
q102 80 245 80q214 0 325 -166q96 -143 96 -342q0 -21 -1 -53zM1437 583q-24 256 -224 256q-195 0 -237 -256h461zM535 835q-105 0 -171 -84q-79 -101 -79 -267q0 -163 78 -264q65 -83 170 -83q101 0 166 83q78 101 78 265q0 168 -78 266q-68 84 -164 84z" />
    <glyph glyph-name="Racute" unicode="&#x154;" horiz-adv-x="1181" 
d="M169 1365h294q168 0 251 -11t153 -44q112 -51 166 -163q41 -85 41 -186q0 -270 -260 -375l336 -586h-249l-311 550h-210v-550h-211v1365zM380 732h95q179 0 248 25q63 22 98 76.5t35 129.5q0 135 -107 187q-43 22 -95.5 28t-189.5 6h-84v-452zM406 1486l313 308h262
l-381 -308h-194z" />
    <glyph glyph-name="racute" unicode="&#x155;" horiz-adv-x="723" 
d="M245 1106l238 309h262l-343 -309h-157zM132 972h192q15 -74 15 -149q0 -20 -2 -57q105 228 265 228q41 0 97 -20v-203q-77 44 -141 44q-120 0 -176 -133q-35 -82 -35 -238v-444h-202v656q-1 232 -13 316z" />
    <glyph glyph-name="Rcommaaccent" unicode="&#x156;" horiz-adv-x="1181" 
d="M169 1365h294q168 0 251 -11t153 -44q112 -51 166 -163q41 -85 41 -186q0 -270 -260 -375l336 -586h-249l-311 550h-210v-550h-211v1365zM380 732h95q179 0 248 25q63 22 98 76.5t35 129.5q0 135 -107 187q-43 22 -95.5 28t-189.5 6h-84v-452zM609 -555h-103
q97 108 109 217q-44 2 -70 18q-51 31 -51 92q0 50 36 84.5t88 34.5q59 0 95.5 -43.5t36.5 -114.5q0 -127 -141 -288z" />
    <glyph glyph-name="rcommaaccent" unicode="&#x157;" horiz-adv-x="723" 
d="M131 972h192q15 -74 15 -149q0 -20 -2 -57q106 228 266 228q40 0 96 -20v-203q-77 44 -141 44q-120 0 -176 -133q-35 -82 -35 -238v-444h-202v656q-1 232 -13 316zM232 -560h-105q98 109 110 219q-44 2 -70 18q-52 32 -52 93q0 51 36.5 86t89.5 35q60 0 96.5 -44.5
t36.5 -116.5q0 -129 -142 -290z" />
    <glyph glyph-name="Rcaron" unicode="&#x158;" horiz-adv-x="1181" 
d="M169 1365h294q168 0 251 -11t153 -44q112 -51 166 -163q41 -85 41 -186q0 -270 -260 -375l336 -586h-249l-311 550h-210v-550h-211v1365zM380 732h95q179 0 248 25q63 22 98 76.5t35 129.5q0 135 -107 187q-43 22 -95.5 28t-189.5 6h-84v-452zM959 1779l-274 -279h-185
l-275 279h194l173 -169l172 169h195z" />
    <glyph glyph-name="rcaron" unicode="&#x159;" horiz-adv-x="723" 
d="M131 972h192q15 -74 15 -149q0 -20 -2 -57q106 228 266 228q40 0 96 -20v-203q-77 44 -141 44q-120 0 -176 -133q-35 -82 -35 -238v-444h-202v656q-1 232 -13 316zM747 1415l-240 -300h-185l-240 300h186l147 -184l145 184h187z" />
    <glyph glyph-name="Sacute" unicode="&#x15a;" horiz-adv-x="1140" 
d="M1010 987h-205q-8 91 -51 141q-66 78 -194 78q-88 0 -152 -43q-75 -52 -75 -140q0 -81 82 -128q49 -28 230 -97q137 -51 205 -89t110 -85q88 -99 88 -244q0 -205 -148 -316q-118 -89 -320 -89q-297 0 -422 184q-41 59 -57 120.5t-18 162.5h205q6 -133 64 -199
q74 -84 228 -84q113 0 185 59q67 55 67 142q0 98 -89 157q-52 33 -228 100q-210 81 -285 146q-108 94 -108 249q0 191 150 294q120 84 291 84q254 0 377 -168q63 -87 70 -235zM385 1486l314 308h261l-380 -308h-195z" />
    <glyph glyph-name="sacute" unicode="&#x15b;" horiz-adv-x="949" 
d="M336 1106l238 309h261l-342 -309h-157zM849 689h-194q-9 70 -39 103q-45 51 -137 51q-70 0 -115 -34.5t-45 -88.5q0 -53 41 -79.5t191 -70.5q111 -32 166.5 -58.5t85.5 -60.5q58 -67 58 -170q0 -139 -94 -222q-99 -86 -282 -86q-195 0 -298 87.5t-103 252.5h191
q7 -83 42 -122q54 -61 163 -61q82 0 130 36.5t48 99.5q0 60 -64 93q-36 19 -212 72q-146 44 -200 100q-64 67 -64 170q0 135 103 218q100 80 261 80q167 0 262.5 -80.5t104.5 -229.5z" />
    <glyph glyph-name="Scircumflex" unicode="&#x15c;" horiz-adv-x="1140" 
d="M206 1500l274 279h185l274 -279h-193l-173 169l-173 -169h-194zM1012 987h-206q-8 91 -50 141q-66 78 -193 78q-89 0 -152 -42q-73 -49 -73 -132q0 -81 76 -126q40 -24 234 -105q156 -65 214 -97.5t100 -78.5q87 -94 87 -246q0 -204 -148 -316q-118 -88 -315 -88
q-293 0 -423 184q-74 105 -79 283h205q12 -132 68 -195q79 -88 231 -88q110 0 178 51q66 49 66 134q0 92 -87 152q-51 34 -226 108q-213 90 -283 154q-109 100 -109 255q0 190 151 293q123 84 291 84q253 0 373 -168q62 -87 70 -235z" />
    <glyph glyph-name="scircumflex" unicode="&#x15d;" horiz-adv-x="949" 
d="M154 1115l241 300h184l241 -300h-186l-147 184l-145 -184h-188zM849 689h-194q-9 70 -39 103q-45 51 -137 51q-70 0 -115 -34.5t-45 -88.5q0 -53 41 -79.5t191 -70.5q111 -32 166.5 -58.5t85.5 -60.5q58 -67 58 -170q0 -139 -94 -222q-99 -86 -282 -86q-195 0 -298 87.5
t-103 252.5h191q7 -83 42 -122q54 -61 163 -61q82 0 130 36.5t48 99.5q0 60 -64 93q-36 19 -212 72q-146 44 -200 100q-64 67 -64 170q0 135 103 218q100 80 261 80q167 0 262.5 -80.5t104.5 -229.5z" />
    <glyph glyph-name="Scedilla" unicode="&#x15e;" horiz-adv-x="1140" 
d="M596 -25l-35 -93q82 -14 131 -50q76 -55 76 -151q0 -93 -66.5 -154.5t-166.5 -61.5q-77 0 -185 55v101q88 -39 135 -39q54 0 87.5 32t33.5 84q0 55 -38.5 87t-104.5 32q-21 0 -57 -5l59 172q-197 34 -301 177q-73 105 -81 281h205q11 -128 70 -194q79 -89 226 -89
q108 0 179 53q69 51 69 134q0 88 -89 149q-49 33 -225 108q-208 90 -281 156q-109 101 -109 252q0 189 150 294q123 85 290 85q249 0 370 -169q63 -87 71 -234h-204q-7 88 -52 141q-67 78 -191 78q-89 0 -150 -43q-72 -52 -72 -133q0 -75 75 -122q48 -29 233 -107
q148 -62 210.5 -97t102.5 -78q88 -96 88 -245q0 -159 -99 -267q-123 -136 -354 -139z" />
    <glyph glyph-name="scedilla" unicode="&#x15f;" horiz-adv-x="949" 
d="M485 -27l-30 -75q182 -32 182 -173q0 -82 -58 -136t-147 -54q-74 0 -165 48v89q85 -34 121 -34q49 0 78 28t29 74q0 49 -34.5 77t-94.5 28q-17 0 -48 -3l53 141q-184 32 -255 169q-32 66 -32 161h191q7 -83 42 -122q54 -61 163 -61q82 0 130 36.5t48 99.5q0 60 -64 93
q-36 19 -212 72q-146 44 -200 100q-64 67 -64 170q0 135 103 218q100 80 261 80q167 0 262.5 -80.5t104.5 -229.5h-194q-9 70 -39 103q-46 51 -137 51q-70 0 -115 -34.5t-45 -88.5q0 -53 41 -79.5t191 -70.5q111 -32 166.5 -58.5t85.5 -60.5q58 -67 58 -170
q0 -91 -43.5 -160.5t-123.5 -106.5q-87 -41 -192 -41h-17z" />
    <glyph glyph-name="Scaron" unicode="&#x160;" horiz-adv-x="1140" 
d="M1010 987h-205q-8 91 -51 141q-66 78 -194 78q-88 0 -152 -43q-75 -52 -75 -140q0 -81 82 -128q49 -28 230 -97q137 -51 205 -89t110 -85q88 -99 88 -244q0 -205 -148 -316q-118 -89 -320 -89q-297 0 -422 184q-41 59 -57 120.5t-18 162.5h205q6 -133 64 -199
q74 -84 228 -84q113 0 185 59q67 55 67 142q0 98 -89 157q-52 33 -228 100q-210 81 -285 146q-108 94 -108 249q0 191 150 294q120 84 291 84q254 0 377 -168q63 -87 70 -235zM939 1779l-274 -279h-185l-274 279h193l173 -169l173 169h194z" />
    <glyph glyph-name="scaron" unicode="&#x161;" horiz-adv-x="949" 
d="M818 1415l-240 -300h-185l-240 300h186l146 -184l146 184h187zM849 689h-194q-9 70 -39 103q-45 51 -137 51q-70 0 -115 -34.5t-45 -88.5q0 -53 41 -79.5t191 -70.5q111 -32 166.5 -58.5t85.5 -60.5q58 -67 58 -170q0 -139 -94 -222q-99 -86 -282 -86q-195 0 -298 87.5
t-103 252.5h191q7 -83 42 -122q54 -61 163 -61q82 0 130 36.5t48 99.5q0 60 -64 93q-36 19 -212 72q-146 44 -200 100q-64 67 -64 170q0 135 103 218q100 80 261 80q167 0 262.5 -80.5t104.5 -229.5z" />
    <glyph glyph-name="Tcommaaccent" unicode="&#x162;" horiz-adv-x="992" 
d="M33 1365h927v-181h-359v-1184h-211v1184h-357v181zM484 -555h-104q98 107 109 217q-43 2 -69 18q-51 31 -51 92q0 49 36 84t88 35q59 0 95 -44t36 -115q0 -128 -140 -287z" />
    <glyph glyph-name="tcommaaccent" unicode="&#x163;" horiz-adv-x="691" 
d="M403 972h214l-3 -159h-214l-7 -430q-2 -128 4 -158q15 -68 99 -68q67 0 143 32l-3 -170q-100 -39 -196 -39q-159 0 -222 106q-33 54 -33 176q0 29 3 121l12 430h-149l3 159h152l7 280h195zM369 -561h-105q97 108 110 219q-44 3 -71 18q-51 31 -51 93q0 51 36.5 86
t89.5 35q60 0 96.5 -44.5t36.5 -116.5q0 -128 -142 -290z" />
    <glyph glyph-name="Tcaron" unicode="&#x164;" horiz-adv-x="992" 
d="M33 1365h927v-181h-359v-1184h-211v1184h-357v181zM863 1779l-274 -279h-185l-274 279h193l173 -169l173 169h194z" />
    <glyph glyph-name="tcaron" unicode="&#x165;" horiz-adv-x="734" 
d="M403 972h214l-3 -159h-214l-7 -430q-2 -128 4 -158q15 -68 99 -68q67 0 143 32l-3 -170q-100 -39 -196 -39q-158 0 -221 104q-34 55 -34 179q0 28 3 120l12 430h-149l3 159h152l7 280h195zM634 1081h-105q98 109 110 219q-44 2 -70 18q-52 32 -52 93q0 51 36.5 86
t89.5 35q60 0 96.5 -44.5t36.5 -116.5q0 -129 -142 -290z" />
    <glyph glyph-name="Tbar" unicode="&#x166;" horiz-adv-x="992" 
d="M601 898h269v-171h-269v-727h-211v727h-268v171h268v286h-357v181h927v-181h-359v-286z" />
    <glyph glyph-name="tbar" unicode="&#x167;" horiz-adv-x="691" 
d="M403 972h213l-1 -159h-215l-2 -138h206v-137h-209l-2 -156q-2 -127 4 -157q15 -68 99 -68q66 0 143 32l-3 -170q-100 -39 -196 -39q-158 0 -223 106q-32 54 -32 176q0 32 3 121l4 155h-141l1 137h145l3 138h-147v159h153l7 280h195z" />
    <glyph glyph-name="Utilde" unicode="&#x168;" horiz-adv-x="1334" 
d="M153 1365h211v-793q0 -121 6 -173t26 -95q35 -75 113 -112q70 -33 158 -33q105 0 178.5 44.5t101.5 126.5q22 64 22 242v793h211v-796q0 -152 -8.5 -216.5t-35.5 -123.5q-57 -127 -195 -196q-115 -58 -274 -58q-230 0 -372 123q-109 94 -132 248q-10 67 -10 223v796z
M423 1510l-104 31q57 208 198 208q51 0 151 -42q105 -44 139 -44q64 0 104 100l95 -30q-13 -73 -45 -123q-59 -94 -151 -94q-45 0 -160 47q-96 40 -132 40q-67 0 -95 -93z" />
    <glyph glyph-name="utilde" unicode="&#x169;" horiz-adv-x="1082" 
d="M318 1137l-95 24q51 215 178 215q50 0 137 -42q93 -44 125 -44q58 0 94 100l90 -24q-15 -91 -54 -149q-50 -75 -122 -75q-49 0 -145 44q-94 44 -123 44q-60 0 -85 -93zM139 972h201v-573q0 -129 34 -176q47 -67 149 -67q121 0 178 99q35 61 35 183v534h201v-674
q0 -162 3 -200.5t21 -97.5h-193q-16 48 -20 120q-91 -142 -267 -142q-96 0 -173 39t-120 109q-49 79 -49 266v580z" />
    <glyph glyph-name="Umacron" unicode="&#x16a;" horiz-adv-x="1334" 
d="M153 1365h211v-793q0 -121 6 -173t26 -95q35 -75 113 -112q70 -33 158 -33q105 0 178.5 44.5t101.5 126.5q22 64 22 242v793h211v-796q0 -152 -8.5 -216.5t-35.5 -123.5q-57 -127 -195 -196q-115 -58 -274 -58q-230 0 -372 123q-109 94 -132 248q-10 67 -10 223v796z
M356 1706h621v-132h-621v132z" />
    <glyph glyph-name="umacron" unicode="&#x16b;" horiz-adv-x="1082" 
d="M139 972h201v-573q0 -129 34 -176q47 -67 149 -67q121 0 178 99q35 61 35 183v534h201v-674q0 -162 3 -200.5t21 -97.5h-193q-16 48 -20 120q-91 -142 -267 -142q-96 0 -173 39t-120 109q-49 79 -49 266v580zM248 1327h576v-131h-576v131z" />
    <glyph glyph-name="Ubreve" unicode="&#x16c;" horiz-adv-x="1334" 
d="M153 1365h211v-793q0 -121 6 -173t26 -95q35 -75 113 -112q70 -33 158 -33q105 0 178.5 44.5t101.5 126.5q22 64 22 242v793h211v-796q0 -152 -8.5 -216.5t-35.5 -123.5q-57 -127 -195 -196q-115 -58 -274 -58q-230 0 -372 123q-109 94 -132 248q-10 67 -10 223v796z
M376 1781h90q66 -151 201 -151q134 0 201 151h89q-11 -95 -56 -161q-86 -122 -233 -122q-117 0 -197 77.5t-95 205.5z" />
    <glyph glyph-name="ubreve" unicode="&#x16d;" horiz-adv-x="1082" 
d="M271 1396h95q56 -150 173 -150q111 0 167 150h95q-10 -96 -51 -165q-72 -122 -208 -122q-110 0 -184 78.5t-87 208.5zM139 972h201v-573q0 -129 34 -176q47 -67 149 -67q121 0 178 99q35 61 35 183v534h201v-674q0 -162 3 -200.5t21 -97.5h-193q-16 48 -20 120
q-91 -142 -267 -142q-96 0 -173 39t-120 109q-49 79 -49 266v580z" />
    <glyph glyph-name="Uring" unicode="&#x16e;" horiz-adv-x="1334" 
d="M669 1853q79 0 136 -57q58 -58 58 -140q0 -81 -58 -138q-57 -58 -138 -58q-82 0 -139 58q-58 58 -58 138q0 82 58 139.5t141 57.5zM668 1757q-43 0 -72.5 -29.5t-29.5 -71.5q0 -41 29.5 -70.5t71.5 -29.5q41 0 70.5 29.5t29.5 70.5q0 42 -29.5 71.5t-69.5 29.5zM153 1365
h211v-793q0 -121 6 -173t26 -95q35 -75 113 -112q70 -33 158 -33q105 0 178.5 44.5t101.5 126.5q22 64 22 242v793h211v-796q0 -152 -8.5 -216.5t-35.5 -123.5q-57 -127 -195 -196q-115 -58 -274 -58q-230 0 -372 123q-109 94 -132 248q-10 67 -10 223v796z" />
    <glyph glyph-name="uring" unicode="&#x16f;" horiz-adv-x="1082" 
d="M539 1476q79 0 136.5 -58t57.5 -139t-58 -138q-57 -58 -138 -58q-82 0 -139 58q-58 57 -58 138q0 82 58 139.5t141 57.5zM538 1380q-43 0 -72.5 -29t-29.5 -72q0 -41 29.5 -70.5t71.5 -29.5q41 0 70.5 29.5t29.5 70.5q0 42 -29 71.5t-70 29.5zM139 972h201v-573
q0 -129 34 -176q47 -67 149 -67q121 0 178 99q35 61 35 183v534h201v-674q0 -162 3 -200.5t21 -97.5h-193q-16 48 -20 120q-91 -142 -267 -142q-96 0 -173 39t-120 109q-49 79 -49 266v580z" />
    <glyph glyph-name="Uhungarumlaut" unicode="&#x170;" horiz-adv-x="1334" 
d="M414 1486l253 308h234l-328 -308h-159zM730 1486l252 308h235l-328 -308h-159zM153 1365h211v-793q0 -122 6 -173.5t26 -94.5q35 -75 113 -112q69 -33 158 -33q106 0 179 44.5t101 126.5q22 64 22 242v793h211v-796q0 -154 -8 -217t-36 -123q-58 -128 -195 -196
q-116 -58 -274 -58q-230 0 -372 123q-110 95 -132 248q-10 68 -10 223v796z" />
    <glyph glyph-name="uhungarumlaut" unicode="&#x171;" horiz-adv-x="1082" 
d="M332 1106l200 309h228l-284 -309h-144zM633 1106l200 309h228l-284 -309h-144zM139 972h201v-573q0 -129 34 -176q47 -67 149 -67q121 0 178 99q35 61 35 183v534h201v-674q0 -162 3 -200.5t21 -97.5h-193q-16 48 -20 120q-91 -142 -267 -142q-96 0 -173 39t-120 109
q-49 79 -49 266v580z" />
    <glyph glyph-name="Uogonek" unicode="&#x172;" horiz-adv-x="1334" 
d="M1023 -282v-103q-74 -32 -140 -32q-112 0 -174 68q-51 55 -51 129q0 69 38.5 115.5t139.5 99.5q-92 -20 -168 -20q-231 0 -373 123q-109 94 -132 248q-10 67 -10 223v796h211v-793q0 -121 6 -173t26 -95q35 -75 113 -112q70 -33 158 -33q105 0 178.5 44.5t101.5 126.5
q22 64 22 242v793h211v-796q0 -131 -5 -186.5t-21 -107.5q-19 -61 -46 -99.5t-107 -119.5q-101 -101 -141 -158.5t-40 -98.5q0 -47 29.5 -73t80.5 -26q41 0 93 18z" />
    <glyph glyph-name="uogonek" unicode="&#x173;" horiz-adv-x="1082" 
d="M961 0q-23 -19 -35 -28q-74 -60 -102 -97t-28 -73q0 -39 28 -62.5t75 -23.5q45 0 90 18v-99q-59 -27 -129 -27q-107 0 -165 63q-47 51 -47 122q0 123 169 207h-49q-16 48 -20 120q-91 -142 -267 -142q-96 0 -173 39t-120 109q-49 79 -49 266v580h201v-573q0 -129 34 -176
q47 -67 149 -67q121 0 178 99q35 61 35 183v534h201v-674q0 -161 3.5 -202t20.5 -96z" />
    <glyph glyph-name="Wcircumflex" unicode="&#x174;" horiz-adv-x="1691" 
d="M27 1365h199l262 -1111l268 1111h182l268 -1111l265 1111h194l-339 -1369h-236l-246 972l-243 -972h-235zM481 1500l274 279h186l274 -279h-193l-174 169l-172 -169h-195z" />
    <glyph glyph-name="wcircumflex" unicode="&#x175;" horiz-adv-x="1450" 
d="M29 972h204l194 -726l214 726h166l213 -726l196 726h203l-287 -980h-209l-202 666l-200 -666h-209zM391 1115l241 300h185l240 -300h-186l-147 184l-145 -184h-188z" />
    <glyph glyph-name="Ycircumflex" unicode="&#x176;" horiz-adv-x="1103" 
d="M185 1500l274 279h185l275 -279h-194l-173 169l-172 -169h-195zM11 1365h239l305 -588l302 588h235l-435 -811l1 -554h-212l1 554z" />
    <glyph glyph-name="ycircumflex" unicode="&#x177;" horiz-adv-x="964" 
d="M33 972h214l238 -773l247 773h210l-325 -925q-50 -143 -64.5 -178.5t-44.5 -87.5q-110 -191 -387 -191q-20 0 -65 2v175h36q124 0 180 41t101 164zM155 1115l240 300h185l241 -300h-186l-147 184l-145 -184h-188z" />
    <glyph glyph-name="Ydieresis" unicode="&#x178;" horiz-adv-x="1103" 
d="M366 1774q55 0 94 -39.5t39 -95.5q0 -55 -39.5 -94.5t-94.5 -39.5q-56 0 -95.5 39.5t-39.5 94.5q0 57 39.5 96t96.5 39zM740 1774q55 0 94 -39.5t39 -95.5q0 -55 -39.5 -94.5t-94.5 -39.5q-56 0 -95.5 39.5t-39.5 94.5q0 57 39.5 96t96.5 39zM11 1365h239l305 -588
l302 588h235l-435 -811l1 -554h-212l1 554z" />
    <glyph glyph-name="Zacute" unicode="&#x179;" horiz-adv-x="1018" 
d="M107 1365h860v-148l-664 -1035h647v-182h-896v165l657 1021h-604v179zM358 1486l314 308h261l-381 -308h-194z" />
    <glyph glyph-name="zacute" unicode="&#x17a;" horiz-adv-x="844" 
d="M93 972h700v-150l-510 -656h509v-166h-746v155l503 651h-456v166zM293 1106l238 309h261l-342 -309h-157z" />
    <glyph glyph-name="Zdotaccent" unicode="&#x17b;" horiz-adv-x="1018" 
d="M107 1365h860v-148l-664 -1035h647v-182h-896v165l657 1021h-604v179zM534 1786q60 0 102.5 -43t42.5 -104q0 -60 -43 -103t-104 -43q-60 0 -103 43t-43 103q0 62 43 104.5t105 42.5z" />
    <glyph glyph-name="zdotaccent" unicode="&#x17c;" horiz-adv-x="843" 
d="M93 972h700v-150l-510 -656h509v-166h-746v155l503 651h-456v166zM439 1391q51 0 87 -36.5t36 -87.5q0 -52 -36.5 -88.5t-87.5 -36.5q-52 0 -88.5 36.5t-36.5 87.5q0 53 36.5 89t89.5 36z" />
    <glyph glyph-name="Zcaron" unicode="&#x17d;" horiz-adv-x="1018" 
d="M107 1365h860v-148l-664 -1035h647v-182h-896v165l657 1021h-604v179zM900 1779l-274 -279h-185l-275 279h194l173 -169l172 169h195z" />
    <glyph glyph-name="zcaron" unicode="&#x17e;" horiz-adv-x="843" 
d="M93 972h700v-150l-510 -656h509v-166h-746v155l503 651h-456v166zM768 1415l-240 -300h-185l-240 300h186l147 -184l145 184h187z" />
    <glyph glyph-name="longs" unicode="&#x17f;" horiz-adv-x="630" 
d="M166 0v1033q0 180 47 255q72 113 234 113q88 0 191 -39v-170q-97 34 -154 34q-81 0 -103 -73q-10 -35 -10 -137v-1016h-205z" />
    <glyph glyph-name="uni018F" unicode="&#x18f;" horiz-adv-x="1353" 
d="M89 733l949 -1q1 15 1 18q0 79 -28 168.5t-74 157.5q-42 63 -110.5 97.5t-150.5 34.5q-102 0 -184.5 -57t-120.5 -155l-196 87q34 72 95 135q169 172 406 172q244 0 406 -172q183 -194 183 -535q0 -342 -183 -536q-161 -172 -405 -172t-407 172q-100 106 -133 224
q-40 143 -48 362zM312 583q24 -182 104 -294q93 -132 260 -132q107 0 189 59q130 92 167 367h-720z" />
    <glyph glyph-name="florin" unicode="&#x192;" horiz-adv-x="1133" 
d="M762 972h221v-151h-247l-103 -582q-31 -179 -47.5 -245t-42.5 -116q-81 -156 -252 -156q-126 0 -266 82l30 165q130 -75 216 -75q69 0 97.5 60t68.5 285l102 582h-195v151h222l21 118q34 194 86 269q78 113 228 113q101 0 207 -57l-28 -160q-110 48 -161 48
q-58 0 -87 -50.5t-55 -198.5z" />
    <glyph glyph-name="Ohorn" unicode="&#x1a0;" horiz-adv-x="1353" 
d="M1138 1149q45 75 52 140q-44 2 -69 18q-51 31 -51 92q0 50 36 84.5t88 34.5q58 0 94.5 -44t36.5 -114q0 -128 -140 -288h-2q82 -166 82 -393q0 -338 -183 -532q-161 -172 -406 -172q-244 0 -405 172q-183 194 -183 536q0 341 183 535q161 172 406 172q241 0 405 -172
q31 -32 56 -69zM677 1208q-168 0 -261 -132q-106 -150 -106 -386q0 -250 106 -401q92 -132 261 -132q168 0 260 132q106 151 106 394q0 246 -106 393q-95 132 -260 132z" />
    <glyph glyph-name="ohorn" unicode="&#x1a1;" horiz-adv-x="1066" 
d="M911 785q34 67 39 120q-44 3 -70 19q-52 31 -52 93q0 51 36.5 86t89.5 35q59 0 96 -44.5t37 -116.5q0 -127 -135 -283q35 -102 35 -210q0 -170 -77 -300q-69 -115 -190 -170q-89 -41 -187 -41q-179 0 -303 119q-71 68 -109 163q-42 109 -42 230q0 172 77 301
q69 117 190 172q89 41 187 41q118 0 217 -56t161 -158zM533 835q-108 0 -173 -89q-75 -101 -75 -256q0 -164 75 -264q65 -88 173 -88q109 0 173 88q75 101 75 259q0 161 -75 261q-66 89 -173 89z" />
    <glyph glyph-name="Uhorn" unicode="&#x1af;" horiz-adv-x="1334" 
d="M153 1365h211v-793q0 -121 6 -173t26 -95q35 -75 113 -112q70 -33 158 -33q105 0 178.5 44.5t101.5 126.5q22 64 22 242v793h211v-796q0 -152 -8.5 -216.5t-35.5 -123.5q-57 -127 -195 -196q-115 -58 -274 -58q-230 0 -372 123q-109 94 -132 248q-10 67 -10 223v796z
M1371 1063h-104q98 107 110 217q-44 2 -70 18q-51 31 -51 92q0 50 36 84.5t88 34.5q59 0 95 -44t36 -115q0 -128 -140 -287z" />
    <glyph glyph-name="uhorn" unicode="&#x1b0;" horiz-adv-x="1082" 
d="M139 972h201v-573q0 -129 34 -176q47 -67 149 -67q121 0 178 99q35 61 35 183v534h201v-674q0 -162 3 -200.5t21 -97.5h-193q-16 48 -20 120q-91 -142 -267 -142q-96 0 -173 39t-120 109q-49 79 -49 266v580zM1124 673h-105q98 109 110 219q-45 2 -71 18q-51 32 -51 93
q0 51 36.5 86t88.5 35q60 0 96.5 -44.5t36.5 -116.5q0 -130 -141 -290z" />
    <glyph glyph-name="uni01CD" unicode="&#x1cd;" horiz-adv-x="1198" 
d="M495 1369h205l467 -1369h-219l-101 320h-497l-103 -320h-217zM791 502l-193 614l-193 -614h386zM966 1779l-275 -279h-185l-274 279h193l173 -169l173 169h195z" />
    <glyph glyph-name="uni01CE" unicode="&#x1ce;" horiz-adv-x="1014" 
d="M838 1415l-240 -300h-185l-240 300h186l146 -184l146 184h187zM318 698h-194q16 136 98 206q106 90 298 90q123 0 207 -39.5t115 -111.5t31 -230v-379q0 -163 30 -234h-186q-15 56 -17 120q-80 -142 -278 -142q-140 0 -228 63q-104 74 -104 214q0 208 223 292
q106 40 365 85v27q0 85 -28 120q-42 52 -142 52q-165 0 -190 -133zM678 493q-212 -32 -287 -74q-95 -53 -95 -141q0 -63 46.5 -102t119.5 -39q132 0 187 102q29 53 29 179v75z" />
    <glyph glyph-name="uni01D2" unicode="&#x1d2;" horiz-adv-x="1066" 
d="M533 999q178 0 303 -120q71 -67 108 -164q43 -109 43 -230q0 -172 -77 -301q-69 -115 -190 -170q-89 -41 -186 -41q-180 0 -304 119q-151 144 -151 400q0 164 77 295q68 115 190 171q89 41 187 41zM533 835q-108 0 -173 -89q-75 -101 -75 -256q0 -164 75 -264
q65 -88 173 -88q109 0 173 88q75 101 75 259q0 161 -75 261q-66 89 -173 89zM866 1415l-240 -300h-185l-241 300h186l147 -184l145 184h188z" />
    <glyph glyph-name="uni01D3" unicode="&#x1d3;" horiz-adv-x="1334" 
d="M1034 1779l-275 -279h-185l-274 279h193l174 -169l172 169h195zM153 1365h211v-793q0 -121 6 -173t26 -95q35 -75 113 -112q70 -33 158 -33q105 0 178.5 44.5t101.5 126.5q22 64 22 242v793h211v-796q0 -152 -8.5 -216.5t-35.5 -123.5q-57 -127 -195 -196
q-115 -58 -274 -58q-230 0 -372 123q-109 94 -132 248q-10 67 -10 223v796z" />
    <glyph glyph-name="uni01D4" unicode="&#x1d4;" horiz-adv-x="1082" 
d="M139 972h201v-573q0 -129 34 -176q47 -67 149 -67q121 0 178 99q35 61 35 183v534h201v-674q0 -162 3 -200.5t21 -97.5h-193q-16 48 -20 120q-91 -142 -267 -142q-96 0 -173 39t-120 109q-49 79 -49 266v580zM869 1415l-240 -300h-185l-240 300h186l146 -184l146 184h187
z" />
    <glyph glyph-name="uni01DD" unicode="&#x1dd;" horiz-adv-x="1026" 
d="M80 530h664q-6 127 -55 202q-66 102 -202 102q-144 0 -206 -128l-181 13q31 104 99 172q109 108 292 108q172 0 289 -96q167 -137 167 -406q0 -183 -77 -317q-68 -116 -184 -169q-85 -38 -186 -38q-206 0 -322 158q-99 135 -99 355q0 15 1 44zM284 380q30 -246 220 -246
q185 0 234 246h-454z" />
    <glyph glyph-name="Gcaron" unicode="&#x1e6;" horiz-adv-x="1295" 
d="M1044 1779l-274 -279h-185l-275 279h194l173 -169l172 169h195zM721 692h456v-565q-216 -152 -477 -152q-257 0 -419 160q-193 193 -193 550q0 353 194 547q159 158 395 158q119 0 219.5 -42.5t164.5 -121.5q81 -98 97 -271h-187q-46 251 -292 251q-159 0 -248 -110
q-121 -147 -121 -411q0 -262 118 -408q95 -118 271 -118q157 0 298 89v278h-276v166z" />
    <glyph glyph-name="gcaron" unicode="&#x1e7;" horiz-adv-x="1040" 
d="M865 1415l-240 -300h-185l-240 300h186l146 -184l146 184h187zM999 972v-147l-199 2q66 -75 66 -197q0 -83 -36.5 -146.5t-102.5 -94.5q-51 -24 -95.5 -34t-191.5 -32q-44 -6 -73 -26t-29 -44q0 -29 32.5 -39t172.5 -24q226 -22 304 -63q60 -32 94 -92t34 -135
q0 -158 -138 -242q-119 -72 -324 -72q-228 0 -355 86q-109 75 -109 197q0 163 200 233q-107 43 -107 116q0 49 39 84t134 72q-75 34 -114 80q-65 78 -65 198q0 157 109 250q103 88 274 88q78 0 170 -26zM508 835q-87 0 -139.5 -49.5t-52.5 -131.5q0 -74 47 -119
q51 -51 139 -51q85 0 136.5 46.5t51.5 123.5q0 80 -51 130.5t-131 50.5zM490 28q-113 0 -183 -31q-82 -37 -82 -112q0 -73 86 -110q84 -36 204 -36q123 0 194.5 38.5t71.5 104.5q0 70 -75.5 108t-215.5 38z" />
    <glyph glyph-name="uni01F4" unicode="&#x1f4;" horiz-adv-x="1295" 
d="M492 1486l313 308h262l-381 -308h-194zM721 692h456v-565q-216 -152 -477 -152q-257 0 -419 160q-193 193 -193 550q0 353 194 547q159 158 395 158q119 0 219.5 -42.5t164.5 -121.5q81 -98 97 -271h-187q-46 251 -292 251q-159 0 -248 -110q-121 -147 -121 -411
q0 -262 118 -408q95 -118 271 -118q157 0 298 89v278h-276v166z" />
    <glyph glyph-name="Aringacute" unicode="&#x1fa;" horiz-adv-x="1198" 
d="M495 1369h205l467 -1369h-219l-101 320h-497l-103 -320h-217zM791 502l-193 614l-193 -614h386zM598 1780q79 0 137 -57q57 -58 57 -140q0 -81 -57 -138q-58 -58 -139 -58q-82 0 -139 58q-58 57 -58 138q0 83 58 140t141 57zM597 1684q-43 0 -72.5 -29.5t-29.5 -71.5
q0 -41 29.5 -70.5t71.5 -29.5q41 0 70.5 29.5t29.5 70.5q0 42 -29.5 71.5t-69.5 29.5zM278 1751l314 309h261l-380 -309h-195z" />
    <glyph glyph-name="AEacute" unicode="&#x1fc;" horiz-adv-x="1815" 
d="M832 1365h901v-181h-584v-388h533v-182h-533v-432h595v-182h-810v320h-488l-183 -320h-231zM934 502v673l-382 -673h382zM942 1486l314 308h261l-380 -308h-195z" />
    <glyph glyph-name="aeacute" unicode="&#x1fd;" horiz-adv-x="1629" 
d="M1550 443h-677q1 -128 54 -203q73 -104 216 -104q145 0 207 130l181 -13q-22 -96 -94 -170q-106 -110 -290 -110q-128 0 -226 53.5t-154 153.5q-43 -93 -106 -138q-94 -69 -236 -69q-135 0 -227 62q-108 73 -108 212q0 162 150.5 252.5t427.5 94.5v53q0 102 -32 140
q-40 49 -129 49q-154 0 -192 -155h-193q13 128 90 208q106 110 305 110q115 0 186 -34t119 -112q52 61 99 91q88 55 206 55q194 0 311 -144q112 -137 112 -383v-29zM1334 592q-31 247 -216 247q-93 0 -153.5 -63t-82.5 -184h452zM668 445h-23q-95 0 -181 -19
q-168 -38 -168 -165q0 -58 43 -93.5t114 -35.5q106 0 160.5 69t54.5 204v40zM695 1106l238 309h261l-342 -309h-157z" />
    <glyph glyph-name="Oslashacute" unicode="&#x1fe;" horiz-adv-x="1353" 
d="M1030 1268l84 111h164l-157 -206q144 -189 144 -494q0 -258 -118 -445q-96 -153 -258 -218q-100 -41 -210 -41q-202 0 -359 126l-85 -115h-160l153 210q-59 87 -86 157q-54 143 -54 330q0 402 247 592q148 115 340 115q196 0 355 -122zM906 1114q-97 93 -230 93
q-155 0 -244 -113q-122 -154 -122 -420q0 -143 56 -291zM442 257q105 -100 239 -100q151 0 240 113q122 155 122 418q0 153 -59 309zM555 1486l314 308h261l-380 -308h-195z" />
    <glyph glyph-name="oslashacute" unicode="&#x1ff;" horiz-adv-x="1067" 
d="M165 165q-5 10 -8 15q-41 77 -54 123q-24 84 -24 179q0 177 81 308q70 115 192 170q86 38 181 38q85 0 148.5 -23.5t143.5 -84.5l77 82h143l-144 -162q6 -17 36 -74q50 -93 50 -251q0 -174 -81 -305q-71 -115 -192 -169q-86 -38 -182 -38q-172 0 -291 109l-72 -82h-148z
M310 318l385 438q-23 35 -68.5 56.5t-97.5 21.5q-100 0 -165 -86q-79 -103 -79 -268q0 -81 25 -162zM752 658l-385 -447q77 -74 166 -74q103 0 169 85q79 103 79 269q0 77 -29 167zM408 1106l238 309h262l-343 -309h-157z" />
    <glyph glyph-name="Scommaaccent" unicode="&#x218;" horiz-adv-x="1140" 
d="M1009 987h-204q-7 87 -52 141q-66 78 -191 78q-89 0 -150 -43q-72 -52 -72 -133q0 -75 76 -122q47 -29 232 -107q148 -62 210.5 -97t101.5 -78q88 -96 88 -245q0 -201 -152 -315q-121 -91 -316 -91q-232 0 -359 119.5t-138 347.5h205q11 -128 70 -194q79 -89 226 -89
q108 0 179 53q68 51 68 134q0 88 -89 149q-48 33 -224 108q-209 90 -281 156q-109 102 -109 252q0 190 151 294q122 85 290 85q248 0 369 -169q63 -87 71 -234zM553 -555h-104q98 107 110 217q-44 2 -70 18q-51 31 -51 92q0 49 36 84t88 35q59 0 95 -44t36 -115
q0 -128 -140 -287z" />
    <glyph glyph-name="scommaaccent" unicode="&#x219;" horiz-adv-x="949" 
d="M462 -561h-105q98 108 110 219q-44 3 -70 18q-52 31 -52 94q0 50 36.5 85t89.5 35q59 0 96 -44.5t37 -115.5q0 -129 -142 -291zM849 689h-194q-9 70 -39 103q-45 51 -137 51q-70 0 -115 -34.5t-45 -88.5q0 -53 41 -79.5t191 -70.5q111 -32 166.5 -58.5t85.5 -60.5
q58 -67 58 -170q0 -139 -94 -222q-99 -86 -282 -86q-195 0 -298 87.5t-103 252.5h191q7 -83 42 -122q54 -61 163 -61q82 0 130 36.5t48 99.5q0 60 -64 93q-36 19 -212 72q-146 44 -200 100q-64 67 -64 170q0 135 103 218q100 80 261 80q167 0 262.5 -80.5t104.5 -229.5z" />
    <glyph glyph-name="uni021A" unicode="&#x21a;" horiz-adv-x="992" 
d="M33 1365h927v-181h-359v-1184h-211v1184h-357v181zM484 -555h-104q98 107 109 217q-43 2 -69 18q-51 31 -51 92q0 49 36 84t88 35q59 0 95 -44t36 -115q0 -128 -140 -287z" />
    <glyph glyph-name="uni021B" unicode="&#x21b;" horiz-adv-x="691" 
d="M403 972h214l-3 -159h-214l-7 -430q-2 -128 4 -158q15 -68 99 -68q67 0 143 32l-3 -170q-100 -39 -196 -39q-159 0 -222 106q-33 54 -33 176q0 29 3 121l12 430h-149l3 159h152l7 280h195zM369 -561h-105q97 108 110 219q-44 3 -71 18q-51 31 -51 93q0 51 36.5 86
t89.5 35q60 0 96.5 -44.5t36.5 -116.5q0 -128 -142 -290z" />
    <glyph glyph-name="uni0226" unicode="&#x226;" horiz-adv-x="1198" 
d="M495 1369h205l467 -1369h-219l-101 320h-497l-103 -320h-217zM791 502l-193 614l-193 -614h386zM600 1786q60 0 102.5 -43t42.5 -103q0 -61 -43 -104t-104 -43q-60 0 -103 43t-43 103q0 62 43 104.5t105 42.5z" />
    <glyph glyph-name="uni0227" unicode="&#x227;" horiz-adv-x="1014" 
d="M511 1391q51 0 87 -36.5t36 -87.5q0 -52 -36.5 -88.5t-87.5 -36.5q-52 0 -88.5 36.5t-36.5 87.5q0 53 36.5 89t89.5 36zM318 698h-194q16 136 98 206q106 90 298 90q123 0 207 -39.5t115 -111.5t31 -230v-379q0 -163 30 -234h-186q-15 56 -17 120q-80 -142 -278 -142
q-140 0 -228 63q-104 74 -104 214q0 208 223 292q106 40 365 85v27q0 85 -28 120q-42 52 -142 52q-165 0 -190 -133zM678 493q-212 -32 -287 -74q-95 -53 -95 -141q0 -63 46.5 -102t119.5 -39q132 0 187 102q29 53 29 179v75z" />
    <glyph glyph-name="uni0237" unicode="&#x237;" horiz-adv-x="537" 
d="M191 972h205v-858q0 -159 -12.5 -227t-52.5 -125q-52 -73 -136.5 -107t-217.5 -34q-17 0 -47 1v174q23 -1 32 -1q163 0 206 87q15 29 19 71t4 160v859z" />
    <glyph glyph-name="uni0259" unicode="&#x259;" horiz-adv-x="1026" 
d="M80 530h664q-6 127 -55 202q-66 102 -202 102q-144 0 -206 -128l-181 13q31 104 99 172q109 108 292 108q172 0 289 -96q167 -137 167 -406q0 -183 -77 -317q-68 -116 -184 -169q-85 -38 -186 -38q-206 0 -322 158q-99 135 -99 355q0 15 1 44zM284 380q30 -246 220 -246
q185 0 234 246h-454z" />
    <glyph glyph-name="afii57929" unicode="&#x2bc;" horiz-adv-x="428" 
d="M190 910h-120q106 118 121 237q-46 2 -74 19q-54 33 -54 98q0 52 38 89t93 37q62 0 100.5 -46.5t38.5 -122.5q0 -141 -143 -311z" />
    <glyph glyph-name="circumflex" unicode="&#x2c6;" 
d="M179 1115l240 300h185l240 -300h-185l-147 184l-146 -184h-187z" />
    <glyph glyph-name="caron" unicode="&#x2c7;" 
d="M844 1415l-240 -300h-185l-240 300h186l147 -184l145 184h187z" />
    <glyph glyph-name="uni02C9" unicode="&#x2c9;" 
d="M224 1327h576v-131h-576v131z" />
    <glyph glyph-name="breve" unicode="&#x2d8;" 
d="M247 1396h95q56 -150 174 -150q110 0 167 150h95q-10 -96 -51 -165q-74 -122 -209 -122q-110 0 -184 78.5t-87 208.5z" />
    <glyph glyph-name="dotaccent" unicode="&#x2d9;" 
d="M514 1391q51 0 87 -36.5t36 -87.5q0 -52 -36.5 -88.5t-87.5 -36.5q-52 0 -88.5 36.5t-36.5 87.5q0 53 36.5 89t89.5 36z" />
    <glyph glyph-name="ring" unicode="&#x2da;" 
d="M515 1476q78 0 136 -58q58 -57 58 -139q0 -81 -58 -139q-57 -57 -139 -57q-81 0 -138 57q-58 58 -58 139q0 82 58 139.5t141 57.5zM514 1380q-43 0 -72.5 -29t-29.5 -72q0 -41 29.5 -70.5t70.5 -29.5q42 0 71.5 29.5t29.5 71.5q0 41 -29 70.5t-70 29.5z" />
    <glyph glyph-name="ogonek" unicode="&#x2db;" 
d="M642 0h171q-199 -107 -199 -198q0 -39 27.5 -62.5t75.5 -23.5q45 0 90 18v-99q-60 -27 -130 -27q-106 0 -165 63q-46 51 -46 122q0 130 176 207z" />
    <glyph glyph-name="tilde" unicode="&#x2dc;" 
d="M295 1137l-95 24q50 215 178 215q51 0 138 -42q92 -44 124 -44q59 0 95 100l89 -24q-15 -91 -54 -149q-50 -75 -122 -75q-48 0 -144 44q-95 44 -123 44q-60 0 -86 -93z" />
    <glyph glyph-name="hungarumlaut" unicode="&#x2dd;" 
d="M294 1106l200 309h228l-284 -309h-144zM595 1106l200 309h228l-284 -309h-144z" />
    <glyph glyph-name="uni037E" unicode="&#x37e;" horiz-adv-x="502" 
d="M237 971q56 0 96.5 -40.5t40.5 -96.5q0 -57 -40.5 -97.5t-98.5 -40.5t-98.5 40t-40.5 97q0 58 41 98t100 40zM187 -387h-130q155 191 174 390q-51 2 -80 20q-59 36 -59 107q0 57 42 97t102 40q68 0 109 -52t41 -139q0 -103 -46 -209.5t-153 -253.5z" />
    <glyph glyph-name="tonos" unicode="&#x384;" horiz-adv-x="339" 
d="M248 1103h-158l-22 344h203z" />
    <glyph glyph-name="dieresistonos" unicode="&#x385;" horiz-adv-x="915" 
d="M194 1391q51 0 87 -36.5t36 -87.5q0 -52 -36.5 -88.5t-87.5 -36.5q-52 0 -88.5 36.5t-36.5 87.5q0 53 36.5 89t89.5 36zM724 1391q51 0 87 -36.5t36 -87.5q0 -52 -36.5 -88.5t-87.5 -36.5q-52 0 -88.5 36.5t-36.5 87.5q0 53 36.5 89t89.5 36zM536 1103h-157l-23 344h203z
" />
    <glyph glyph-name="Alphatonos" unicode="&#x386;" horiz-adv-x="1249" 
d="M547 1369h205l467 -1369h-219l-101 320h-497l-103 -320h-217zM843 502l-193 614l-193 -614h386zM292 1103h-158l-22 344h203z" />
    <glyph glyph-name="uni0387" unicode="&#x387;" horiz-adv-x="518" 
d="M261 650q56 0 96.5 -40.5t40.5 -97.5t-40.5 -97t-98.5 -40q-57 0 -98 40t-41 97q0 58 41 98t100 40z" />
    <glyph glyph-name="Epsilontonos" unicode="&#x388;" horiz-adv-x="1173" 
d="M487 798h549v-182h-549v-434h615v-182h-826v1365h809v-181h-598v-386zM180 1103h-158l-22 344h203z" />
    <glyph glyph-name="Etatonos" unicode="&#x389;" horiz-adv-x="1457" 
d="M487 800h590v565h211v-1365h-211v625h-590v-625h-211v1365h211v-565zM180 1103h-158l-22 344h203z" />
    <glyph glyph-name="Iotatonos" unicode="&#x38a;" horiz-adv-x="657" 
d="M489 0h-213v1365h213v-1365zM180 1103h-158l-22 344h203z" />
    <glyph glyph-name="Omicrontonos" unicode="&#x38c;" horiz-adv-x="1431" 
d="M755 1390q243 0 406 -172q182 -193 182 -535t-182 -536q-162 -172 -405 -172q-245 0 -407 172q-182 194 -182 546q0 104 24.5 212.5t66.5 184.5q87 163 244 242q116 58 253 58zM755 1208q-168 0 -260 -132q-106 -150 -106 -386q0 -250 106 -401q92 -132 261 -132
q167 0 260 132q105 150 105 394q0 247 -105 393q-95 132 -261 132zM180 1103h-158l-22 344h203z" />
    <glyph glyph-name="Upsilontonos" unicode="&#x38e;" horiz-adv-x="1318" 
d="M225 1365h239l305 -588l302 588h235l-435 -811l1 -554h-212l1 554zM166 1103h-158l-22 344h203z" />
    <glyph glyph-name="Omegatonos" unicode="&#x38f;" horiz-adv-x="1490" 
d="M180 1103h-158l-22 344h203zM856 310q151 20 233.5 131.5t82.5 296.5q0 292 -174 408q-92 62 -219 62q-147 0 -245 -80q-149 -122 -149 -389q0 -248 144 -360q72 -56 172 -69v-310h-538v182h368v19q-164 29 -268 177q-100 144 -100 381q0 289 167 459q170 172 449 172
q278 0 448 -172q167 -170 167 -459q0 -262 -123 -411q-101 -122 -245 -147v-19h368v-182h-538v310z" />
    <glyph glyph-name="iotadieresistonos" unicode="&#x390;" horiz-adv-x="495" 
d="M145 972h205v-972h-205v972zM-16 1391q51 0 87 -36.5t36 -87.5q0 -52 -36.5 -88.5t-87.5 -36.5q-52 0 -88.5 36.5t-36.5 87.5q0 53 36.5 89t89.5 36zM514 1391q51 0 87 -36.5t36 -87.5q0 -52 -36.5 -88.5t-87.5 -36.5q-52 0 -88.5 36.5t-36.5 87.5q0 53 36.5 89t89.5 36z
M326 1103h-157l-23 344h203z" />
    <glyph glyph-name="Alpha" unicode="&#x391;" horiz-adv-x="1198" 
d="M495 1369h205l467 -1369h-219l-101 320h-497l-103 -320h-217zM791 502l-193 614l-193 -614h386z" />
    <glyph glyph-name="Beta" unicode="&#x392;" horiz-adv-x="1168" 
d="M169 1365h312q227 0 325 -34q107 -36 163 -126q49 -78 49 -181q0 -115 -54 -186t-171 -107q298 -70 298 -343q0 -174 -116 -280q-74 -67 -173.5 -87.5t-349.5 -20.5h-283v1365zM377 798h120q152 0 219 33q93 45 93 168q0 126 -101 167q-61 25 -222 25h-109v-393zM377 174
h127q197 0 265 30q49 21 76.5 73.5t27.5 122.5q0 156 -127 203q-70 25 -239 25h-130v-454z" />
    <glyph glyph-name="Gamma" unicode="&#x393;" horiz-adv-x="1016" 
d="M169 0v1365h806v-182h-589v-1183h-217z" />
    <glyph glyph-name="uni0394" unicode="&#x394;" horiz-adv-x="1219" 
d="M30 0l471 1369h219l468 -1369h-1158zM904 182l-298 941l-297 -941h595z" />
    <glyph glyph-name="Epsilon" unicode="&#x395;" horiz-adv-x="1066" 
d="M380 798h548v-182h-548v-434h615v-182h-826v1365h808v-181h-597v-386z" />
    <glyph glyph-name="Zeta" unicode="&#x396;" horiz-adv-x="1018" 
d="M107 1365h860v-148l-664 -1035h647v-182h-896v165l657 1021h-604v179z" />
    <glyph glyph-name="Eta" unicode="&#x397;" horiz-adv-x="1350" 
d="M380 800h589v565h211v-1365h-211v625h-589v-625h-211v1365h211v-565z" />
    <glyph glyph-name="Theta" unicode="&#x398;" horiz-adv-x="1353" 
d="M677 1390q243 0 405 -172q183 -193 183 -535t-183 -536q-162 -172 -404 -172q-246 0 -407 172q-183 194 -183 546q0 104 24.5 212.5t66.5 184.5q87 163 244 242q116 58 254 58zM677 1208q-168 0 -261 -132q-106 -150 -106 -386q0 -250 106 -401q92 -132 261 -132
q168 0 260 132q106 151 106 394q0 246 -106 393q-95 132 -260 132zM453 770h446v-175h-446v175z" />
    <glyph glyph-name="Iota" unicode="&#x399;" horiz-adv-x="550" 
d="M381 0h-213v1365h213v-1365z" />
    <glyph glyph-name="Kappa" unicode="&#x39a;" horiz-adv-x="1214" 
d="M909 1365h247l-532 -639l575 -726h-276l-540 720zM169 1365h211v-1365h-211v1365z" />
    <glyph glyph-name="Lambda" unicode="&#x39b;" horiz-adv-x="1202" 
d="M1181 0h-226l-356 1123l-354 -1123h-222l471 1369h219z" />
    <glyph glyph-name="Mu" unicode="&#x39c;" horiz-adv-x="1619" 
d="M169 1365h303l337 -1137l339 1137h301v-1365h-194v1133l-339 -1133h-216l-337 1133v-1133h-194v1365z" />
    <glyph glyph-name="Nu" unicode="&#x39d;" horiz-adv-x="1368" 
d="M169 1365h227l602 -1043v1043h200v-1365h-218l-610 1041v-1041h-201v1365z" />
    <glyph glyph-name="Xi" unicode="&#x39e;" horiz-adv-x="1096" 
d="M138 616v182h821v-182h-821zM71 0v182h955v-182h-955zM89 1184v181h919v-181h-919z" />
    <glyph glyph-name="Omicron" unicode="&#x39f;" horiz-adv-x="1353" 
d="M677 1390q243 0 405 -172q183 -193 183 -535t-183 -536q-162 -172 -404 -172q-246 0 -407 172q-183 194 -183 546q0 104 24.5 212.5t66.5 184.5q87 163 244 242q116 58 254 58zM677 1208q-168 0 -261 -132q-106 -150 -106 -386q0 -250 106 -401q92 -132 261 -132
q168 0 260 132q106 151 106 394q0 246 -106 393q-95 132 -260 132z" />
    <glyph glyph-name="Pi" unicode="&#x3a0;" horiz-adv-x="1350" 
d="M380 1190v-1190h-211v1365h1011v-1365h-211v1190h-589z" />
    <glyph glyph-name="Rho" unicode="&#x3a1;" horiz-adv-x="1119" 
d="M169 1365h275q267 0 383 -39q127 -42 193 -158q55 -98 55 -224q0 -184 -111 -294q-70 -69 -171.5 -93.5t-321.5 -24.5h-91v-532h-211v1365zM380 714h90q175 0 246 20q66 19 103.5 75t37.5 135q0 156 -114 207q-75 33 -275 33h-88v-470z" />
    <glyph glyph-name="Sigma" unicode="&#x3a3;" horiz-adv-x="1000" 
d="M55 0v165l451 514l-403 538v148h870v-179l-590 -2l373 -505l-427 -497h644v-182h-918z" />
    <glyph glyph-name="Tau" unicode="&#x3a4;" horiz-adv-x="992" 
d="M33 1365h927v-181h-359v-1184h-211v1184h-357v181z" />
    <glyph glyph-name="Upsilon" unicode="&#x3a5;" horiz-adv-x="1103" 
d="M11 1365h239l305 -588l302 588h235l-435 -811l1 -554h-212l1 554z" />
    <glyph glyph-name="Phi" unicode="&#x3a6;" horiz-adv-x="1470" 
d="M834 286q62 0 119 18q246 76 246 361q0 194 -109 293q-44 39 -114.5 63.5t-141.5 24.5v-760zM634 286v760q-61 0 -119 -18q-140 -42 -197 -150q-49 -92 -49 -213q0 -285 246 -361q58 -18 119 -18zM834 1231q102 -1 195 -30q187 -60 286 -205q92 -135 92 -324
q0 -273 -182 -424q-161 -134 -391 -136v-112h-200v112q-102 1 -195 30q-187 60 -286 205q-92 135 -92 325q0 271 182 423q161 134 391 136v134h200v-134z" />
    <glyph glyph-name="Chi" unicode="&#x3a7;" horiz-adv-x="1157" 
d="M60 1365h242l279 -470l282 470h242l-402 -653l425 -712h-241l-306 519l-311 -519h-240l427 712z" />
    <glyph glyph-name="Psi" unicode="&#x3a8;" horiz-adv-x="1379" 
d="M798 265v-265h-213v265q-110 11 -205 52q-211 94 -255 289q-16 70 -16 247v512h211v-513q0 -144 14.5 -206.5t57.5 -109.5q62 -65 193 -89v918h213v-918q126 23 189 89q44 47 58 109t14 207v513h211v-512q0 -195 -22 -271q-56 -197 -289 -281q-72 -25 -161 -36z" />
    <glyph glyph-name="uni03A9" unicode="&#x3a9;" horiz-adv-x="1423" 
d="M789 310q151 19 234 131t83 297q0 292 -175 409q-92 61 -219 61q-147 0 -245 -80q-149 -122 -149 -389q0 -248 144 -360q72 -56 172 -69v-310h-538v182h368v19q-164 29 -268 177q-100 144 -100 381q0 289 167 459q170 172 448 172q280 0 449 -172q168 -170 168 -459
q0 -263 -124 -411q-101 -122 -244 -147v-19h368v-182h-539v310z" />
    <glyph glyph-name="Iotadieresis" unicode="&#x3aa;" horiz-adv-x="550" 
d="M382 0h-213v1365h213v-1365zM114 1767q52 0 89.5 -38t37.5 -91t-38 -91t-91 -38t-91 38t-38 91q0 54 38 91.5t93 37.5zM441 1767q52 0 89.5 -38t37.5 -91t-38 -91t-91 -38t-91 38t-38 91q0 54 38 91.5t93 37.5z" />
    <glyph glyph-name="Upsilondieresis" unicode="&#x3ab;" horiz-adv-x="1103" 
d="M366 1774q55 0 94 -39.5t39 -95.5q0 -55 -39.5 -94.5t-94.5 -39.5q-56 0 -95.5 39.5t-39.5 94.5q0 57 39.5 96t96.5 39zM740 1774q55 0 94 -39.5t39 -95.5q0 -55 -39.5 -94.5t-94.5 -39.5q-56 0 -95.5 39.5t-39.5 94.5q0 57 39.5 96t96.5 39zM11 1365h239l305 -588
l302 588h235l-435 -811l1 -554h-212l1 554z" />
    <glyph glyph-name="alphatonos" unicode="&#x3ac;" horiz-adv-x="1168" 
d="M840 736l42 237h204l-135 -479l155 -493h-199l-59 256q-112 -282 -352 -282q-169 0 -280 117q-137 146 -137 393q0 249 141 398q110 116 275 116q124 0 205 -62t140 -201zM767 483q-48 160 -97 239q-69 113 -170 113q-96 0 -151 -89q-64 -102 -64 -261q0 -158 65 -259
q56 -87 149 -87q88 0 149 78t119 266zM662 1103h-157l-23 344h203z" />
    <glyph glyph-name="epsilontonos" unicode="&#x3ad;" horiz-adv-x="945" 
d="M551 1103h-158l-22 344h203zM657 667q-31 168 -183 168q-75 0 -120 -36.5t-45 -97.5q0 -75 61 -110q57 -33 122 -30h8l47 2v-159h-39q-227 1 -227 -137q0 -58 46.5 -92t126.5 -34q93 0 143 42t69 137l196 -14q-15 -126 -96 -218q-103 -115 -308 -115q-176 0 -280 79
q-103 79 -103 204q0 184 223 230q-195 59 -195 233q0 128 100 204t268 76q211 0 315 -142q53 -73 68 -176z" />
    <glyph glyph-name="etatonos" unicode="&#x3ae;" horiz-adv-x="1080" 
d="M118 972h194q19 -52 20 -132q104 154 293 154q114 0 196 -57q98 -69 114 -203q6 -49 6 -174v-963h-201v929q0 150 -24 202q-41 88 -151 88q-125 0 -185 -106q-35 -61 -35 -191v-519h-201v632q0 173 -3.5 218.5t-22.5 121.5zM619 1103h-158l-22 344h203z" />
    <glyph glyph-name="iotatonos" unicode="&#x3af;" horiz-adv-x="495" 
d="M145 972h205v-972h-205v972zM327 1103h-158l-23 344h203z" />
    <glyph glyph-name="upsilondieresistonos" unicode="&#x3b0;" horiz-adv-x="1076" 
d="M937 972v-580q0 -123 -22 -193.5t-77 -125.5q-102 -101 -300 -101t-299 101q-56 55 -78 125.5t-22 193.5v580h201v-594q0 -112 36 -162q55 -78 162 -78q119 0 171 92q27 47 27 148v594h201zM274 1391q51 0 87 -36.5t36 -87.5q0 -52 -36.5 -88.5t-87.5 -36.5
q-52 0 -88.5 36.5t-36.5 87.5q0 53 36.5 89t89.5 36zM804 1391q51 0 87 -36.5t36 -87.5q0 -52 -36.5 -88.5t-87.5 -36.5q-52 0 -88.5 36.5t-36.5 87.5q0 53 36.5 89t89.5 36zM617 1103h-158l-22 344h202z" />
    <glyph glyph-name="alpha" unicode="&#x3b1;" horiz-adv-x="1168" 
d="M840 736l42 237h204l-135 -479l155 -493h-199l-59 256q-112 -282 -352 -282q-169 0 -280 117q-137 146 -137 393q0 249 141 398q110 116 275 116q124 0 205 -62t140 -201zM767 483q-48 160 -97 239q-69 113 -170 113q-96 0 -151 -89q-64 -102 -64 -261q0 -158 65 -259
q56 -87 149 -87q88 0 149 78t119 266z" />
    <glyph glyph-name="beta" unicode="&#x3b2;" horiz-adv-x="1084" 
d="M145 -403l-1 1317v22q0 113 16 179t58 125q113 159 353 159q178 0 281.5 -96t103.5 -260q0 -125 -60.5 -202.5t-181.5 -106.5q105 -22 163 -62q133 -92 133 -286q0 -199 -124 -315q-99 -93 -253 -93q-98 0 -163.5 32t-123.5 109v-522h-201zM516 808h29q93 0 149 59
t56 158q0 109 -61 163q-54 48 -139 48q-118 0 -174 -94q-30 -50 -30 -181v-517q0 -126 53 -199q70 -96 193 -96q113 0 166 83q44 68 44 169q0 123 -66.5 186t-194.5 62h-25v159z" />
    <glyph glyph-name="gamma" unicode="&#x3b3;" horiz-adv-x="948" 
d="M373 -5l-357 977h211l247 -752l247 752h210l-357 -977v-398h-201v398z" />
    <glyph glyph-name="delta" unicode="&#x3b4;" horiz-adv-x="1066" 
d="M465 976l-277 247v150h699v-166h-410l254 -224q121 -108 177 -197q79 -127 79 -298q0 -252 -151 -396q-124 -119 -303 -119q-178 0 -303 119q-151 144 -151 395q0 244 149 385q98 94 237 104zM533 836q-108 0 -173 -89q-75 -101 -75 -257q0 -163 75 -264q65 -88 173 -88
q109 0 173 88q75 102 75 260q0 161 -75 261q-65 89 -173 89z" />
    <glyph glyph-name="epsilon" unicode="&#x3b5;" horiz-adv-x="945" 
d="M657 667q-31 168 -183 168q-75 0 -120 -36.5t-45 -97.5q0 -75 61 -110q57 -33 122 -30h8l47 2v-159h-39q-227 1 -227 -137q0 -58 46.5 -92t126.5 -34q93 0 143 42t69 137l196 -14q-15 -126 -96 -218q-103 -115 -308 -115q-176 0 -280 79q-103 79 -103 204q0 184 223 230
q-195 59 -195 233q0 128 100 204t268 76q211 0 315 -142q53 -73 68 -176z" />
    <glyph glyph-name="zeta" unicode="&#x3b6;" horiz-adv-x="832" 
d="M570 1207h-421v166h696v-146q-183 -133 -277 -218t-162 -180q-124 -172 -124 -351q0 -194 96 -285q38 -37 77.5 -51.5t150.5 -33.5q115 -20 156 -45q59 -35 59 -114q0 -53 -26 -132q-19 -56 -64 -141q-29 -54 -42 -81h-189q26 55 65 120q60 100 60 157q0 48 -16.5 61.5
t-90.5 25.5q-160 26 -243 83q-92 63 -144 174.5t-52 246.5q0 289 238 531q107 109 253 213z" />
    <glyph glyph-name="eta" unicode="&#x3b7;" horiz-adv-x="1080" 
d="M118 972h194q19 -52 20 -132q104 154 293 154q114 0 196 -57q98 -69 114 -203q6 -49 6 -174v-963h-201v929q0 150 -24 202q-41 88 -151 88q-125 0 -185 -106q-35 -61 -35 -191v-519h-201v632q0 173 -3.5 218.5t-22.5 121.5z" />
    <glyph glyph-name="theta" unicode="&#x3b8;" horiz-adv-x="1066" 
d="M287 761h492q-10 154 -44 261q-69 215 -205 215q-99 0 -164.5 -128t-78.5 -348zM778 602h-490q8 -145 43 -250q69 -213 202 -213q100 0 166 124.5t79 338.5zM533 1401q117 0 221 -81q114 -90 175 -266q58 -165 58 -370q0 -340 -151 -548q-55 -77 -136 -121.5t-166 -44.5
q-118 0 -222 80q-113 89 -175 265q-58 164 -58 379q0 159 39.5 301t111.5 239q60 83 149 129q73 38 154 38z" />
    <glyph glyph-name="iota" unicode="&#x3b9;" horiz-adv-x="495" 
d="M145 972h205v-972h-205v972z" />
    <glyph glyph-name="kappa" unicode="&#x3ba;" horiz-adv-x="1046" 
d="M731 972h243l-384 -445l415 -527h-272l-383 523zM145 972h201v-972h-201v972z" />
    <glyph glyph-name="lambda" unicode="&#x3bb;" horiz-adv-x="948" 
d="M378 1017l-122 356h205l128 -373l341 -1000h-214l-239 773l-247 -773h-210z" />
    <glyph glyph-name="uni03BC" unicode="&#x3bc;" horiz-adv-x="1082" 
d="M340 3v-406h-201v1375h201v-573q0 -129 34 -176q47 -67 149 -67q120 0 178 99q35 61 35 183v534h201v-674q0 -162 3 -200.5t21 -97.5h-193q-16 48 -20 120q-91 -142 -267 -142q-73 0 -141 25z" />
    <glyph glyph-name="nu" unicode="&#x3bd;" horiz-adv-x="961" 
d="M21 972h212l246 -752l247 752h210l-345 -980h-225z" />
    <glyph glyph-name="xi" unicode="&#x3be;" horiz-adv-x="832" 
d="M788 1227q-140 1 -205 -12q-88 -17 -139 -63q-54 -49 -54 -123q0 -76 71 -118t205 -44v-166q-134 -1 -179 -7.5t-87 -32.5q-113 -68 -113 -243q0 -172 116 -249q38 -26 70 -36t133 -27q115 -20 156 -44q59 -36 59 -115q0 -110 -101 -302h-189q93 182 93 251q0 30 -20 42
t-85 21q-150 22 -246 84q-188 121 -188 381q0 149 74.5 249t207.5 129q-177 65 -177 209q0 123 118 196h-216v166h696v-146z" />
    <glyph glyph-name="omicron" unicode="&#x3bf;" horiz-adv-x="1066" 
d="M533 999q178 0 303 -120q71 -67 108 -164q43 -109 43 -230q0 -172 -77 -301q-69 -115 -190 -170q-89 -41 -186 -41q-180 0 -304 119q-151 144 -151 400q0 164 77 295q68 115 190 171q89 41 187 41zM533 835q-108 0 -173 -89q-75 -101 -75 -256q0 -164 75 -264
q65 -88 173 -88q109 0 173 88q75 101 75 259q0 161 -75 261q-66 89 -173 89z" />
    <glyph glyph-name="pi" unicode="&#x3c0;" horiz-adv-x="1097" 
d="M733 813h-340v-813h-201v813h-137v159h1015v-159h-136v-813h-201v813z" />
    <glyph glyph-name="rho" unicode="&#x3c1;" horiz-adv-x="1072" 
d="M134 -403v848q0 109 9.5 174t34.5 125q59 142 187 207q92 47 215 47q165 0 265 -99q148 -148 148 -410q0 -272 -156 -419q-97 -92 -234 -92q-86 0 -149 33t-119 108v-522h-201zM565 836q-96 0 -153 -70q-81 -101 -81 -278q0 -168 76 -261q63 -78 158 -78q94 0 145 66
q77 100 77 277q0 176 -78 277q-51 67 -144 67z" />
    <glyph glyph-name="uni03C2" unicode="&#x3c2;" horiz-adv-x="955" 
d="M900 651h-198q-16 96 -59.5 140t-123.5 44q-100 0 -158 -78q-76 -102 -76 -272q0 -201 96 -293q39 -37 78 -51.5t150 -33.5q116 -19 157 -44q59 -36 59 -115q0 -55 -33 -148t-91 -203h-189q116 224 116 297q0 29 -20 41.5t-86 22.5q-160 27 -243 83q-98 67 -149 182
q-51 116 -51 269q0 167 74 297q119 210 370 210q163 0 260 -89.5t117 -258.5z" />
    <glyph glyph-name="sigma" unicode="&#x3c3;" horiz-adv-x="1084" 
d="M1049 972v-166q-28 -1 -42 -1q-42 0 -128 5q108 -125 108 -325q0 -172 -77 -301q-69 -115 -190 -170q-89 -41 -187 -41q-179 0 -303 119q-71 68 -109 163q-42 109 -42 230q0 197 99 335q129 179 377 179q47 0 161 -14q77 -10 112.5 -11.5t220.5 -1.5zM533 835
q-108 0 -173 -89q-75 -101 -75 -256q0 -164 75 -264q65 -88 173 -88q109 0 173 88q75 101 75 259q0 161 -75 261q-66 89 -173 89z" />
    <glyph glyph-name="tau" unicode="&#x3c4;" horiz-adv-x="781" 
d="M491 0h-201v813h-283v159h767v-159h-283v-813z" />
    <glyph glyph-name="upsilon" unicode="&#x3c5;" horiz-adv-x="1076" 
d="M937 972v-580q0 -123 -22 -193.5t-77 -125.5q-102 -101 -300 -101t-299 101q-56 55 -78 125.5t-22 193.5v580h201v-594q0 -112 36 -162q55 -78 162 -78q119 0 171 92q27 47 27 148v594h201z" />
    <glyph glyph-name="phi" unicode="&#x3c6;" horiz-adv-x="1258" 
d="M530 132v868q50 6 77 6h34h34q163 0 290 -82q98 -63 153 -172q60 -120 60 -267q0 -218 -125.5 -361t-324.5 -150v-377h-198v377q-130 5 -237 74q-99 64 -153 171q-60 120 -60 271q0 287 227 442l92 -111q-120 -127 -120 -333q0 -218 127 -312q53 -39 124 -44zM728 842
v-710q82 6 141 58q110 97 110 295q0 153 -68.5 250.5t-182.5 106.5z" />
    <glyph glyph-name="chi" unicode="&#x3c7;" horiz-adv-x="906" 
d="M551 347l368 -750h-230l-244 528l-242 -528h-217l362 734l-313 641h231l188 -428l194 428h211z" />
    <glyph glyph-name="psi" unicode="&#x3c8;" horiz-adv-x="1265" 
d="M733 965v-823q97 9 146 68t49 168v594h198v-587q0 -122 -27.5 -191.5t-95.5 -122.5q-100 -78 -270 -95v-379h-201v379q-170 17 -270 95q-68 53 -95.5 122.5t-27.5 191.5v587h198v-594q0 -65 10.5 -100.5t38.5 -67.5q54 -60 146 -68v823h201z" />
    <glyph glyph-name="omega" unicode="&#x3c9;" horiz-adv-x="1240" 
d="M299 970l101 -153q-58 -49 -82 -116q-33 -93 -33 -234q0 -153 34.5 -241.5t94.5 -88.5q49 0 76 56t27 157v229h205v-229q0 -101 27 -157t76 -56q60 0 94.5 88.5t34.5 242.5q0 168 -43 267q-19 42 -64 80l82 167q72 -52 103.5 -89t60.5 -101q67 -149 67 -331
q0 -204 -83 -343q-40 -67 -106.5 -106t-138.5 -39q-78 0 -129.5 35t-82.5 108q-14 -32 -28 -54q-26 -41 -76 -65t-109 -24q-149 0 -238.5 135.5t-89.5 361.5q0 279 141 431q27 29 79 69z" />
    <glyph glyph-name="iotadieresis" unicode="&#x3ca;" horiz-adv-x="495" 
d="M145 972h205v-972h-205v972zM95 1387q49 0 84 -35.5t35 -85.5t-35 -85t-85 -35t-85.5 35t-35.5 85q0 51 35.5 86t86.5 35zM404 1387q49 0 84 -35.5t35 -85.5q0 -49 -35 -84.5t-85 -35.5t-85.5 35.5t-35.5 84.5q0 51 35.5 86t86.5 35z" />
    <glyph glyph-name="upsilondieresis" unicode="&#x3cb;" horiz-adv-x="1076" 
d="M937 972v-580q0 -123 -22 -193.5t-77 -125.5q-102 -101 -300 -101t-299 101q-56 55 -78 125.5t-22 193.5v580h201v-594q0 -112 36 -162q55 -78 162 -78q119 0 171 92q27 47 27 148v594h201zM362 1391q51 0 87 -36.5t36 -87.5q0 -52 -36.5 -88.5t-87.5 -36.5
q-52 0 -88.5 36.5t-36.5 87.5q0 53 36.5 89t89.5 36zM716 1391q51 0 87 -36.5t36 -87.5q0 -52 -36.5 -88.5t-87.5 -36.5q-52 0 -88.5 36.5t-36.5 87.5q0 53 36.5 89t89.5 36z" />
    <glyph glyph-name="omicrontonos" unicode="&#x3cc;" horiz-adv-x="1066" 
d="M533 999q178 0 303 -120q71 -67 108 -164q43 -109 43 -230q0 -172 -77 -301q-69 -115 -190 -170q-89 -41 -186 -41q-180 0 -304 119q-151 144 -151 400q0 164 77 295q68 115 190 171q89 41 187 41zM533 835q-108 0 -173 -89q-75 -101 -75 -256q0 -164 75 -264
q65 -88 173 -88q109 0 173 88q75 101 75 259q0 161 -75 261q-66 89 -173 89zM612 1103h-158l-22 344h202z" />
    <glyph glyph-name="upsilontonos" unicode="&#x3cd;" horiz-adv-x="1076" 
d="M937 972v-580q0 -123 -22 -193.5t-77 -125.5q-102 -101 -300 -101t-299 101q-56 55 -78 125.5t-22 193.5v580h201v-594q0 -112 36 -162q55 -78 162 -78q119 0 171 92q27 47 27 148v594h201zM617 1103h-158l-22 344h202z" />
    <glyph glyph-name="omegatonos" unicode="&#x3ce;" horiz-adv-x="1240" 
d="M700 1103h-158l-22 344h202zM299 970l101 -153q-58 -49 -82 -116q-33 -93 -33 -234q0 -153 34.5 -241.5t94.5 -88.5q49 0 76 56t27 157v229h205v-229q0 -101 27 -157t76 -56q60 0 94.5 88.5t34.5 242.5q0 168 -43 267q-19 42 -64 80l82 167q72 -52 103.5 -89t60.5 -101
q67 -149 67 -331q0 -204 -83 -343q-40 -67 -106.5 -106t-138.5 -39q-78 0 -129.5 35t-82.5 108q-14 -32 -28 -54q-26 -41 -76 -65t-109 -24q-149 0 -238.5 135.5t-89.5 361.5q0 279 141 431q27 29 79 69z" />
    <glyph glyph-name="theta1" unicode="&#x3d1;" horiz-adv-x="1126" 
d="M18 525h358v-227q0 -78 37 -119.5t106 -41.5q157 0 225 242q39 142 39 398q-151 0 -204 5t-118 27q-108 35 -169 117t-61 192q0 128 86.5 206t229.5 78q350 0 428 -466h110v-159l-98 -1q2 -19 2 -50q0 -315 -99 -510q-123 -245 -370 -245q-169 0 -257.5 88.5t-87.5 254.5
l1 29h-158v182zM768 936q-20 120 -48 184q-53 120 -156 120q-55 0 -90.5 -37t-35.5 -95q0 -90 78.5 -131t251.5 -41z" />
    <glyph glyph-name="Upsilon1" unicode="&#x3d2;" horiz-adv-x="1108" 
d="M554 769q24 156 116 301q123 196 324 321l120 -152q-220 -162 -318 -327q-136 -230 -136 -522v-390h-212v390q0 292 -136 522q-98 165 -319 327l120 152q177 -110 294.5 -276t146.5 -346z" />
    <glyph glyph-name="phi1" unicode="&#x3d5;" horiz-adv-x="1258" 
d="M728 -403h-198v377q-130 5 -237 74q-98 63 -153 171q-60 119 -60 266q0 219 125.5 362.5t324.5 151.5v374h198v-374q130 -5 237 -75q98 -64 153 -172q60 -119 60 -267q0 -218 -125.5 -361t-324.5 -150v-377zM530 841q-81 -5 -141 -58q-110 -97 -110 -298
q0 -152 68.5 -248.5t182.5 -104.5v709zM728 841v-709q82 6 141 57q110 98 110 296q0 153 -68.5 250.5t-182.5 105.5z" />
    <glyph glyph-name="uni0400" unicode="&#x400;" horiz-adv-x="1066" 
d="M704 1492h-157l-343 308h262zM380 798h548v-182h-548v-434h615v-182h-826v1365h808v-181h-597v-386z" />
    <glyph glyph-name="afii10023" unicode="&#x401;" horiz-adv-x="1066" 
d="M380 798h548v-182h-548v-434h615v-182h-826v1365h808v-181h-597v-386zM390 1774q55 0 94 -39.5t39 -94.5q0 -56 -39.5 -95.5t-94.5 -39.5q-56 0 -95.5 39.5t-39.5 94.5q0 57 39.5 96t96.5 39zM763 1774q55 0 94 -39.5t39 -94.5q0 -56 -39.5 -95.5t-94.5 -39.5
q-56 0 -95.5 39.5t-39.5 94.5q0 57 39.5 96t96.5 39z" />
    <glyph glyph-name="afii10051" unicode="&#x402;" horiz-adv-x="1375" 
d="M520 806q134 90 328 90q239 0 338 -162q49 -80 49 -236v-486l1 -52q0 -92 -73 -184q-62 -78 -141.5 -110t-212.5 -32q-14 0 -48 1v174q24 -1 32 -1q123 0 176 44.5t53 147.5v422q0 150 -36 207q-29 48 -74 68.5t-119 20.5q-182 0 -273 -100v-618h-213v1184h-274v181h927
v-181h-440v-378z" />
    <glyph glyph-name="afii10052" unicode="&#x403;" horiz-adv-x="1016" 
d="M169 0v1365h806v-182h-589v-1183h-217zM390 1486l313 308h262l-381 -308h-194z" />
    <glyph glyph-name="afii10053" unicode="&#x404;" horiz-adv-x="1241" 
d="M314 770h449v-175h-449q11 -138 62 -239q98 -197 298 -197q262 0 293 327l191 -28q-8 -151 -78 -271q-123 -212 -399 -212q-247 0 -406 164q-187 192 -187 540q0 377 209 569q155 142 375 142q196 0 316 -104.5t148 -299.5l-184 -34q-49 254 -281 254q-211 0 -307 -222
q-37 -85 -50 -214z" />
    <glyph glyph-name="afii10054" unicode="&#x405;" horiz-adv-x="1140" 
d="M1009 987h-204q-7 87 -52 141q-66 78 -191 78q-89 0 -150 -43q-72 -52 -72 -133q0 -75 76 -122q47 -29 232 -107q148 -62 210.5 -97t101.5 -78q88 -96 88 -245q0 -201 -152 -315q-121 -91 -316 -91q-232 0 -359 119.5t-138 347.5h205q11 -128 70 -194q79 -89 226 -89
q108 0 179 53q68 51 68 134q0 88 -89 149q-48 33 -224 108q-209 90 -281 156q-109 102 -109 252q0 190 151 294q122 85 290 85q248 0 369 -169q63 -87 71 -234z" />
    <glyph glyph-name="afii10055" unicode="&#x406;" horiz-adv-x="550" 
d="M381 0h-213v1365h213v-1365z" />
    <glyph glyph-name="afii10056" unicode="&#x407;" horiz-adv-x="550" 
d="M382 0h-213v1365h213v-1365zM114 1767q52 0 89.5 -38t37.5 -91t-38 -91t-91 -38t-91 38t-38 91q0 54 38 91.5t93 37.5zM441 1767q52 0 89.5 -38t37.5 -91t-38 -91t-91 -38t-91 38t-38 91q0 54 38 91.5t93 37.5z" />
    <glyph glyph-name="afii10057" unicode="&#x408;" horiz-adv-x="641" 
d="M264 1365h213v-1089q0 -170 -7.5 -230.5t-34.5 -112.5q-85 -164 -378 -164q-17 0 -63 2v178q101 -1 154 12.5t81 45.5q23 27 29 73t6 194v1091z" />
    <glyph glyph-name="afii10058" unicode="&#x409;" horiz-adv-x="1814" 
d="M1076 833h64q267 0 383 -39q126 -42 193 -158q55 -98 55 -224q0 -184 -111 -294q-70 -70 -171 -94t-322 -24h-303l1 1190h-363l-74 -822q-12 -131 -20 -161q-61 -216 -353 -209v175q86 0 126 49t49 166l79 977h767v-532zM1076 182h90q175 0 246 20q66 19 103.5 75
t37.5 135q0 156 -115 207q-74 33 -274 33h-88v-470z" />
    <glyph glyph-name="afii10059" unicode="&#x40a;" horiz-adv-x="1920" 
d="M969 814v551h212v-551h64q267 0 383 -38q126 -41 192 -155q56 -96 56 -219q0 -179 -111 -287q-70 -68 -171 -91.5t-322 -23.5h-303v639h-589v-639h-211v1365h211v-551h589zM1181 182h90q175 0 246 20q66 18 103.5 72.5t37.5 131.5q0 151 -115 201q-74 32 -274 32h-88
v-457z" />
    <glyph glyph-name="afii10060" unicode="&#x40b;" horiz-adv-x="1374" 
d="M1022 0v422q0 150 -36 207q-29 48 -74.5 68.5t-118.5 20.5q-182 0 -273 -100v-618h-213v1184h-274v181h927v-181h-440v-378q134 90 328 90q240 0 339 -162q48 -80 48 -236l1 -498h-214z" />
    <glyph glyph-name="afii10061" unicode="&#x40c;" horiz-adv-x="1214" 
d="M909 1365h247l-532 -639l575 -726h-276l-540 720zM169 1365h211v-1365h-211v1365zM488 1486l314 308h261l-380 -308h-195z" />
    <glyph glyph-name="uni040D" unicode="&#x40d;" horiz-adv-x="1368" 
d="M169 0v1365h201v-990l628 893v97h200v-1365h-200v989l-628 -892v-97h-201zM800 1506h-157l-342 309h261z" />
    <glyph glyph-name="afii10062" unicode="&#x40e;" horiz-adv-x="1092" 
d="M255 1781h90q67 -151 202 -151q134 0 200 151h90q-11 -95 -57 -161q-85 -122 -233 -122q-117 0 -197 77.5t-95 205.5zM11 1365h239l301 -720l314 720h227l-647 -1365h-223l216 422z" />
    <glyph glyph-name="afii10145" unicode="&#x40f;" horiz-adv-x="1350" 
d="M780 0v-208h-211v208h-400v1365h211v-1190h589v1190h211v-1365h-400z" />
    <glyph glyph-name="afii10017" unicode="&#x410;" horiz-adv-x="1198" 
d="M495 1369h205l467 -1369h-219l-101 320h-497l-103 -320h-217zM791 502l-193 614l-193 -614h386z" />
    <glyph glyph-name="afii10018" unicode="&#x411;" horiz-adv-x="1130" 
d="M380 1183v-350h64q267 0 384 -39q126 -42 193 -158q55 -98 55 -224q0 -184 -111 -294q-70 -70 -171 -94t-323 -24h-303v1365h738v-182h-526zM380 182h90q175 0 247 20q66 19 103.5 75t37.5 135q0 74 -30.5 128.5t-84.5 78.5q-74 33 -275 33h-88v-470z" />
    <glyph glyph-name="afii10019" unicode="&#x412;" horiz-adv-x="1168" 
d="M169 1365h312q227 0 325 -34q107 -36 163 -126q49 -78 49 -181q0 -115 -54 -186t-171 -107q298 -70 298 -343q0 -174 -116 -280q-74 -67 -173.5 -87.5t-349.5 -20.5h-283v1365zM377 798h120q152 0 219 33q93 45 93 168q0 126 -101 167q-61 25 -222 25h-109v-393zM377 174
h127q197 0 265 30q49 21 76.5 73.5t27.5 122.5q0 156 -127 203q-70 25 -239 25h-130v-454z" />
    <glyph glyph-name="afii10020" unicode="&#x413;" horiz-adv-x="1016" 
d="M169 0v1365h806v-182h-589v-1183h-217z" />
    <glyph glyph-name="afii10021" unicode="&#x414;" horiz-adv-x="1252" 
d="M1071 1365v-1190h147v-383h-211v208h-776v-208h-211v383h48q140 0 157 213l78 977h768zM860 1190h-363l-75 -822q-11 -140 -46 -193h484v1015z" />
    <glyph glyph-name="afii10022" unicode="&#x415;" horiz-adv-x="1066" 
d="M380 798h548v-182h-548v-434h615v-182h-826v1365h808v-181h-597v-386z" />
    <glyph glyph-name="afii10024" unicode="&#x416;" horiz-adv-x="1723" 
d="M756 1365h211v-565h85l421 565h239l-491 -652l529 -713h-243l-457 625h-83v-625h-211v625h-83l-457 -625h-243l529 713l-491 652h239l421 -565h85v565z" />
    <glyph glyph-name="afii10025" unicode="&#x417;" horiz-adv-x="1153" 
d="M288 958l-187 17q17 161 106 266q128 149 385 149q182 0 288 -75q149 -104 149 -299q0 -130 -64 -215.5t-181 -112.5q85 -21 136 -63q110 -92 110 -249q0 -180 -132 -297q-118 -104 -318 -104q-177 0 -282 66q-124 77 -176 217q-24 65 -41 199l190 29q32 -327 291 -327
q116 0 182 73q63 69 63 160q0 89 -60 148q-56 55 -174 55h-97v175h97q95 0 158 50q75 61 75 171q0 101 -61.5 158t-170.5 57q-237 0 -286 -248z" />
    <glyph glyph-name="afii10026" unicode="&#x418;" horiz-adv-x="1368" 
d="M169 0v1365h201v-990l628 893v97h200v-1365h-200v989l-628 -892v-97h-201z" />
    <glyph glyph-name="afii10027" unicode="&#x419;" horiz-adv-x="1368" 
d="M393 1781h89q67 -151 202 -151q134 0 200 151h90q-11 -95 -57 -161q-85 -122 -232 -122q-117 0 -197.5 77.5t-94.5 205.5zM169 0v1365h201v-990l628 893v97h200v-1365h-200v989l-628 -892v-97h-201z" />
    <glyph glyph-name="afii10028" unicode="&#x41a;" horiz-adv-x="1214" 
d="M909 1365h247l-532 -639l575 -726h-276l-540 720zM169 1365h211v-1365h-211v1365z" />
    <glyph glyph-name="afii10029" unicode="&#x41b;" horiz-adv-x="1245" 
d="M1076 1365v-1365h-211v1190h-362l-75 -822q-12 -131 -20 -162q-61 -215 -353 -208v175q86 -1 126 48.5t49 166.5l79 977h767z" />
    <glyph glyph-name="afii10030" unicode="&#x41c;" horiz-adv-x="1619" 
d="M169 1365h303l337 -1137l339 1137h301v-1365h-194v1133l-339 -1133h-216l-337 1133v-1133h-194v1365z" />
    <glyph glyph-name="afii10031" unicode="&#x41d;" horiz-adv-x="1350" 
d="M380 800h589v565h211v-1365h-211v625h-589v-625h-211v1365h211v-565z" />
    <glyph glyph-name="afii10032" unicode="&#x41e;" horiz-adv-x="1353" 
d="M677 1390q243 0 405 -172q183 -193 183 -535t-183 -536q-162 -172 -404 -172q-246 0 -407 172q-183 194 -183 546q0 104 24.5 212.5t66.5 184.5q87 163 244 242q116 58 254 58zM677 1208q-168 0 -261 -132q-106 -150 -106 -386q0 -250 106 -401q92 -132 261 -132
q168 0 260 132q106 151 106 394q0 246 -106 393q-95 132 -260 132z" />
    <glyph glyph-name="afii10033" unicode="&#x41f;" horiz-adv-x="1350" 
d="M380 1190v-1190h-211v1365h1011v-1365h-211v1190h-589z" />
    <glyph glyph-name="afii10034" unicode="&#x420;" horiz-adv-x="1119" 
d="M169 1365h275q267 0 383 -39q127 -42 193 -158q55 -98 55 -224q0 -184 -111 -294q-70 -69 -171.5 -93.5t-321.5 -24.5h-91v-532h-211v1365zM380 714h90q175 0 246 20q66 19 103.5 75t37.5 135q0 156 -114 207q-75 33 -275 33h-88v-470z" />
    <glyph glyph-name="afii10035" unicode="&#x421;" horiz-adv-x="1230" 
d="M1139 952h-187q-49 254 -281 254q-163 0 -258 -133q-103 -147 -103 -392q0 -246 107 -394q93 -128 256 -128q263 0 294 328h192q-11 -184 -79 -300q-124 -212 -399 -212q-247 0 -406 164q-187 192 -187 540q0 377 209 569q155 142 375 142q204 0 326 -114t141 -324z" />
    <glyph glyph-name="afii10036" unicode="&#x422;" horiz-adv-x="992" 
d="M33 1365h927v-181h-359v-1184h-211v1184h-357v181z" />
    <glyph glyph-name="afii10037" unicode="&#x423;" horiz-adv-x="1092" 
d="M11 1365h239l301 -720l314 720h227l-647 -1365h-223l216 422z" />
    <glyph glyph-name="afii10038" unicode="&#x424;" horiz-adv-x="1470" 
d="M834 112v-112h-200v112q-175 1 -317 86q-123 73 -187 192q-69 128 -69 293q0 221 119 367q78 95 197 148.5t257 54.5v112h200v-112q175 -1 317 -86q123 -73 187 -192q69 -128 69 -292q0 -222 -119 -368q-78 -95 -197 -148.5t-257 -54.5zM634 281v803q-116 -1 -206 -60
q-159 -104 -159 -341q0 -181 99.5 -290.5t265.5 -111.5zM834 281q116 1 206 60q159 104 159 342q0 181 -99.5 290t-265.5 111v-803z" />
    <glyph glyph-name="afii10039" unicode="&#x425;" horiz-adv-x="1157" 
d="M60 1365h242l279 -470l282 470h242l-402 -653l425 -712h-241l-306 519l-311 -519h-240l427 712z" />
    <glyph glyph-name="afii10040" unicode="&#x426;" horiz-adv-x="1362" 
d="M1180 175h147v-383h-211v208h-947v1365h211v-1190h589v1190h211v-1190z" />
    <glyph glyph-name="afii10041" unicode="&#x427;" horiz-adv-x="1219" 
d="M838 558q-133 -89 -328 -89q-240 0 -338 162q-49 80 -49 236v498h213v-422q0 -150 36 -207q30 -48 75 -68.5t118 -20.5q182 0 273 100v618h213v-1365h-213v558z" />
    <glyph glyph-name="afii10042" unicode="&#x428;" horiz-adv-x="1890" 
d="M1050 175h459v1190h211v-1365h-1551v1365h211v-1190h459v1190h211v-1190z" />
    <glyph glyph-name="afii10043" unicode="&#x429;" horiz-adv-x="1902" 
d="M1656 0h-1487v1365h211v-1190h459v1190h211v-1190h459v1190h211v-1190h147v-383h-211v208z" />
    <glyph glyph-name="afii10044" unicode="&#x42a;" horiz-adv-x="1318" 
d="M0 1365h579v-532h64q266 0 383 -39q126 -42 193 -158q55 -98 55 -224q0 -184 -111 -294q-70 -70 -171 -94t-322 -24h-303v1183h-367v182zM579 182h90q175 0 246 20q66 19 103.5 75t37.5 135q0 156 -114 207q-75 33 -275 33h-88v-470z" />
    <glyph glyph-name="afii10045" unicode="&#x42b;" horiz-adv-x="1614" 
d="M380 833h64q267 0 383 -39q126 -41 193 -158q55 -98 55 -224q0 -184 -111 -294q-70 -70 -171 -94t-322 -24h-303v1365h212v-532zM380 182h90q175 0 246 20q66 19 103.5 75t37.5 135q0 156 -114 207q-75 33 -275 33h-88v-470zM1445 0h-213v1365h213v-1365z" />
    <glyph glyph-name="afii10046" unicode="&#x42c;" horiz-adv-x="1119" 
d="M380 833h64q267 0 383 -39q126 -41 193 -158q55 -98 55 -224q0 -184 -111 -294q-70 -70 -171 -94t-322 -24h-303v1365h212v-532zM380 182h90q175 0 246 20q66 19 103.5 75t37.5 135q0 156 -114 207q-75 33 -275 33h-88v-470z" />
    <glyph glyph-name="afii10047" unicode="&#x42d;" horiz-adv-x="1241" 
d="M927 770q-15 149 -64 245q-99 191 -293 191q-232 0 -281 -254l-184 34q30 157 80 226q61 85 161.5 131.5t222.5 46.5q220 0 375 -142q209 -192 209 -569q0 -348 -187 -540q-160 -164 -406 -164q-300 0 -418 247q-46 95 -58 230l190 34q30 -327 293 -327q220 0 315 234
q36 88 45 202h-449v175h449z" />
    <glyph glyph-name="afii10048" unicode="&#x42e;" horiz-adv-x="1833" 
d="M574 800q24 203 110 335q85 130 218 197q116 58 253 58q244 0 406 -172q183 -194 183 -536q0 -341 -183 -535q-162 -172 -406 -172q-189 0 -334 108q-230 172 -253 542h-188v-625h-211v1365h211v-565h194zM1156 1208q-168 0 -261 -132q-106 -150 -106 -387
q0 -250 106 -400q92 -132 261 -132q168 0 260 132q106 151 106 393q0 247 -106 394q-95 132 -260 132z" />
    <glyph glyph-name="afii10049" unicode="&#x42f;" horiz-adv-x="1192" 
d="M1023 1365v-1365h-211v550h-210l-311 -550h-249l336 586q-260 105 -260 375q0 154 88 259q92 109 264 133q91 12 259 12h294zM812 732v452h-84q-137 0 -189.5 -6t-95.5 -28q-107 -52 -107 -187q0 -75 35 -129.5t98 -76.5q69 -25 248 -25h95z" />
    <glyph glyph-name="afii10065" unicode="&#x430;" horiz-adv-x="1014" 
d="M318 698h-194q16 136 98 206q106 90 298 90q123 0 207 -39.5t115 -111.5t31 -230v-379q0 -163 30 -234h-186q-15 56 -17 120q-80 -142 -278 -142q-140 0 -228 63q-104 74 -104 214q0 208 223 292q106 40 365 85v27q0 85 -28 120q-42 52 -142 52q-165 0 -190 -133z
M678 493q-212 -32 -287 -74q-95 -53 -95 -141q0 -63 46.5 -102t119.5 -39q132 0 187 102q29 53 29 179v75z" />
    <glyph glyph-name="afii10066" unicode="&#x431;" horiz-adv-x="1066" 
d="M275 858q44 59 87 86q87 56 205 56q172 0 281 -116q140 -150 140 -397q0 -251 -151 -395q-125 -119 -303 -119q-177 0 -301 119q-83 79 -118.5 193.5t-35.5 302.5q0 207 41 379t114 271q62 84 137 122.5t177 38.5q37 0 149 -18q35 -6 65 -6q56 0 106 26v-164
q-48 -25 -121 -25q-30 0 -74 9q-72 14 -117 14q-137 0 -208 -142q-49 -96 -73 -235zM534 836q-108 0 -173 -89q-75 -101 -75 -257q0 -163 75 -264q65 -88 173 -88q109 0 173 88q75 101 75 260q0 161 -75 261q-66 89 -173 89z" />
    <glyph glyph-name="afii10067" unicode="&#x432;" horiz-adv-x="927" 
d="M345 587h81q83 0 120 19q61 31 61 106q0 59 -35.5 82t-126.5 23h-100v-230zM345 155h59q117 0 160 19q75 32 75 121q0 72 -43 104.5t-138 32.5h-113v-277zM632 522q76 -18 118 -47q95 -65 95 -199q0 -123 -83 -199q-53 -48 -124 -62.5t-250 -14.5h-244v972h285
q170 0 234 -20q70 -21 110 -78t40 -136q0 -170 -181 -216z" />
    <glyph glyph-name="afii10068" unicode="&#x433;" horiz-adv-x="747" 
d="M145 972h561v-159h-356v-813h-205v972z" />
    <glyph glyph-name="afii10069" unicode="&#x434;" horiz-adv-x="1065" 
d="M236 972h676v-813h112v-367h-201v208h-588v-208h-201v367h30q114 0 126 168zM343 159h368v654h-291l-50 -550q-6 -73 -27 -104z" />
    <glyph glyph-name="afii10070" unicode="&#x435;" horiz-adv-x="1026" 
d="M946 442h-664q5 -127 54 -202q67 -102 203 -102q143 0 206 128l181 -13q-31 -104 -100 -172q-108 -108 -292 -108q-171 0 -288 96q-167 137 -167 405q0 183 77 317q120 208 371 208q205 0 321 -157q99 -135 99 -356q0 -13 -1 -44zM741 592q-29 246 -219 246
q-186 0 -234 -246h453z" />
    <glyph glyph-name="afii10072" unicode="&#x436;" horiz-adv-x="1299" 
d="M552 972h194v-383h54l271 383h211l-318 -445l348 -527h-221l-291 430h-54v-430h-194v430h-54l-291 -430h-221l348 527l-318 445h210l272 -383h54v383z" />
    <glyph glyph-name="afii10073" unicode="&#x437;" horiz-adv-x="938" 
d="M287 673l-197 17q22 93 49.5 142t78.5 89q101 78 265 78q152 0 246 -63q111 -75 111 -219q0 -90 -50.5 -149.5t-144.5 -78.5q99 -15 146 -51q78 -60 78 -170q0 -132 -104 -215q-102 -80 -278 -80q-136 0 -218 43q-115 60 -169 203q-19 51 -19 90l195 19q1 -6 2 -9
q13 -58 25.5 -82.5t40.5 -49.5q53 -46 138 -46q82 0 131.5 38.5t49.5 102.5q0 65 -42.5 93.5t-140.5 28.5h-84v159h76q49 0 73 7t48 28q41 37 41 101q0 63 -44.5 99.5t-120.5 36.5q-78 0 -119 -36.5t-63 -125.5z" />
    <glyph glyph-name="afii10074" unicode="&#x438;" horiz-adv-x="1085" 
d="M740 0v633l-395 -553v-80h-201v972h201v-631l395 552v79h201v-972h-201z" />
    <glyph glyph-name="afii10075" unicode="&#x439;" horiz-adv-x="1085" 
d="M277 1396h95q56 -150 174 -150q111 0 167 150h95q-10 -96 -51 -165q-73 -122 -209 -122q-110 0 -184 78.5t-87 208.5zM740 0v633l-395 -553v-80h-201v972h201v-631l395 552v79h201v-972h-201z" />
    <glyph glyph-name="afii10076" unicode="&#x43a;" horiz-adv-x="1046" 
d="M731 972h243l-384 -445l415 -527h-272l-383 523zM145 972h201v-972h-201v972z" />
    <glyph glyph-name="afii10077" unicode="&#x43b;" horiz-adv-x="1042" 
d="M697 813h-291l-50 -552q-7 -80 -24 -120q-60 -143 -278 -143h-19v160q70 -1 102.5 37.5t38.5 130.5l47 646h675v-972h-201v813z" />
    <glyph glyph-name="afii10078" unicode="&#x43c;" horiz-adv-x="1283" 
d="M725 0h-167l-227 680v-680h-187v972h254l244 -739l243 739h254v-972h-187v680z" />
    <glyph glyph-name="afii10079" unicode="&#x43d;" horiz-adv-x="1085" 
d="M740 430h-395v-430h-201v972h201v-383h395v383h201v-972h-201v430z" />
    <glyph glyph-name="afii10080" unicode="&#x43e;" horiz-adv-x="1066" 
d="M533 999q178 0 303 -120q71 -67 108 -164q43 -109 43 -230q0 -172 -77 -301q-69 -115 -190 -170q-89 -41 -186 -41q-180 0 -304 119q-151 144 -151 400q0 164 77 295q68 115 190 171q89 41 187 41zM533 835q-108 0 -173 -89q-75 -101 -75 -256q0 -164 75 -264
q65 -88 173 -88q109 0 173 88q75 101 75 259q0 161 -75 261q-66 89 -173 89z" />
    <glyph glyph-name="afii10081" unicode="&#x43f;" horiz-adv-x="1085" 
d="M740 813h-395v-813h-201v972h797v-972h-201v813z" />
    <glyph glyph-name="afii10082" unicode="&#x440;" horiz-adv-x="1084" 
d="M145 -403v1075q0 214 -18 300h190q18 -53 18 -128q97 150 271 150q149 0 250 -98q148 -145 148 -407q0 -272 -156 -419q-97 -92 -234 -92q-86 0 -149 33t-119 108v-522h-201zM576 823q-96 0 -153 -69q-81 -98 -81 -272q0 -165 76 -257q63 -76 158 -76q94 0 145 65
q77 98 77 272q0 172 -77 271q-52 66 -145 66z" />
    <glyph glyph-name="afii10083" unicode="&#x441;" horiz-adv-x="987" 
d="M900 651h-198q-16 96 -59.5 140t-123.5 44q-100 0 -158 -78q-76 -102 -76 -274q0 -162 62.5 -254t172.5 -92q113 0 161 91q20 39 30 112h196q-10 -150 -99 -252q-101 -115 -287 -115q-180 0 -299 117q-143 141 -143 394q0 268 161 415q111 100 283 100q163 0 260 -89.5
t117 -258.5z" />
    <glyph glyph-name="afii10084" unicode="&#x442;" horiz-adv-x="781" 
d="M491 0h-201v813h-283v159h767v-159h-283v-813z" />
    <glyph glyph-name="afii10085" unicode="&#x443;" horiz-adv-x="964" 
d="M33 972h214l238 -773l247 773h210l-325 -925q-50 -143 -64.5 -178.5t-44.5 -87.5q-110 -191 -387 -191q-19 0 -65 2v176q25 -1 36 -1q124 0 180 41t101 164z" />
    <glyph glyph-name="afii10086" unicode="&#x444;" horiz-adv-x="1422" 
d="M611 1373h199v-470q27 46 79.5 71t119.5 25q162 0 247.5 -133.5t85.5 -385.5q0 -177 -44 -292q-40 -104 -114 -159t-175 -55q-68 0 -120 25t-79 70v-472h-199v472q-26 -44 -78.5 -69.5t-120.5 -25.5q-161 0 -247 131t-86 375q0 185 46 307q81 212 287 212q67 0 120 -25.5
t79 -70.5v470zM810 528v-42v-41q0 -314 160 -314q84 0 128.5 90.5t44.5 260.5q0 177 -44 268.5t-129 91.5q-160 0 -160 -314zM611 445v41v42q0 314 -160 314q-85 0 -129 -91.5t-44 -268.5q0 -170 44.5 -260.5t128.5 -90.5q160 0 160 314z" />
    <glyph glyph-name="afii10087" unicode="&#x445;" horiz-adv-x="969" 
d="M56 972h239l190 -307l193 307h241l-310 -454l353 -518h-244l-233 359l-235 -359h-243l356 518z" />
    <glyph glyph-name="afii10088" unicode="&#x446;" horiz-adv-x="1093" 
d="M851 0h-707v972h201v-813h395v813h201v-813h111v-367h-201v208z" />
    <glyph glyph-name="afii10089" unicode="&#x447;" horiz-adv-x="1001" 
d="M656 366q-35 -30 -55 -41q-73 -40 -208 -40q-210 0 -281 142q-30 61 -30 176v369h201v-311q0 -70 9 -101.5t36 -57.5q25 -24 56.5 -33t88.5 -9q113 0 183 97v415h201v-972h-201v366z" />
    <glyph glyph-name="afii10090" unicode="&#x448;" horiz-adv-x="1487" 
d="M1141 159v813h201v-972h-1198v972h201v-813h297v813h201v-813h298z" />
    <glyph glyph-name="afii10091" unicode="&#x449;" horiz-adv-x="1494" 
d="M1252 0h-1108v972h201v-813h297v813h201v-813h298v813h201v-813h111v-367h-201v208z" />
    <glyph glyph-name="afii10092" unicode="&#x44a;" horiz-adv-x="1008" 
d="M266 813h-266v159h467v-341h131q369 0 369 -307q0 -166 -115 -257q-49 -38 -106 -52.5t-159 -14.5h-321v813zM467 472v-313h81q92 0 137 23q76 38 76 137q0 82 -45 117.5t-151 35.5h-98z" />
    <glyph glyph-name="afii10093" unicode="&#x44b;" horiz-adv-x="1307" 
d="M957 972h205v-972h-205v972zM144 0v972h201v-341h131q369 0 369 -307q0 -166 -115 -257q-49 -38 -106 -52.5t-159 -14.5h-321zM345 472v-313h81q92 0 137 23q76 38 76 137q0 82 -45 117.5t-151 35.5h-98z" />
    <glyph glyph-name="afii10094" unicode="&#x44c;" horiz-adv-x="886" 
d="M144 0v972h201v-341h131q369 0 369 -307q0 -166 -115 -257q-49 -38 -106 -52.5t-159 -14.5h-321zM345 472v-313h81q92 0 137 23q76 38 76 137q0 82 -45 117.5t-151 35.5h-98z" />
    <glyph glyph-name="afii10095" unicode="&#x44d;" horiz-adv-x="987" 
d="M700 563q-39 272 -229 272q-76 0 -117 -37t-62 -125l-197 17q22 92 48.5 140.5t78.5 90.5q98 78 245 78q172 0 283 -100q161 -146 161 -415q0 -253 -143 -394q-119 -117 -299 -117q-142 0 -240 72q-69 51 -100 122q-23 52 -43 135l196 17q16 -91 58 -134q47 -48 129 -48
q195 0 231 267h-294v159h294z" />
    <glyph glyph-name="afii10096" unicode="&#x44e;" horiz-adv-x="1482" 
d="M503 589q22 134 91 231q65 91 168 138q89 41 187 41q178 0 302 -120q71 -68 109 -164q42 -109 42 -230q0 -172 -77 -301q-69 -115 -190 -170q-89 -41 -186 -41q-137 0 -249 75q-177 119 -203 382h-152v-430h-201v972h201v-383h158zM948 835q-107 0 -172 -89
q-75 -101 -75 -256q0 -163 75 -264q64 -88 173 -88q108 0 172 88q75 101 75 259q0 161 -75 261q-66 89 -173 89z" />
    <glyph glyph-name="afii10097" unicode="&#x44f;" horiz-adv-x="951" 
d="M268 374q-163 77 -163 274q0 166 116 257q48 38 105 52.5t159 14.5h321v-972h-201v341h-131h-21l-161 -341h-210zM605 500v313h-81q-92 0 -137 -22q-76 -39 -76 -138q0 -82 45 -117.5t151 -35.5h98z" />
    <glyph glyph-name="uni0450" unicode="&#x450;" horiz-adv-x="1026" 
d="M665 1121h-157l-342 309h261zM946 442h-664q5 -127 54 -202q67 -102 203 -102q143 0 206 128l181 -13q-31 -104 -100 -172q-108 -108 -292 -108q-171 0 -288 96q-167 137 -167 405q0 183 77 317q120 208 371 208q205 0 321 -157q99 -135 99 -356q0 -13 -1 -44zM741 592
q-29 246 -219 246q-186 0 -234 -246h453z" />
    <glyph glyph-name="afii10071" unicode="&#x451;" horiz-adv-x="1026" 
d="M946 442h-664q5 -127 54 -202q67 -102 203 -102q143 0 206 128l181 -13q-31 -104 -100 -172q-108 -108 -292 -108q-171 0 -288 96q-167 137 -167 405q0 183 77 317q120 208 371 208q205 0 321 -157q99 -135 99 -356q0 -13 -1 -44zM741 592q-29 246 -219 246
q-186 0 -234 -246h453zM358 1391q51 0 87 -36.5t36 -87.5q0 -52 -36.5 -88.5t-87.5 -36.5q-52 0 -88.5 36.5t-36.5 87.5q0 53 36.5 89t89.5 36zM712 1391q51 0 87 -36.5t36 -87.5q0 -52 -36.5 -88.5t-87.5 -36.5q-52 0 -88.5 36.5t-36.5 87.5q0 53 36.5 89t89.5 36z" />
    <glyph glyph-name="afii10099" unicode="&#x452;" horiz-adv-x="1086" 
d="M346 861q108 133 279 133q87 0 161 -35.5t113 -95.5q29 -47 38.5 -105.5t9.5 -197.5l1 -560q0 -186 -102 -284q-56 -53 -129.5 -76t-187.5 -23q-15 0 -48 1v174q23 -1 32 -1q126 0 178.5 47.5t53.5 161.5l1 526q0 106 -12 158q-13 60 -59 96t-110 36q-57 0 -106 -29
t-77 -80q-36 -64 -36 -192v-515h-201v1100h-123v137h123v136h201v-136h273v-137h-273v-239z" />
    <glyph glyph-name="afii10100" unicode="&#x453;" horiz-adv-x="747" 
d="M145 972h561v-159h-356v-813h-205v972zM274 1106l238 309h261l-342 -309h-157z" />
    <glyph glyph-name="afii10101" unicode="&#x454;" horiz-adv-x="987" 
d="M290 563h294v-159h-294q36 -267 231 -267q81 0 125.5 43t61.5 139l196 -17q-25 -105 -55.5 -160.5t-87.5 -96.5q-98 -72 -240 -72q-180 0 -299 117q-143 141 -143 394q0 269 161 415q111 100 283 100q147 0 245 -78q52 -42 78.5 -90.5t48.5 -140.5l-197 -17
q-22 88 -61 123q-44 39 -118 39q-190 0 -229 -272z" />
    <glyph glyph-name="afii10102" unicode="&#x455;" horiz-adv-x="949" 
d="M849 689h-194q-9 70 -39 103q-45 51 -137 51q-70 0 -115 -34.5t-45 -88.5q0 -53 41 -79.5t191 -70.5q111 -32 166.5 -58.5t85.5 -60.5q58 -67 58 -170q0 -139 -94 -222q-99 -86 -282 -86q-195 0 -298 87.5t-103 252.5h191q7 -83 42 -122q54 -61 163 -61q82 0 130 36.5
t48 99.5q0 60 -64 93q-36 19 -212 72q-146 44 -200 100q-64 67 -64 170q0 135 103 218q100 80 261 80q167 0 262.5 -80.5t104.5 -229.5z" />
    <glyph glyph-name="afii10103" unicode="&#x456;" horiz-adv-x="495" 
d="M145 972h205v-972h-205v972zM251 1389q54 0 88.5 -35.5t34.5 -92.5q0 -56 -35 -91t-92 -35q-56 0 -91 34.5t-35 89.5q0 57 36.5 93.5t93.5 36.5z" />
    <glyph glyph-name="afii10104" unicode="&#x457;" horiz-adv-x="495" 
d="M145 972h205v-972h-205v972zM95 1387q49 0 84 -35.5t35 -85.5t-35 -85t-85 -35t-85.5 35t-35.5 85q0 51 35.5 86t86.5 35zM404 1387q49 0 84 -35.5t35 -85.5q0 -49 -35 -84.5t-85 -35.5t-85.5 35.5t-35.5 84.5q0 51 35.5 86t86.5 35z" />
    <glyph glyph-name="afii10105" unicode="&#x458;" horiz-adv-x="537" 
d="M191 972h205v-858q0 -159 -12.5 -227t-52.5 -125q-52 -73 -136 -107t-217 -34q-16 0 -48 1v174q22 -1 32 -1q163 0 206 87q15 30 18.5 64.5t4.5 166.5v859zM297 1388q55 0 89 -35t34 -92q0 -56 -35 -91t-92 -35q-56 0 -91 34.5t-35 89.5q0 57 36 93t94 36z" />
    <glyph glyph-name="afii10106" unicode="&#x459;" horiz-adv-x="1439" 
d="M898 972v-341h131q369 0 369 -307q0 -166 -116 -257q-48 -38 -105.5 -52.5t-158.5 -14.5h-321v813h-292l-49 -552q-7 -80 -24 -120q-61 -143 -278 -143h-20v160q70 -1 102.5 37.5t39.5 129.5l46 647h676zM898 472v-313h80q93 0 137 23q77 38 77 137q0 82 -45.5 117.5
t-150.5 35.5h-98z" />
    <glyph glyph-name="afii10107" unicode="&#x45a;" horiz-adv-x="1482" 
d="M740 444h-395v-444h-201v972h201v-369h395v369h201v-369h131q369 0 369 -293q0 -160 -116 -247q-47 -35 -105.5 -49t-158.5 -14h-321v444zM941 442v-283h81q112 0 162.5 34.5t50.5 110.5q0 74 -45 106t-151 32h-98z" />
    <glyph glyph-name="afii10108" unicode="&#x45b;" horiz-adv-x="1086" 
d="M145 1373h201v-136h273v-137h-273v-239q108 133 279 133q87 0 161 -35.5t113 -95.5q29 -47 38.5 -106.5t9.5 -196.5v-560h-201v526q0 148 -26 200q-46 90 -155 90q-57 0 -106 -29t-78 -80q-35 -64 -35 -192v-515h-201v1100h-123v137h123v136z" />
    <glyph glyph-name="afii10109" unicode="&#x45c;" horiz-adv-x="1046" 
d="M731 972h243l-384 -445l415 -527h-272l-383 523zM145 972h201v-972h-201v972zM411 1106l238 309h261l-342 -309h-157z" />
    <glyph glyph-name="uni045D" unicode="&#x45d;" horiz-adv-x="1085" 
d="M740 0v633l-395 -553v-80h-201v972h201v-631l395 552v79h201v-972h-201zM704 1106h-157l-342 309h261z" />
    <glyph glyph-name="afii10110" unicode="&#x45e;" horiz-adv-x="964" 
d="M33 972h214l238 -773l247 773h210l-325 -925q-50 -143 -64.5 -178.5t-44.5 -87.5q-110 -191 -387 -191q-19 0 -65 2v176q25 -1 36 -1q124 0 180 41t101 164zM217 1396h95q55 -150 173 -150q111 0 167 150h95q-10 -96 -51 -165q-73 -122 -209 -122q-110 0 -183.5 78.5
t-86.5 208.5z" />
    <glyph glyph-name="afii10193" unicode="&#x45f;" horiz-adv-x="1085" 
d="M442 0h-298v972h201v-813h395v813h201v-972h-298v-208h-201v208z" />
    <glyph glyph-name="uni0462" unicode="&#x462;" horiz-adv-x="1119" 
d="M380 978v-144h64q268 0 384 -39q126 -43 193 -159q55 -98 55 -224q0 -184 -111 -294q-71 -70 -171.5 -94t-322.5 -24h-303v978h-226v130h226v257h212v-257h328v-130h-328zM380 182h90q176 0 247 20q66 19 103.5 75t37.5 135q0 156 -115 207q-74 33 -275 33h-88v-470z" />
    <glyph glyph-name="uni0463" unicode="&#x463;" horiz-adv-x="886" 
d="M144 987h-149v116h149v254h201v-254h305v-116h-305v-356h131q369 0 369 -307q0 -167 -115 -257q-49 -38 -106 -52.5t-159 -14.5h-321v987zM345 472v-313h81q92 0 137 23q76 38 76 137q0 82 -45 117.5t-150 35.5h-99z" />
    <glyph glyph-name="uni0472" unicode="&#x472;" horiz-adv-x="1353" 
d="M677 1390q243 0 405 -172q183 -193 183 -535t-183 -536q-162 -172 -404 -172q-246 0 -407 172q-183 194 -183 546q0 104 24.5 212.5t66.5 184.5q87 163 244 242q116 58 254 58zM1040 617l-6 -2q-166 -48 -241 -48q-40 0 -63.5 8t-93.5 46q-64 34 -134 34q-75 0 -190 -33
q9 -150 62 -261q97 -204 302 -204q158 0 252.5 119.5t111.5 340.5zM312 748l7 2q144 39 215 39q85 0 157 -40l56 -30q33 -18 79 -18q86 0 215 42q-9 150 -62 261q-97 204 -303 204q-224 0 -318 -242q-39 -98 -46 -218z" />
    <glyph glyph-name="uni0473" unicode="&#x473;" horiz-adv-x="1066" 
d="M533 999q178 0 303 -120q71 -67 108 -164q43 -109 43 -230q0 -172 -77 -301q-69 -115 -190 -170q-89 -41 -186 -41q-180 0 -304 119q-151 144 -151 400q0 164 77 295q68 115 190 171q89 41 187 41zM287 532q7 2 22 7q92 32 152 32q49 0 119 -39q46 -25 68 -25
q20 0 105 25l25 8q-10 94 -43 160q-69 135 -202 135q-102 0 -166.5 -79t-79.5 -224zM776 416l-34 -10q-95 -28 -132 -28q-39 0 -96 34q-51 29 -88 29q-39 0 -120 -25l-8 -3l-8 -2q9 -75 41 -139q69 -134 202 -134q146 0 213 158q22 52 30 120z" />
    <glyph glyph-name="uni0474" unicode="&#x474;" horiz-adv-x="1202" 
d="M1281 1352v-179q-47 25 -89 25q-64 0 -94 -40q-5 -6 -46 -78l-373 -1084h-190l-468 1369h226l356 -1123l296 954q26 83 95 132.5t159 49.5q61 0 128 -26z" />
    <glyph glyph-name="uni0475" unicode="&#x475;" horiz-adv-x="961" 
d="M479 220l194 597q32 101 84 144t141 43q42 0 94 -13v-135q-30 10 -52 10q-46 0 -76.5 -26t-50.5 -81l-270 -767h-177l-345 980h212z" />
    <glyph glyph-name="afii10050" unicode="&#x490;" horiz-adv-x="1002" 
d="M975 1534v-351h-589v-1183h-217v1365h589v169h217z" />
    <glyph glyph-name="afii10098" unicode="&#x491;" horiz-adv-x="733" 
d="M706 1077v-264h-356v-813h-205v972h356v105h205z" />
    <glyph glyph-name="uni0492" unicode="&#x492;" horiz-adv-x="1031" 
d="M380 798h357v-182h-357v-616h-211v616h-135v182h135v567h808v-181h-597v-386z" />
    <glyph glyph-name="uni0493" unicode="&#x493;" horiz-adv-x="747" 
d="M145 648v324h561v-159h-356v-165h265v-132h-265v-516h-205v516h-118v132h118z" />
    <glyph glyph-name="uni0496" unicode="&#x496;" horiz-adv-x="1723" 
d="M1597 0h-89l-457 625h-84v-625h-211v625h-83l-457 -625h-243l529 713l-491 652h239l421 -565h85v565h211v-565h85l423 565h238l-491 -652l431 -580h155v-383h-211v250z" />
    <glyph glyph-name="uni0497" unicode="&#x497;" horiz-adv-x="1299" 
d="M1143 0h-51l-292 430h-54v-430h-194v430h-54l-291 -430h-221l348 527l-318 445h210l272 -383h54v383h194v-383h54l272 383h211l-319 -445l273 -413h117v-383h-211v269z" />
    <glyph glyph-name="uni049A" unicode="&#x49a;" horiz-adv-x="1214" 
d="M1103 123h149v-383h-211v260h-117l-540 720l525 645h247l-532 -638zM169 1365h211v-1365h-211v1365z" />
    <glyph glyph-name="uni049B" unicode="&#x49b;" horiz-adv-x="1046" 
d="M920 109h150v-367h-201v258h-135l-384 523l382 449h242l-383 -445zM145 972h201v-972h-201v972z" />
    <glyph glyph-name="uni049C" unicode="&#x49c;" horiz-adv-x="1214" 
d="M609 419v-160h-132v336l-94 125l94 115v299h132v-137l300 368h248l-533 -638l576 -727h-276zM169 1365h211v-1365h-211v1365z" />
    <glyph glyph-name="uni049D" unicode="&#x49d;" horiz-adv-x="1046" 
d="M487 335v-160h-110v311l-27 37l27 32v292h110v-162l244 287h242l-383 -445l415 -527h-272zM145 972h201v-972h-201v972z" />
    <glyph glyph-name="uni04A2" unicode="&#x4a2;" horiz-adv-x="1350" 
d="M1180 133h124v-383h-211v250h-124v625h-589v-625h-211v1365h211v-565h589v565h211v-1232z" />
    <glyph glyph-name="uni04A3" unicode="&#x4a3;" horiz-adv-x="1085" 
d="M941 126h109v-367h-201v241h-109v430h-395v-430h-201v972h201v-383h395v383h201v-846z" />
    <glyph glyph-name="uni04AE" unicode="&#x4ae;" horiz-adv-x="1103" 
d="M11 1365h239l305 -588l302 588h235l-435 -811l1 -554h-212l1 554z" />
    <glyph glyph-name="uni04AF" unicode="&#x4af;" horiz-adv-x="964" 
d="M584 -35v-368h-213v382l-338 993h214l238 -773l247 773h210z" />
    <glyph glyph-name="uni04B0" unicode="&#x4b0;" horiz-adv-x="1103" 
d="M657 503h193v-132h-193l1 -371h-212l1 371h-219v132h219v51l-436 811h238l306 -588l302 588h235l-435 -811v-51z" />
    <glyph glyph-name="uni04B1" unicode="&#x4b1;" horiz-adv-x="964" 
d="M371 -58v38l-338 992h214l238 -772l248 772h210l-359 -1006v-24h212v-132h-212v-213h-213v213h-197v132h197z" />
    <glyph glyph-name="uni04B2" unicode="&#x4b2;" horiz-adv-x="1157" 
d="M1055 123h148v-383h-211v260h-105l-306 519l-310 -519h-240l427 713l-397 652h241l279 -469l282 469h242l-402 -652z" />
    <glyph glyph-name="uni04B3" unicode="&#x4b3;" horiz-adv-x="969" 
d="M876 126h137v-367h-201v241h-94l-233 359l-235 -359h-243l356 518l-307 454h239l190 -307l193 307h241l-310 -454z" />
    <glyph glyph-name="uni04B6" unicode="&#x4b6;" horiz-adv-x="1219" 
d="M992 0h-154v559q-134 -90 -328 -90q-240 0 -338 162q-49 80 -49 236v498h213v-422q0 -150 36 -207q30 -48 75 -68.5t118 -20.5q182 0 273 100v618h213v-1242h152v-383h-211v260z" />
    <glyph glyph-name="uni04B7" unicode="&#x4b7;" horiz-adv-x="1001" 
d="M795 0h-139v366q-52 -45 -109.5 -62.5t-153.5 -17.5q-210 0 -281 142q-30 60 -30 175v369h201v-310q0 -70 9 -102t36 -57q25 -24 56.5 -33t88.5 -9q112 0 183 96v415h201v-849h149v-383h-211v260z" />
    <glyph glyph-name="uni04B8" unicode="&#x4b8;" horiz-adv-x="1232" 
d="M644 481v-289h-132v279q-16 -1 -30 -1q-150 0 -250 89q-59 53 -84 123t-25 185v498h213v-422q0 -102 12.5 -152t48.5 -87q35 -37 115 -57v279h132v-274q125 19 194 95v618h213v-1365h-213v558q-84 -56 -194 -77z" />
    <glyph glyph-name="uni04B9" unicode="&#x4b9;" horiz-adv-x="1001" 
d="M524 296v-220h-110v209q-332 -1 -323 318v369h201v-310q0 -92 22 -130q14 -25 30 -36.5t70 -35.5v249h110v-245q85 16 141 93v415h201v-972h-201v366q-63 -55 -141 -70z" />
    <glyph glyph-name="uni04BA" unicode="&#x4ba;" horiz-adv-x="1190" 
d="M336 807q133 89 328 89q239 0 338 -162q49 -80 49 -236v-498h-213v422q0 150 -36 207q-30 48 -75 68.5t-118 20.5q-182 0 -273 -100v-618h-213v1365h213v-558z" />
    <glyph glyph-name="uni04BB" unicode="&#x4bb;" horiz-adv-x="1086" 
d="M145 1373h201v-512q108 133 279 133q87 0 161 -35.5t113 -95.5q29 -47 38.5 -106.5t9.5 -196.5v-560h-201v526q0 148 -26 200q-46 90 -155 90q-57 0 -106.5 -29t-77.5 -80q-35 -64 -35 -192v-515h-201v1373z" />
    <glyph glyph-name="uni04C0" unicode="&#x4c0;" horiz-adv-x="550" 
d="M381 0h-213v1365h213v-1365z" />
    <glyph glyph-name="uni04CF" unicode="&#x4cf;" horiz-adv-x="550" 
d="M381 0h-213v1365h213v-1365z" />
    <glyph glyph-name="uni04D8" unicode="&#x4d8;" horiz-adv-x="1353" 
d="M89 733l949 -1q1 15 1 18q0 79 -28 168.5t-74 157.5q-42 63 -110.5 97.5t-150.5 34.5q-102 0 -184.5 -57t-120.5 -155l-196 87q34 72 95 135q169 172 406 172q244 0 406 -172q183 -194 183 -535q0 -342 -183 -536q-161 -172 -405 -172t-407 172q-100 106 -133 224
q-40 143 -48 362zM312 583q24 -182 104 -294q93 -132 260 -132q107 0 189 59q130 92 167 367h-720z" />
    <glyph glyph-name="afii10846" unicode="&#x4d9;" horiz-adv-x="1026" 
d="M80 530h664q-6 127 -55 202q-66 102 -202 102q-144 0 -206 -128l-181 13q31 104 99 172q109 108 292 108q172 0 289 -96q167 -137 167 -406q0 -183 -77 -317q-68 -116 -184 -169q-85 -38 -186 -38q-206 0 -322 158q-99 135 -99 355q0 15 1 44zM284 380q30 -246 220 -246
q185 0 234 246h-454z" />
    <glyph glyph-name="uni04E2" unicode="&#x4e2;" 
d="M202 1706h621v-132h-621v132zM-2 0v1365h201v-990l628 893v97h200v-1365h-200v989l-628 -892v-97h-201z" />
    <glyph glyph-name="uni04E3" unicode="&#x4e3;" 
d="M224 1327h577v-131h-577v131zM710 0v633l-395 -553v-80h-201v972h201v-631l395 552v79h201v-972h-201z" />
    <glyph glyph-name="uni04E8" unicode="&#x4e8;" horiz-adv-x="1353" 
d="M678 1390q241 0 404 -172q183 -193 183 -535t-183 -536q-162 -172 -405 -172q-245 0 -406 172q-91 96 -134 224q-49 146 -49 302q0 352 183 545q162 172 407 172zM312 742h729q-13 163 -62 263q-98 203 -303 203q-158 0 -252 -120t-112 -346zM1040 610h-727
q12 -146 61 -249q97 -204 302 -204q156 0 251.5 119t112.5 334z" />
    <glyph glyph-name="uni04E9" unicode="&#x4e9;" horiz-adv-x="1066" 
d="M534 999q177 0 302 -120q71 -67 108 -163q43 -110 43 -231q0 -172 -77 -301q-69 -115 -190 -170q-89 -41 -187 -41q-179 0 -303 119q-71 67 -109 163q-42 108 -42 223q0 259 151 401q126 120 304 120zM289 556h487q-11 85 -41 144q-69 135 -202 135q-97 0 -162 -74.5
t-82 -204.5zM777 424h-489q11 -91 43 -152q69 -134 202 -134q99 0 164 76.5t80 209.5z" />
    <glyph glyph-name="uni04EE" unicode="&#x4ee;" 
d="M201 1706h622v-132h-622v132zM-23 1365h239l301 -720l314 720h227l-647 -1365h-223l216 422z" />
    <glyph glyph-name="uni04EF" unicode="&#x4ef;" 
d="M224 1327h576v-131h-576v131zM63 972h214l238 -773l247 773h210l-325 -925q-50 -143 -64.5 -178.5t-44.5 -87.5q-110 -191 -387 -191q-19 0 -65 2v176q25 -1 36 -1q124 0 180 41t101 164z" />
    <glyph glyph-name="uni1E1E" unicode="&#x1e1e;" horiz-adv-x="1031" 
d="M380 798h548v-182h-548v-616h-211v1365h808v-181h-597v-386zM575 1786q60 0 102.5 -43t42.5 -103q0 -61 -43 -104t-103 -43q-61 0 -104 43t-43 103q0 62 43 104.5t105 42.5z" />
    <glyph glyph-name="Wgrave" unicode="&#x1e80;" horiz-adv-x="1691" 
d="M27 1365h199l262 -1111l268 1111h182l268 -1111l265 1111h194l-339 -1369h-236l-246 972l-243 -972h-235zM966 1486h-195l-380 308h261z" />
    <glyph glyph-name="wgrave" unicode="&#x1e81;" horiz-adv-x="1450" 
d="M29 972h204l194 -726l214 726h166l213 -726l196 726h203l-287 -980h-209l-202 666l-200 -666h-209zM850 1106h-157l-343 309h262z" />
    <glyph glyph-name="Wacute" unicode="&#x1e82;" horiz-adv-x="1691" 
d="M27 1365h199l262 -1111l268 1111h182l268 -1111l265 1111h194l-339 -1369h-236l-246 972l-243 -972h-235zM728 1486l314 308h261l-380 -308h-195z" />
    <glyph glyph-name="wacute" unicode="&#x1e83;" horiz-adv-x="1450" 
d="M29 972h204l194 -726l214 726h166l213 -726l196 726h203l-287 -980h-209l-202 666l-200 -666h-209zM599 1106l238 309h262l-343 -309h-157z" />
    <glyph glyph-name="Wdieresis" unicode="&#x1e84;" horiz-adv-x="1691" 
d="M27 1365h199l262 -1111l268 1111h182l268 -1111l265 1111h194l-339 -1369h-236l-246 972l-243 -972h-235zM661 1774q55 0 94 -39.5t39 -95.5q0 -55 -39.5 -94.5t-94.5 -39.5q-56 0 -95.5 39.5t-39.5 94.5q0 57 39.5 96t96.5 39zM1035 1774q55 0 94 -39.5t39 -95.5
q0 -55 -39.5 -94.5t-95.5 -39.5q-55 0 -94.5 39.5t-39.5 94.5q0 57 39.5 96t96.5 39z" />
    <glyph glyph-name="wdieresis" unicode="&#x1e85;" horiz-adv-x="1450" 
d="M29 972h204l194 -726l214 726h166l213 -726l196 726h203l-287 -980h-209l-202 666l-200 -666h-209zM549 1391q51 0 87 -36.5t36 -87.5q0 -52 -36.5 -88.5t-87.5 -36.5q-52 0 -88.5 36.5t-36.5 87.5q0 53 36.5 89t89.5 36zM903 1391q51 0 87 -36.5t36 -87.5
q0 -52 -36.5 -88.5t-87.5 -36.5q-52 0 -88.5 36.5t-36.5 87.5q0 53 36.5 89t89.5 36z" />
    <glyph glyph-name="uni1EA0" unicode="&#x1ea0;" horiz-adv-x="1198" 
d="M495 1369h205l467 -1369h-219l-101 320h-497l-103 -320h-217zM791 502l-193 614l-193 -614h386zM603 -112q60 0 102.5 -43t42.5 -103q0 -61 -43 -104t-103 -43q-61 0 -104 43t-43 103q0 62 43 104.5t105 42.5z" />
    <glyph glyph-name="uni1EA1" unicode="&#x1ea1;" horiz-adv-x="1014" 
d="M318 698h-194q16 136 98 206q106 90 298 90q123 0 207 -39.5t115 -111.5t31 -230v-379q0 -163 30 -234h-186q-15 56 -17 120q-80 -142 -278 -142q-140 0 -228 63q-104 74 -104 214q0 208 223 292q106 40 365 85v27q0 85 -28 120q-42 52 -142 52q-165 0 -190 -133z
M678 493q-212 -32 -287 -74q-95 -53 -95 -141q0 -63 46.5 -102t119.5 -39q132 0 187 102q29 53 29 179v75zM512 -112q60 0 102.5 -43t42.5 -103q0 -61 -43 -104t-103 -43q-61 0 -104 43t-43 103q0 62 43 104.5t105 42.5z" />
    <glyph glyph-name="uni1EA2" unicode="&#x1ea2;" horiz-adv-x="1198" 
d="M495 1369h205l467 -1369h-219l-101 320h-497l-103 -320h-217zM791 502l-193 614l-193 -614h386zM505 1485l1 158q30 -3 48 -3q59 0 93.5 28t34.5 77q0 46 -29 74t-77 28q-37 0 -121 -34v89q91 48 165 48q81 0 138 -47q66 -55 66 -143q0 -79 -55.5 -123t-170.5 -55v-97
h-93z" />
    <glyph glyph-name="uni1EA3" unicode="&#x1ea3;" horiz-adv-x="1014" 
d="M318 698h-194q16 136 98 206q106 90 298 90q123 0 207 -39.5t115 -111.5t31 -230v-379q0 -163 30 -234h-186q-15 56 -17 120q-80 -142 -278 -142q-140 0 -228 63q-104 74 -104 214q0 208 223 292q106 40 365 85v27q0 85 -28 120q-42 52 -142 52q-165 0 -190 -133z
M678 493q-212 -32 -287 -74q-95 -53 -95 -141q0 -63 46.5 -102t119.5 -39q132 0 187 102q29 53 29 179v75zM413 1111l1 158q30 -3 48 -3q59 0 93.5 28t34.5 77q0 46 -29 74t-77 28q-38 0 -121 -34v89q90 48 165 48q82 0 138 -47q66 -55 66 -143q0 -79 -55.5 -123t-170.5 -55
v-97h-93z" />
    <glyph glyph-name="uni1EA4" unicode="&#x1ea4;" horiz-adv-x="1198" 
d="M801 1668l277 272h261l-380 -308h-123l130 -132h-194l-173 169l-173 -169h-194l274 279h185zM495 1369h205l467 -1369h-219l-101 320h-497l-103 -320h-217zM791 502l-193 614l-193 -614h386z" />
    <glyph glyph-name="uni1EA5" unicode="&#x1ea5;" horiz-adv-x="1014" 
d="M699 1291l195 253h262l-342 -308h-71l97 -121h-186l-147 184l-145 -184h-188l240 300h185zM318 698h-194q16 136 98 206q106 90 298 90q123 0 207 -39.5t115 -111.5t31 -230v-379q0 -163 30 -234h-186q-15 56 -17 120q-80 -142 -278 -142q-140 0 -228 63
q-104 74 -104 214q0 208 223 292q106 40 365 85v27q0 85 -28 120q-42 52 -142 52q-165 0 -190 -133zM678 493q-212 -32 -287 -74q-95 -53 -95 -141q0 -63 46.5 -102t119.5 -39q132 0 187 102q29 53 29 179v75z" />
    <glyph glyph-name="uni1EA6" unicode="&#x1ea6;" horiz-adv-x="1198" 
d="M953 1626l-381 309h262l313 -309h-194zM506 1779h185l275 -279h-194l-173 169l-173 -169h-194zM495 1369h205l467 -1369h-219l-101 320h-497l-103 -320h-217zM791 502l-193 614l-193 -614h386z" />
    <glyph glyph-name="uni1EA7" unicode="&#x1ea7;" horiz-adv-x="1014" 
d="M832 1272l-343 308h262l238 -308h-157zM414 1415h185l241 -300h-186l-147 184l-145 -184h-188zM318 698h-194q16 136 98 206q106 90 298 90q123 0 207 -39.5t115 -111.5t31 -230v-379q0 -163 30 -234h-186q-15 56 -17 120q-80 -142 -278 -142q-140 0 -228 63
q-104 74 -104 214q0 208 223 292q106 40 365 85v27q0 85 -28 120q-42 52 -142 52q-165 0 -190 -133zM678 493q-212 -32 -287 -74q-95 -53 -95 -141q0 -63 46.5 -102t119.5 -39q132 0 187 102q29 53 29 179v75z" />
    <glyph glyph-name="uni1EA8" unicode="&#x1ea8;" horiz-adv-x="1198" 
d="M797 1671l1 109q30 -4 48 -4q59 0 93.5 28.5t34.5 76.5q0 46 -29 74t-77 28q-37 0 -121 -34v89q91 48 165 48q82 0 138 -47q66 -55 66 -142q0 -80 -55.5 -124t-170.5 -55v-97h-44l119 -121h-193l-173 169l-172 -169h-195l274 279h185zM495 1369h205l467 -1369h-219
l-101 320h-497l-103 -320h-217zM791 502l-193 614l-193 -614h386z" />
    <glyph glyph-name="uni1EA9" unicode="&#x1ea9;" horiz-adv-x="1014" 
d="M696 1293l1 96q30 -3 48 -3q59 0 93.5 28.5t34.5 76.5q0 46 -29 74t-77 28q-37 0 -121 -34v89q91 48 165 48q81 0 138 -47q66 -55 66 -142q0 -80 -55.5 -124t-170.5 -55v-97h-43l93 -116h-185l-147 184l-145 -184h-188l240 300h185zM318 698h-194q16 136 98 206
q106 90 298 90q123 0 207 -39.5t115 -111.5t31 -230v-379q0 -163 30 -234h-186q-15 56 -17 120q-80 -142 -278 -142q-140 0 -228 63q-104 74 -104 214q0 208 223 292q106 40 365 85v27q0 85 -28 120q-42 52 -142 52q-165 0 -190 -133zM678 493q-212 -32 -287 -74
q-95 -53 -95 -141q0 -63 46.5 -102t119.5 -39q132 0 187 102q29 53 29 179v75z" />
    <glyph glyph-name="uni1EAA" unicode="&#x1eaa;" horiz-adv-x="1198" 
d="M495 1369h205l467 -1369h-219l-101 320h-497l-103 -320h-217zM791 502l-193 614l-193 -614h386zM232 1500l274 279h185l275 -279h-194l-173 169l-173 -169h-194zM355 1805l-104 31q57 208 198 208q51 0 151 -41q105 -44 139 -44q64 0 104 99l95 -29q-13 -73 -45 -123
q-60 -94 -151 -94q-46 0 -160 47q-96 39 -132 39q-68 0 -95 -93z" />
    <glyph glyph-name="uni1EAB" unicode="&#x1eab;" horiz-adv-x="1014" 
d="M174 1115l240 300h185l241 -300h-186l-147 184l-145 -184h-188zM318 698h-194q16 136 98 206q106 90 298 90q123 0 207 -39.5t115 -111.5t31 -230v-379q0 -163 30 -234h-186q-15 56 -17 120q-80 -142 -278 -142q-140 0 -228 63q-104 74 -104 214q0 208 223 292
q106 40 365 85v27q0 85 -28 120q-42 52 -142 52q-165 0 -190 -133zM678 493q-212 -32 -287 -74q-95 -53 -95 -141q0 -63 46.5 -102t119.5 -39q132 0 187 102q29 53 29 179v75zM290 1449l-95 24q50 215 178 215q51 0 138 -42q92 -44 124 -44q58 0 95 100l89 -24
q-15 -91 -53 -148q-51 -76 -123 -76q-48 0 -144 44q-95 44 -123 44q-60 0 -86 -93z" />
    <glyph glyph-name="uni1EAC" unicode="&#x1eac;" horiz-adv-x="1198" 
d="M495 1369h205l467 -1369h-219l-101 320h-497l-103 -320h-217zM791 502l-193 614l-193 -614h386zM232 1500l274 279h185l275 -279h-194l-173 169l-173 -169h-194zM603 -112q60 0 102.5 -43t42.5 -103q0 -61 -43 -104t-103 -43q-61 0 -104 43t-43 103q0 62 43 104.5
t105 42.5z" />
    <glyph glyph-name="uni1EAD" unicode="&#x1ead;" horiz-adv-x="1014" 
d="M174 1115l240 300h185l241 -300h-186l-147 184l-145 -184h-188zM318 698h-194q16 136 98 206q106 90 298 90q123 0 207 -39.5t115 -111.5t31 -230v-379q0 -163 30 -234h-186q-15 56 -17 120q-80 -142 -278 -142q-140 0 -228 63q-104 74 -104 214q0 208 223 292
q106 40 365 85v27q0 85 -28 120q-42 52 -142 52q-165 0 -190 -133zM678 493q-212 -32 -287 -74q-95 -53 -95 -141q0 -63 46.5 -102t119.5 -39q132 0 187 102q29 53 29 179v75zM512 -112q60 0 102.5 -43t42.5 -103q0 -61 -43 -104t-103 -43q-61 0 -104 43t-43 103
q0 62 43 104.5t105 42.5z" />
    <glyph glyph-name="uni1EAE" unicode="&#x1eae;" horiz-adv-x="1198" 
d="M495 1369h205l467 -1369h-219l-101 320h-497l-103 -320h-217zM791 502l-193 614l-193 -614h386zM308 1781h90q65 -151 201 -151q134 0 201 151h89q-10 -94 -57 -161q-85 -122 -232 -122q-117 0 -197 77.5t-95 205.5zM480 1746l314 309h261l-380 -309h-195z" />
    <glyph glyph-name="uni1EAF" unicode="&#x1eaf;" horiz-adv-x="1014" 
d="M236 1396h95q55 -150 173 -150q112 0 167 150h95q-10 -97 -51 -165q-72 -122 -208 -122q-110 0 -184 78.5t-87 208.5zM318 698h-194q16 136 98 206q106 90 298 90q123 0 207 -39.5t115 -111.5t31 -230v-379q0 -163 30 -234h-186q-15 56 -17 120q-80 -142 -278 -142
q-140 0 -228 63q-104 74 -104 214q0 208 223 292q106 40 365 85v27q0 85 -28 120q-42 52 -142 52q-165 0 -190 -133zM678 493q-212 -32 -287 -74q-95 -53 -95 -141q0 -63 46.5 -102t119.5 -39q132 0 187 102q29 53 29 179v75zM382 1353l238 309h261l-342 -309h-157z" />
    <glyph glyph-name="uni1EB0" unicode="&#x1eb0;" horiz-adv-x="1198" 
d="M495 1369h205l467 -1369h-219l-101 320h-497l-103 -320h-217zM791 502l-193 614l-193 -614h386zM308 1781h90q65 -151 201 -151q134 0 201 151h89q-10 -94 -57 -161q-85 -122 -232 -122q-117 0 -197 77.5t-95 205.5zM739 1741h-194l-381 308h262z" />
    <glyph glyph-name="uni1EB1" unicode="&#x1eb1;" horiz-adv-x="1014" 
d="M236 1396h95q56 -150 174 -150q111 0 167 150h95q-11 -97 -51 -165q-73 -122 -209 -122q-110 0 -184 78.5t-87 208.5zM319 698h-194q16 136 98 206q106 90 298 90q123 0 207 -39.5t115 -111.5q31 -71 31 -230v-379q0 -163 30 -234h-186q-15 56 -17 120
q-80 -142 -278 -142q-140 0 -228 63q-104 74 -104 214q0 208 223 292q107 40 365 85v27q0 85 -28 120q-42 52 -142 52q-165 0 -190 -133zM679 493q-212 -32 -287 -74q-95 -53 -95 -141q0 -62 46.5 -101.5t119.5 -39.5q132 0 187 102q29 53 29 179v75zM585 1364h-157
l-342 309h261z" />
    <glyph glyph-name="uni1EB2" unicode="&#x1eb2;" horiz-adv-x="1198" 
d="M495 1369h205l467 -1369h-219l-101 320h-497l-103 -320h-217zM791 502l-193 614l-193 -614h386zM308 1781h90q65 -151 201 -151q134 0 201 151h89q-10 -94 -57 -161q-85 -122 -232 -122q-117 0 -197 77.5t-95 205.5zM549 1730l1 158q30 -3 48 -3q59 0 93.5 28t34.5 77
q0 46 -29 74t-77 28q-37 0 -121 -34v89q90 48 165 48q81 0 138 -47q66 -55 66 -143q0 -79 -55.5 -123t-170.5 -55v-97h-93z" />
    <glyph glyph-name="uni1EB3" unicode="&#x1eb3;" horiz-adv-x="1014" 
d="M236 1396h95q55 -150 173 -150q112 0 167 150h95q-10 -97 -51 -165q-72 -122 -208 -122q-110 0 -184 78.5t-87 208.5zM318 698h-194q16 136 98 206q106 90 298 90q123 0 207 -39.5t115 -111.5t31 -230v-379q0 -163 30 -234h-186q-15 56 -17 120q-80 -142 -278 -142
q-140 0 -228 63q-104 74 -104 214q0 208 223 292q106 40 365 85v27q0 85 -28 120q-42 52 -142 52q-165 0 -190 -133zM678 493q-212 -32 -287 -74q-95 -53 -95 -141q0 -63 46.5 -102t119.5 -39q132 0 187 102q29 53 29 179v75zM457 1355l1 158q30 -3 48 -3q59 0 93.5 28
t34.5 77q0 46 -29 74t-77 28q-37 0 -121 -34v89q91 48 165 48q81 0 138 -47q66 -55 66 -143q0 -79 -55.5 -123t-170.5 -55v-97h-93z" />
    <glyph glyph-name="uni1EB4" unicode="&#x1eb4;" horiz-adv-x="1198" 
d="M495 1369h205l467 -1369h-219l-101 320h-497l-103 -320h-217zM791 502l-193 614l-193 -614h386zM308 1781h90q65 -151 201 -151q134 0 201 151h89q-10 -94 -57 -161q-85 -122 -232 -122q-117 0 -197 77.5t-95 205.5zM355 1833l-104 30q57 209 198 209q51 0 151 -42
q105 -44 139 -44q64 0 104 100l95 -30q-13 -73 -45 -123q-60 -94 -151 -94q-45 0 -160 47q-96 40 -132 40q-68 0 -95 -93z" />
    <glyph glyph-name="uni1EB5" unicode="&#x1eb5;" horiz-adv-x="1014" 
d="M236 1396h95q55 -150 173 -150q112 0 167 150h95q-10 -97 -51 -165q-72 -122 -208 -122q-110 0 -184 78.5t-87 208.5zM318 698h-194q16 136 98 206q106 90 298 90q123 0 207 -39.5t115 -111.5t31 -230v-379q0 -163 30 -234h-186q-15 56 -17 120q-80 -142 -278 -142
q-140 0 -228 63q-104 74 -104 214q0 208 223 292q106 40 365 85v27q0 85 -28 120q-42 52 -142 52q-165 0 -190 -133zM678 493q-212 -32 -287 -74q-95 -53 -95 -141q0 -63 46.5 -102t119.5 -39q132 0 187 102q29 53 29 179v75zM290 1460l-95 25q50 215 178 215q51 0 138 -42
q92 -44 124 -44q59 0 95 99l89 -24q-15 -90 -53 -148q-51 -75 -123 -75q-48 0 -144 44q-95 44 -123 44q-60 0 -86 -94z" />
    <glyph glyph-name="uni1EB6" unicode="&#x1eb6;" horiz-adv-x="1198" 
d="M495 1369h205l467 -1369h-219l-101 320h-497l-103 -320h-217zM791 502l-193 614l-193 -614h386zM308 1781h90q65 -151 201 -151q134 0 201 151h89q-10 -94 -57 -161q-85 -122 -232 -122q-117 0 -197 77.5t-95 205.5zM603 -112q60 0 102.5 -43t42.5 -103q0 -61 -43 -104
t-103 -43q-61 0 -104 43t-43 103q0 62 43 104.5t105 42.5z" />
    <glyph glyph-name="uni1EB7" unicode="&#x1eb7;" horiz-adv-x="1014" 
d="M236 1396h95q55 -150 173 -150q112 0 167 150h95q-10 -97 -51 -165q-72 -122 -208 -122q-110 0 -184 78.5t-87 208.5zM318 698h-194q16 136 98 206q106 90 298 90q123 0 207 -39.5t115 -111.5t31 -230v-379q0 -163 30 -234h-186q-15 56 -17 120q-80 -142 -278 -142
q-140 0 -228 63q-104 74 -104 214q0 208 223 292q106 40 365 85v27q0 85 -28 120q-42 52 -142 52q-165 0 -190 -133zM678 493q-212 -32 -287 -74q-95 -53 -95 -141q0 -63 46.5 -102t119.5 -39q132 0 187 102q29 53 29 179v75zM512 -112q60 0 102.5 -43t42.5 -103
q0 -61 -43 -104t-103 -43q-61 0 -104 43t-43 103q0 62 43 104.5t105 42.5z" />
    <glyph glyph-name="uni1EB8" unicode="&#x1eb8;" horiz-adv-x="1066" 
d="M380 798h548v-182h-548v-434h615v-182h-826v1365h808v-181h-597v-386zM537 -112q60 0 102.5 -43t42.5 -103q0 -61 -43 -104t-104 -43q-60 0 -103 43t-43 103q0 62 43 104.5t105 42.5z" />
    <glyph glyph-name="uni1EB9" unicode="&#x1eb9;" horiz-adv-x="1026" 
d="M946 442h-664q5 -127 54 -202q67 -102 203 -102q143 0 206 128l181 -13q-31 -104 -100 -172q-108 -108 -292 -108q-171 0 -288 96q-167 137 -167 405q0 183 77 317q120 208 371 208q205 0 321 -157q99 -135 99 -356q0 -13 -1 -44zM741 592q-29 246 -219 246
q-186 0 -234 -246h453zM517 -112q60 0 102.5 -43t42.5 -103q0 -61 -43 -104t-104 -43q-60 0 -103 43t-43 103q0 62 43 104.5t105 42.5z" />
    <glyph glyph-name="uni1EBA" unicode="&#x1eba;" horiz-adv-x="1066" 
d="M380 798h548v-182h-548v-434h615v-182h-826v1365h808v-181h-597v-386zM501 1485l1 158q30 -3 48 -3q59 0 93.5 28t34.5 77q0 46 -29 74t-77 28q-36 0 -121 -34v89q92 48 165 48q82 0 138 -47q66 -55 66 -143q0 -79 -55.5 -123t-170.5 -55v-97h-93z" />
    <glyph glyph-name="uni1EBB" unicode="&#x1ebb;" horiz-adv-x="1026" 
d="M946 442h-664q5 -127 54 -202q67 -102 203 -102q143 0 206 128l181 -13q-31 -104 -100 -172q-108 -108 -292 -108q-171 0 -288 96q-167 137 -167 405q0 183 77 317q120 208 371 208q205 0 321 -157q99 -135 99 -356q0 -13 -1 -44zM741 592q-29 246 -219 246
q-186 0 -234 -246h453zM419 1111l1 158q30 -3 48 -3q59 0 93.5 28t34.5 77q0 46 -29 74t-77 28q-38 0 -121 -34v89q90 48 165 48q81 0 138 -47q66 -55 66 -143q0 -79 -55.5 -123t-170.5 -55v-97h-93z" />
    <glyph glyph-name="uni1EBC" unicode="&#x1ebc;" horiz-adv-x="1066" 
d="M380 798h548v-182h-548v-434h615v-182h-826v1365h808v-181h-597v-386zM328 1510l-104 31q57 208 198 208q51 0 151 -42q105 -44 139 -44q64 0 104 100l95 -30q-13 -73 -45 -123q-59 -94 -151 -94q-45 0 -160 47q-96 40 -132 40q-67 0 -95 -93z" />
    <glyph glyph-name="uni1EBD" unicode="&#x1ebd;" horiz-adv-x="1026" 
d="M946 442h-664q5 -127 54 -202q67 -102 203 -102q143 0 206 128l181 -13q-31 -104 -100 -172q-108 -108 -292 -108q-171 0 -288 96q-167 137 -167 405q0 183 77 317q120 208 371 208q205 0 321 -157q99 -135 99 -356q0 -13 -1 -44zM741 592q-29 246 -219 246
q-186 0 -234 -246h453zM296 1137l-95 24q50 215 178 215q51 0 138 -42q92 -44 124 -44q59 0 94 100l90 -24q-15 -91 -54 -149q-50 -75 -122 -75q-48 0 -144 44t-124 44q-59 0 -85 -93z" />
    <glyph glyph-name="uni1EBE" unicode="&#x1ebe;" horiz-adv-x="1066" 
d="M776 1669l261 257h261l-380 -308h-92l116 -118h-193l-174 169l-172 -169h-195l275 279h185zM380 798h548v-182h-548v-434h615v-182h-826v1365h808v-181h-597v-386z" />
    <glyph glyph-name="uni1EBF" unicode="&#x1ebf;" horiz-adv-x="1026" 
d="M707 1312l190 246h262l-343 -308h-59l108 -135h-186l-146 184l-146 -184h-187l240 300h185zM946 442h-664q5 -127 54 -202q67 -102 203 -102q143 0 206 128l181 -13q-31 -104 -100 -172q-108 -108 -292 -108q-171 0 -288 96q-167 137 -167 405q0 183 77 317
q120 208 371 208q205 0 321 -157q99 -135 99 -356q0 -13 -1 -44zM741 592q-29 246 -219 246q-186 0 -234 -246h453z" />
    <glyph glyph-name="uni1EC0" unicode="&#x1ec0;" horiz-adv-x="1066" 
d="M913 1623l-380 308h261l314 -308h-195zM484 1779h185l274 -279h-193l-174 169l-172 -169h-195zM381 798h548v-182h-548v-434h615v-182h-826v1365h808v-181h-597v-386z" />
    <glyph glyph-name="uni1EC1" unicode="&#x1ec1;" horiz-adv-x="1026" 
d="M858 1246l-342 308h262l237 -308h-157zM440 1415h185l240 -300h-186l-146 184l-146 -184h-187zM946 442h-664q5 -127 54 -202q67 -102 203 -102q143 0 206 128l181 -13q-31 -104 -100 -172q-108 -108 -292 -108q-171 0 -288 96q-167 137 -167 405q0 183 77 317
q120 208 371 208q205 0 321 -157q99 -135 99 -356q0 -13 -1 -44zM741 592q-29 246 -219 246q-186 0 -234 -246h453z" />
    <glyph glyph-name="uni1EC2" unicode="&#x1ec2;" horiz-adv-x="1066" 
d="M781 1663l1 114q29 -4 48 -4q59 0 93.5 28t34.5 77q0 46 -29 74t-77 28q-37 0 -121 -33v88q91 48 165 48q82 0 138 -47q66 -55 66 -142q0 -80 -55.5 -124t-170.5 -55v-97h-48l116 -118h-193l-173 169l-173 -169h-194l274 279h185zM380 798h548v-182h-548v-434h615v-182
h-826v1365h808v-181h-597v-386z" />
    <glyph glyph-name="uni1EC3" unicode="&#x1ec3;" horiz-adv-x="1026" 
d="M720 1296l1 91q30 -3 48 -3q59 0 93.5 28.5t34.5 76.5q0 47 -29 75t-77 28q-37 0 -121 -34v88q91 49 165 49q82 0 138 -47q66 -55 66 -143q0 -80 -55.5 -124t-170.5 -55v-97h-39l91 -114h-185l-147 184l-145 -184h-187l239 300h185zM946 442h-664q5 -127 54 -202
q67 -102 203 -102q143 0 206 128l181 -13q-31 -104 -100 -172q-108 -108 -292 -108q-171 0 -288 96q-167 137 -167 405q0 183 77 317q120 208 371 208q205 0 321 -157q99 -135 99 -356q0 -13 -1 -44zM741 592q-29 246 -219 246q-186 0 -234 -246h453z" />
    <glyph glyph-name="uni1EC4" unicode="&#x1ec4;" horiz-adv-x="1066" 
d="M380 798h548v-182h-548v-434h615v-182h-826v1365h808v-181h-597v-386zM208 1500l275 279h185l274 -279h-193l-174 169l-172 -169h-195zM347 1845l-103 30q57 209 197 209q51 0 151 -42q105 -44 139 -44q64 0 105 99l95 -29q-14 -73 -45 -123q-60 -94 -151 -94
q-46 0 -161 47q-96 40 -132 40q-67 0 -95 -93z" />
    <glyph glyph-name="uni1EC5" unicode="&#x1ec5;" horiz-adv-x="1026" 
d="M200 1115l240 300h185l240 -300h-186l-146 184l-146 -184h-187zM946 442h-664q5 -127 54 -202q67 -102 203 -102q143 0 206 128l181 -13q-31 -104 -100 -172q-108 -108 -292 -108q-171 0 -288 96q-167 137 -167 405q0 183 77 317q120 208 371 208q205 0 321 -157
q99 -135 99 -356q0 -13 -1 -44zM741 592q-29 246 -219 246q-186 0 -234 -246h453zM341 1457l-95 25q50 215 178 215q51 0 138 -42q92 -44 124 -44q58 0 95 99l89 -23q-15 -91 -54 -149q-50 -75 -122 -75q-48 0 -144 44t-123 44q-60 0 -86 -94z" />
    <glyph glyph-name="uni1EC6" unicode="&#x1ec6;" horiz-adv-x="1066" 
d="M380 798h548v-182h-548v-434h615v-182h-826v1365h808v-181h-597v-386zM208 1500l275 279h185l274 -279h-193l-174 169l-172 -169h-195zM537 -112q60 0 102.5 -43t42.5 -103q0 -61 -43 -104t-104 -43q-60 0 -103 43t-43 103q0 62 43 104.5t105 42.5z" />
    <glyph glyph-name="uni1EC7" unicode="&#x1ec7;" horiz-adv-x="1026" 
d="M200 1115l240 300h185l240 -300h-186l-146 184l-146 -184h-187zM946 442h-664q5 -127 54 -202q67 -102 203 -102q143 0 206 128l181 -13q-31 -104 -100 -172q-108 -108 -292 -108q-171 0 -288 96q-167 137 -167 405q0 183 77 317q120 208 371 208q205 0 321 -157
q99 -135 99 -356q0 -13 -1 -44zM741 592q-29 246 -219 246q-186 0 -234 -246h453zM517 -112q60 0 102.5 -43t42.5 -103q0 -61 -43 -104t-104 -43q-60 0 -103 43t-43 103q0 62 43 104.5t105 42.5z" />
    <glyph glyph-name="uni1EC8" unicode="&#x1ec8;" horiz-adv-x="551" 
d="M382 0h-213v1365h213v-1365zM230 1485l1 158q30 -3 48 -3q59 0 93.5 28t34.5 77q0 46 -29 74t-77 28q-37 0 -121 -34v89q91 48 165 48q82 0 138 -47q66 -55 66 -143q0 -79 -55.5 -123t-170.5 -55v-97h-93z" />
    <glyph glyph-name="uni1EC9" unicode="&#x1ec9;" horiz-adv-x="496" 
d="M145 972h205v-972h-205v972zM199 1111l1 158q30 -3 48 -3q59 0 93.5 28t34.5 77q0 46 -29 74t-77 28q-37 0 -121 -34v89q91 48 165 48q81 0 138 -47q66 -55 66 -143q0 -79 -55.5 -123t-170.5 -55v-97h-93z" />
    <glyph glyph-name="uni1ECA" unicode="&#x1eca;" horiz-adv-x="551" 
d="M382 0h-213v1365h213v-1365zM280 -112q60 0 102.5 -43t42.5 -103q0 -61 -43 -104t-103 -43q-61 0 -104 43t-43 103q0 62 43 104.5t105 42.5z" />
    <glyph glyph-name="uni1ECB" unicode="&#x1ecb;" horiz-adv-x="496" 
d="M145 972h205v-972h-205v972zM251 1389q54 0 88.5 -35.5t34.5 -92.5q0 -56 -35 -91t-92 -35q-56 0 -91 34t-35 90q0 57 36.5 93.5t93.5 36.5zM252 -112q60 0 102.5 -43t42.5 -103q0 -61 -43 -104t-103 -43q-61 0 -104 43t-43 103q0 62 43 104.5t105 42.5z" />
    <glyph glyph-name="uni1ECC" unicode="&#x1ecc;" horiz-adv-x="1353" 
d="M677 1390q243 0 405 -172q183 -193 183 -535t-183 -536q-162 -172 -404 -172q-246 0 -407 172q-183 194 -183 546q0 104 24.5 212.5t66.5 184.5q87 163 244 242q116 58 254 58zM677 1208q-168 0 -261 -132q-106 -150 -106 -386q0 -250 106 -401q92 -132 261 -132
q168 0 260 132q106 151 106 394q0 246 -106 393q-95 132 -260 132zM681 -112q60 0 102.5 -43t42.5 -103q0 -61 -43 -104t-104 -43q-60 0 -103 43t-43 103q0 62 43 104.5t105 42.5z" />
    <glyph glyph-name="uni1ECD" unicode="&#x1ecd;" horiz-adv-x="1066" 
d="M533 999q178 0 303 -120q71 -67 108 -164q43 -109 43 -230q0 -172 -77 -301q-69 -115 -190 -170q-89 -41 -186 -41q-180 0 -304 119q-151 144 -151 400q0 164 77 295q68 115 190 171q89 41 187 41zM533 835q-108 0 -173 -89q-75 -101 -75 -256q0 -164 75 -264
q65 -88 173 -88q109 0 173 88q75 101 75 259q0 161 -75 261q-66 89 -173 89zM537 -112q60 0 102.5 -43t42.5 -103q0 -61 -43 -104t-103 -43q-61 0 -104 43t-43 103q0 62 43 104.5t105 42.5z" />
    <glyph glyph-name="uni1ECE" unicode="&#x1ece;" horiz-adv-x="1353" 
d="M677 1390q243 0 405 -172q183 -193 183 -535t-183 -536q-162 -172 -404 -172q-246 0 -407 172q-183 194 -183 546q0 104 24.5 212.5t66.5 184.5q87 163 244 242q116 58 254 58zM677 1208q-168 0 -261 -132q-106 -150 -106 -386q0 -250 106 -401q92 -132 261 -132
q168 0 260 132q106 151 106 394q0 246 -106 393q-95 132 -260 132zM583 1485l1 158q30 -3 48 -3q59 0 93.5 28t34.5 77q0 46 -29 74t-77 28q-36 0 -121 -34v89q92 48 165 48q81 0 138 -47q66 -55 66 -143q0 -79 -55.5 -123t-170.5 -55v-97h-93z" />
    <glyph glyph-name="uni1ECF" unicode="&#x1ecf;" horiz-adv-x="1066" 
d="M533 999q178 0 303 -120q71 -67 108 -164q43 -109 43 -230q0 -172 -77 -301q-69 -115 -190 -170q-89 -41 -186 -41q-180 0 -304 119q-151 144 -151 400q0 164 77 295q68 115 190 171q89 41 187 41zM533 835q-108 0 -173 -89q-75 -101 -75 -256q0 -164 75 -264
q65 -88 173 -88q109 0 173 88q75 101 75 259q0 161 -75 261q-66 89 -173 89zM439 1111l1 158q30 -3 48 -3q59 0 93.5 28t34.5 77q0 46 -29 74t-77 28q-38 0 -121 -34v89q90 48 165 48q82 0 138 -47q66 -55 66 -143q0 -79 -55.5 -123t-170.5 -55v-97h-93z" />
    <glyph glyph-name="uni1ED0" unicode="&#x1ed0;" horiz-adv-x="1353" 
d="M885 1661l265 260h261l-380 -308h-99l111 -113h-193l-173 169l-173 -169h-194l274 279h185zM677 1390q207 0 358 -129q230 -196 230 -578t-230 -579q-150 -129 -351 -129q-216 0 -366 129q-230 197 -230 582q0 382 230 575q153 129 359 129zM676 1208q-165 0 -257 -124
q-109 -147 -109 -401q0 -253 109 -402q43 -57 108 -90q68 -34 145 -34q170 0 262 124q109 149 109 404q0 253 -109 399q-93 124 -258 124z" />
    <glyph glyph-name="uni1ED1" unicode="&#x1ed1;" horiz-adv-x="1066" 
d="M714 1304l195 252h261l-342 -308h-68l106 -133h-186l-147 185l-145 -185h-188l240 300h185zM534 999q177 0 302 -120q71 -67 108 -164q43 -109 43 -230q0 -172 -77 -301q-69 -115 -190 -170q-89 -41 -187 -41q-179 0 -303 119q-71 67 -109 163q-42 108 -42 223
q0 259 151 401q126 120 304 120zM533 835q-108 0 -173 -89q-75 -101 -75 -256q0 -164 75 -264q65 -88 173 -88q109 0 173 88q75 101 75 259q0 161 -75 261q-66 89 -173 89z" />
    <glyph glyph-name="uni1ED2" unicode="&#x1ed2;" horiz-adv-x="1353" 
d="M981 1652l-381 308h262l313 -308h-194zM584 1779h185l274 -279h-193l-173 169l-173 -169h-194zM677 1390q207 0 358 -129q230 -196 230 -578t-230 -579q-150 -129 -351 -129q-216 0 -366 129q-230 197 -230 582q0 382 230 575q153 129 359 129zM676 1208
q-165 0 -257 -124q-109 -147 -109 -401q0 -253 109 -402q43 -57 108 -90q68 -34 145 -34q170 0 262 124q109 149 109 404q0 253 -109 399q-93 124 -258 124z" />
    <glyph glyph-name="uni1ED3" unicode="&#x1ed3;" horiz-adv-x="1066" 
d="M812 1289l-342 308h261l238 -308h-157zM440 1415h185l241 -300h-186l-147 184l-145 -184h-188zM534 999q177 0 302 -120q71 -67 108 -164q43 -109 43 -230q0 -172 -77 -301q-69 -115 -190 -170q-89 -41 -187 -41q-179 0 -303 119q-71 67 -109 163q-42 108 -42 223
q0 259 151 401q126 120 304 120zM533 835q-108 0 -173 -89q-75 -101 -75 -256q0 -164 75 -264q65 -88 173 -88q109 0 173 88q75 101 75 259q0 161 -75 261q-66 89 -173 89z" />
    <glyph glyph-name="uni1ED4" unicode="&#x1ed4;" horiz-adv-x="1353" 
d="M888 1658l1 105q30 -4 48 -4q59 0 93.5 28.5t34.5 76.5q0 46 -29 74t-77 28q-38 0 -121 -34v89q91 48 165 48q81 0 138 -47q66 -55 66 -142q0 -80 -55.5 -124t-170.5 -55v-97h-40l102 -104h-193l-173 169l-172 -169h-195l274 279h185zM677 1390q207 0 358 -129
q230 -196 230 -578t-230 -579q-150 -129 -351 -129q-216 0 -366 129q-230 197 -230 582q0 382 230 575q153 129 359 129zM676 1208q-165 0 -257 -124q-109 -147 -109 -401q0 -253 109 -402q43 -57 108 -90q68 -34 145 -34q170 0 262 124q109 149 109 404q0 253 -109 399
q-93 124 -258 124z" />
    </font>
</defs>
</svg>
